%TF.GenerationSoftware,KiCad,Pcbnew,7.0.2*%
%TF.CreationDate,2024-03-26T11:17:04+09:00*%
%TF.ProjectId,dual_arduino_macplus_adapter,6475616c-5f61-4726-9475-696e6f5f6d61,rev?*%
%TF.SameCoordinates,Original*%
%TF.FileFunction,Copper,L2,Bot*%
%TF.FilePolarity,Positive*%
%FSLAX46Y46*%
G04 Gerber Fmt 4.6, Leading zero omitted, Abs format (unit mm)*
G04 Created by KiCad (PCBNEW 7.0.2) date 2024-03-26 11:17:04*
%MOMM*%
%LPD*%
G01*
G04 APERTURE LIST*
%TA.AperFunction,ComponentPad*%
%ADD10R,1.500000X1.500000*%
%TD*%
%TA.AperFunction,ComponentPad*%
%ADD11C,1.500000*%
%TD*%
%TA.AperFunction,ComponentPad*%
%ADD12O,2.000000X3.500000*%
%TD*%
%TA.AperFunction,ComponentPad*%
%ADD13R,1.600000X1.600000*%
%TD*%
%TA.AperFunction,ComponentPad*%
%ADD14C,1.600000*%
%TD*%
%TA.AperFunction,ComponentPad*%
%ADD15O,4.000000X2.000000*%
%TD*%
%TA.AperFunction,ComponentPad*%
%ADD16C,4.000000*%
%TD*%
%TA.AperFunction,ComponentPad*%
%ADD17O,1.600000X1.600000*%
%TD*%
%TA.AperFunction,Conductor*%
%ADD18C,0.250000*%
%TD*%
G04 APERTURE END LIST*
D10*
%TO.P,J4,1*%
%TO.N,GND*%
X134360000Y-50060000D03*
D11*
%TO.P,J4,2*%
%TO.N,Net-(A1-D4)*%
X135380000Y-52600000D03*
%TO.P,J4,3*%
%TO.N,Net-(A1-D5)*%
X136400000Y-50060000D03*
%TO.P,J4,4*%
%TO.N,5V*%
X137420000Y-52600000D03*
%TD*%
D12*
%TO.P,J3,7*%
%TO.N,N/C*%
X121450000Y-87630000D03*
X135150000Y-87630000D03*
D13*
%TO.P,J3,1*%
%TO.N,Net-(A1-D3)*%
X129600000Y-84780000D03*
D14*
%TO.P,J3,2*%
%TO.N,unconnected-(J3-Pad2)*%
X127000000Y-84780000D03*
%TO.P,J3,3*%
%TO.N,GND*%
X131700000Y-84780000D03*
%TO.P,J3,4*%
%TO.N,5V*%
X124900000Y-84780000D03*
%TO.P,J3,5*%
%TO.N,Net-(A1-D2)*%
X131700000Y-81980000D03*
%TO.P,J3,6*%
%TO.N,unconnected-(J3-Pad6)*%
X124900000Y-81980000D03*
D15*
%TO.P,J3,7*%
%TO.N,N/C*%
X128300000Y-88430000D03*
%TD*%
D12*
%TO.P,J2,7*%
%TO.N,N/C*%
X101510000Y-87630000D03*
X115210000Y-87630000D03*
D13*
%TO.P,J2,1*%
%TO.N,Net-(A1-D13)*%
X109660000Y-84780000D03*
D14*
%TO.P,J2,2*%
%TO.N,unconnected-(J2-Pad2)*%
X107060000Y-84780000D03*
%TO.P,J2,3*%
%TO.N,GND*%
X111760000Y-84780000D03*
%TO.P,J2,4*%
%TO.N,5V*%
X104960000Y-84780000D03*
%TO.P,J2,5*%
%TO.N,Net-(A1-A0)*%
X111760000Y-81980000D03*
%TO.P,J2,6*%
%TO.N,unconnected-(J2-Pad6)*%
X104960000Y-81980000D03*
D15*
%TO.P,J2,7*%
%TO.N,N/C*%
X108360000Y-88430000D03*
%TD*%
D16*
%TO.P,J1,0*%
%TO.N,N/C*%
X98915000Y-50800000D03*
X123915000Y-50800000D03*
D13*
%TO.P,J1,1,1*%
%TO.N,GND*%
X105875000Y-51100000D03*
D14*
%TO.P,J1,2,2*%
%TO.N,5V*%
X108645000Y-51100000D03*
%TO.P,J1,3,3*%
%TO.N,Net-(A1-D12)*%
X111415000Y-51100000D03*
%TO.P,J1,4,4*%
%TO.N,Net-(A1-D11)*%
X114185000Y-51100000D03*
%TO.P,J1,5,5*%
%TO.N,Net-(A1-D10)*%
X116955000Y-51100000D03*
%TO.P,J1,6,6*%
%TO.N,Net-(A1-D9)*%
X107260000Y-48260000D03*
%TO.P,J1,7,7*%
%TO.N,Net-(A1-D8)*%
X110030000Y-48260000D03*
%TO.P,J1,8,8*%
%TO.N,Net-(A1-D7)*%
X112800000Y-48260000D03*
%TO.P,J1,9,9*%
%TO.N,Net-(A1-D6)*%
X115570000Y-48260000D03*
%TD*%
D13*
%TO.P,A1,1,D1/TX*%
%TO.N,unconnected-(A1-D1{slash}TX-Pad1)*%
X134620000Y-59690000D03*
D17*
%TO.P,A1,2,D0/RX*%
%TO.N,unconnected-(A1-D0{slash}RX-Pad2)*%
X132080000Y-59690000D03*
%TO.P,A1,3,~{RESET}*%
%TO.N,unconnected-(A1-~{RESET}-Pad3)*%
X129540000Y-59690000D03*
%TO.P,A1,4,GND*%
%TO.N,GND*%
X127000000Y-59690000D03*
%TO.P,A1,5,D2*%
%TO.N,Net-(A1-D2)*%
X124460000Y-59690000D03*
%TO.P,A1,6,D3*%
%TO.N,Net-(A1-D3)*%
X121920000Y-59690000D03*
%TO.P,A1,7,D4*%
%TO.N,Net-(A1-D4)*%
X119380000Y-59690000D03*
%TO.P,A1,8,D5*%
%TO.N,Net-(A1-D5)*%
X116840000Y-59690000D03*
%TO.P,A1,9,D6*%
%TO.N,Net-(A1-D6)*%
X114300000Y-59690000D03*
%TO.P,A1,10,D7*%
%TO.N,Net-(A1-D7)*%
X111760000Y-59690000D03*
%TO.P,A1,11,D8*%
%TO.N,Net-(A1-D8)*%
X109220000Y-59690000D03*
%TO.P,A1,12,D9*%
%TO.N,Net-(A1-D9)*%
X106680000Y-59690000D03*
%TO.P,A1,13,D10*%
%TO.N,Net-(A1-D10)*%
X104140000Y-59690000D03*
%TO.P,A1,14,D11*%
%TO.N,Net-(A1-D11)*%
X101600000Y-59690000D03*
%TO.P,A1,15,D12*%
%TO.N,Net-(A1-D12)*%
X99060000Y-59690000D03*
%TO.P,A1,16,D13*%
%TO.N,Net-(A1-D13)*%
X99060000Y-74930000D03*
%TO.P,A1,17,3V3*%
%TO.N,unconnected-(A1-3V3-Pad17)*%
X101600000Y-74930000D03*
%TO.P,A1,18,AREF*%
%TO.N,unconnected-(A1-AREF-Pad18)*%
X104140000Y-74930000D03*
%TO.P,A1,19,A0*%
%TO.N,Net-(A1-A0)*%
X106680000Y-74930000D03*
%TO.P,A1,20,A1*%
%TO.N,unconnected-(A1-A1-Pad20)*%
X109220000Y-74930000D03*
%TO.P,A1,21,A2*%
%TO.N,unconnected-(A1-A2-Pad21)*%
X111760000Y-74930000D03*
%TO.P,A1,22,A3*%
%TO.N,unconnected-(A1-A3-Pad22)*%
X114300000Y-74930000D03*
%TO.P,A1,23,A4*%
%TO.N,unconnected-(A1-A4-Pad23)*%
X116840000Y-74930000D03*
%TO.P,A1,24,A5*%
%TO.N,unconnected-(A1-A5-Pad24)*%
X119380000Y-74930000D03*
%TO.P,A1,25,A6*%
%TO.N,unconnected-(A1-A6-Pad25)*%
X121920000Y-74930000D03*
%TO.P,A1,26,A7*%
%TO.N,unconnected-(A1-A7-Pad26)*%
X124460000Y-74930000D03*
%TO.P,A1,27,+5V*%
%TO.N,5V*%
X127000000Y-74930000D03*
%TO.P,A1,28,~{RESET}*%
%TO.N,unconnected-(A1-~{RESET}-Pad28)*%
X129540000Y-74930000D03*
%TO.P,A1,29,GND*%
%TO.N,GND*%
X132080000Y-74930000D03*
%TO.P,A1,30,VIN*%
%TO.N,unconnected-(A1-VIN-Pad30)*%
X134620000Y-74930000D03*
%TD*%
D18*
%TO.N,5V*%
X120329009Y-72390000D02*
X127000000Y-72390000D01*
X107950000Y-60010991D02*
X120329009Y-72390000D01*
X107950000Y-57150000D02*
X107950000Y-60010991D01*
X108645000Y-56455000D02*
X107950000Y-57150000D01*
X108645000Y-51100000D02*
X108645000Y-56455000D01*
X127000000Y-74930000D02*
X127000000Y-72390000D01*
X127000000Y-72390000D02*
X137420000Y-61970000D01*
X137420000Y-61970000D02*
X137420000Y-52600000D01*
X124460000Y-77470000D02*
X127000000Y-74930000D01*
X112270000Y-77470000D02*
X124460000Y-77470000D01*
X104960000Y-84780000D02*
X112270000Y-77470000D01*
%TO.N,Net-(A1-D6)*%
X115570000Y-58420000D02*
X115570000Y-48260000D01*
X114300000Y-59690000D02*
X115570000Y-58420000D01*
%TO.N,Net-(A1-D7)*%
X112800000Y-58650000D02*
X112800000Y-48260000D01*
X111760000Y-59690000D02*
X112800000Y-58650000D01*
%TO.N,Net-(A1-D8)*%
X110030000Y-58880000D02*
X110030000Y-48260000D01*
X109220000Y-59690000D02*
X110030000Y-58880000D01*
%TO.N,Net-(A1-D9)*%
X107260000Y-59110000D02*
X107260000Y-48260000D01*
X106680000Y-59690000D02*
X107260000Y-59110000D01*
%TD*%
%TA.AperFunction,Conductor*%
%TO.N,GND*%
G36*
X156213471Y-44450694D02*
G01*
X156325603Y-44456992D01*
X156494353Y-44467199D01*
X156507588Y-44468720D01*
X156640387Y-44491283D01*
X156786243Y-44518013D01*
X156798133Y-44520809D01*
X156930788Y-44559025D01*
X156933279Y-44559773D01*
X157070146Y-44602423D01*
X157080682Y-44606237D01*
X157209736Y-44659693D01*
X157213063Y-44661130D01*
X157342306Y-44719298D01*
X157351372Y-44723834D01*
X157474331Y-44791791D01*
X157478500Y-44794202D01*
X157598988Y-44867040D01*
X157606592Y-44872027D01*
X157721525Y-44953575D01*
X157726223Y-44957078D01*
X157836752Y-45043672D01*
X157842906Y-45048823D01*
X157948133Y-45142859D01*
X157953187Y-45147638D01*
X158052360Y-45246811D01*
X158057139Y-45251865D01*
X158151175Y-45357092D01*
X158156326Y-45363246D01*
X158242904Y-45473754D01*
X158246423Y-45478473D01*
X158327971Y-45593406D01*
X158332958Y-45601010D01*
X158405796Y-45721498D01*
X158408207Y-45725667D01*
X158476164Y-45848626D01*
X158480712Y-45857716D01*
X158538832Y-45986853D01*
X158540317Y-45990291D01*
X158593756Y-46119303D01*
X158597580Y-46129866D01*
X158640214Y-46266684D01*
X158640983Y-46269246D01*
X158679180Y-46401831D01*
X158681995Y-46413807D01*
X158708723Y-46559655D01*
X158731276Y-46692390D01*
X158732800Y-46705663D01*
X158743012Y-46874474D01*
X158749305Y-46986528D01*
X158749500Y-46993480D01*
X158749500Y-90166519D01*
X158749305Y-90173472D01*
X158743012Y-90285524D01*
X158732801Y-90454330D01*
X158731275Y-90467613D01*
X158708723Y-90600343D01*
X158681995Y-90746195D01*
X158679182Y-90758163D01*
X158640983Y-90890752D01*
X158640214Y-90893314D01*
X158597580Y-91030132D01*
X158593756Y-91040695D01*
X158540317Y-91169707D01*
X158538832Y-91173145D01*
X158480712Y-91302282D01*
X158476164Y-91311372D01*
X158408207Y-91434331D01*
X158405796Y-91438500D01*
X158332958Y-91558988D01*
X158327971Y-91566592D01*
X158246423Y-91681525D01*
X158242904Y-91686244D01*
X158156326Y-91796752D01*
X158151175Y-91802906D01*
X158057139Y-91908133D01*
X158052360Y-91913187D01*
X157953187Y-92012360D01*
X157948133Y-92017139D01*
X157842906Y-92111175D01*
X157836752Y-92116326D01*
X157726244Y-92202904D01*
X157721525Y-92206423D01*
X157606592Y-92287971D01*
X157598988Y-92292958D01*
X157478500Y-92365796D01*
X157474331Y-92368207D01*
X157351372Y-92436164D01*
X157342282Y-92440712D01*
X157213145Y-92498832D01*
X157209707Y-92500317D01*
X157080695Y-92553756D01*
X157070132Y-92557580D01*
X156933314Y-92600214D01*
X156930752Y-92600983D01*
X156798167Y-92639180D01*
X156786191Y-92641995D01*
X156640344Y-92668723D01*
X156507608Y-92691276D01*
X156494335Y-92692800D01*
X156325525Y-92703012D01*
X156213472Y-92709305D01*
X156206520Y-92709500D01*
X81283481Y-92709500D01*
X81276528Y-92709305D01*
X81164475Y-92703012D01*
X80995668Y-92692801D01*
X80982385Y-92691275D01*
X80849656Y-92668723D01*
X80722694Y-92645456D01*
X80703800Y-92641994D01*
X80691837Y-92639182D01*
X80674400Y-92634159D01*
X80559246Y-92600983D01*
X80556684Y-92600214D01*
X80419866Y-92557580D01*
X80409303Y-92553756D01*
X80280291Y-92500317D01*
X80276873Y-92498841D01*
X80147713Y-92440710D01*
X80138626Y-92436164D01*
X80015667Y-92368207D01*
X80011498Y-92365796D01*
X79891010Y-92292958D01*
X79883406Y-92287971D01*
X79768473Y-92206423D01*
X79763754Y-92202904D01*
X79653246Y-92116326D01*
X79647092Y-92111175D01*
X79541865Y-92017139D01*
X79536811Y-92012360D01*
X79437638Y-91913187D01*
X79432859Y-91908133D01*
X79338823Y-91802906D01*
X79333672Y-91796752D01*
X79247078Y-91686223D01*
X79243575Y-91681525D01*
X79162027Y-91566592D01*
X79157040Y-91558988D01*
X79084202Y-91438500D01*
X79081791Y-91434331D01*
X79063272Y-91400824D01*
X79013832Y-91311369D01*
X79009298Y-91302306D01*
X78951130Y-91173063D01*
X78949693Y-91169736D01*
X78896237Y-91040682D01*
X78892423Y-91030146D01*
X78849773Y-90893279D01*
X78849015Y-90890752D01*
X78844307Y-90874409D01*
X78810814Y-90758153D01*
X78808006Y-90746205D01*
X78781288Y-90600416D01*
X78758721Y-90467599D01*
X78757199Y-90454345D01*
X78746992Y-90285603D01*
X78740695Y-90173472D01*
X78740500Y-90166521D01*
X78740500Y-88442067D01*
X100009500Y-88442067D01*
X100024892Y-88627821D01*
X100085937Y-88868881D01*
X100130960Y-88971523D01*
X100185825Y-89096604D01*
X100185827Y-89096607D01*
X100321836Y-89304785D01*
X100490256Y-89487738D01*
X100490259Y-89487740D01*
X100686485Y-89640470D01*
X100686487Y-89640471D01*
X100686491Y-89640474D01*
X100905190Y-89758828D01*
X101140386Y-89839571D01*
X101385665Y-89880500D01*
X101634335Y-89880500D01*
X101879614Y-89839571D01*
X102114810Y-89758828D01*
X102333509Y-89640474D01*
X102529744Y-89487738D01*
X102698164Y-89304785D01*
X102834173Y-89096607D01*
X102934063Y-88868881D01*
X102995108Y-88627821D01*
X103001197Y-88554334D01*
X105859500Y-88554334D01*
X105900429Y-88799615D01*
X105981170Y-89034805D01*
X105981172Y-89034810D01*
X106014615Y-89096607D01*
X106099529Y-89253514D01*
X106235036Y-89427612D01*
X106252262Y-89449744D01*
X106435215Y-89618164D01*
X106643393Y-89754173D01*
X106643395Y-89754174D01*
X106665833Y-89764016D01*
X106871119Y-89854063D01*
X107112179Y-89915108D01*
X107297933Y-89930500D01*
X107300503Y-89930500D01*
X109419497Y-89930500D01*
X109422067Y-89930500D01*
X109607821Y-89915108D01*
X109848881Y-89854063D01*
X110076607Y-89754173D01*
X110284785Y-89618164D01*
X110467738Y-89449744D01*
X110620474Y-89253509D01*
X110738828Y-89034810D01*
X110819571Y-88799614D01*
X110860500Y-88554335D01*
X110860500Y-88442067D01*
X113709500Y-88442067D01*
X113724892Y-88627821D01*
X113785937Y-88868881D01*
X113830960Y-88971523D01*
X113885825Y-89096604D01*
X113885827Y-89096607D01*
X114021836Y-89304785D01*
X114190256Y-89487738D01*
X114190259Y-89487740D01*
X114386485Y-89640470D01*
X114386487Y-89640471D01*
X114386491Y-89640474D01*
X114605190Y-89758828D01*
X114840386Y-89839571D01*
X115085665Y-89880500D01*
X115334335Y-89880500D01*
X115579614Y-89839571D01*
X115814810Y-89758828D01*
X116033509Y-89640474D01*
X116229744Y-89487738D01*
X116398164Y-89304785D01*
X116534173Y-89096607D01*
X116634063Y-88868881D01*
X116695108Y-88627821D01*
X116710500Y-88442067D01*
X119949500Y-88442067D01*
X119964892Y-88627821D01*
X120025937Y-88868881D01*
X120070960Y-88971523D01*
X120125825Y-89096604D01*
X120125827Y-89096607D01*
X120261836Y-89304785D01*
X120430256Y-89487738D01*
X120430259Y-89487740D01*
X120626485Y-89640470D01*
X120626487Y-89640471D01*
X120626491Y-89640474D01*
X120845190Y-89758828D01*
X121080386Y-89839571D01*
X121325665Y-89880500D01*
X121574335Y-89880500D01*
X121819614Y-89839571D01*
X122054810Y-89758828D01*
X122273509Y-89640474D01*
X122469744Y-89487738D01*
X122638164Y-89304785D01*
X122774173Y-89096607D01*
X122874063Y-88868881D01*
X122935108Y-88627821D01*
X122941197Y-88554334D01*
X125799500Y-88554334D01*
X125840429Y-88799615D01*
X125921170Y-89034805D01*
X125921172Y-89034810D01*
X125954615Y-89096607D01*
X126039529Y-89253514D01*
X126175036Y-89427612D01*
X126192262Y-89449744D01*
X126375215Y-89618164D01*
X126583393Y-89754173D01*
X126583395Y-89754174D01*
X126605833Y-89764016D01*
X126811119Y-89854063D01*
X127052179Y-89915108D01*
X127237933Y-89930500D01*
X127240503Y-89930500D01*
X129359497Y-89930500D01*
X129362067Y-89930500D01*
X129547821Y-89915108D01*
X129788881Y-89854063D01*
X130016607Y-89754173D01*
X130224785Y-89618164D01*
X130407738Y-89449744D01*
X130560474Y-89253509D01*
X130678828Y-89034810D01*
X130759571Y-88799614D01*
X130800500Y-88554335D01*
X130800500Y-88442067D01*
X133649500Y-88442067D01*
X133664892Y-88627821D01*
X133725937Y-88868881D01*
X133770960Y-88971523D01*
X133825825Y-89096604D01*
X133825827Y-89096607D01*
X133961836Y-89304785D01*
X134130256Y-89487738D01*
X134130259Y-89487740D01*
X134326485Y-89640470D01*
X134326487Y-89640471D01*
X134326491Y-89640474D01*
X134545190Y-89758828D01*
X134780386Y-89839571D01*
X135025665Y-89880500D01*
X135274335Y-89880500D01*
X135519614Y-89839571D01*
X135754810Y-89758828D01*
X135973509Y-89640474D01*
X136169744Y-89487738D01*
X136338164Y-89304785D01*
X136474173Y-89096607D01*
X136574063Y-88868881D01*
X136635108Y-88627821D01*
X136650500Y-88442067D01*
X136650500Y-86817933D01*
X136635108Y-86632179D01*
X136574063Y-86391119D01*
X136474173Y-86163393D01*
X136338164Y-85955215D01*
X136169744Y-85772262D01*
X136134146Y-85744555D01*
X135973514Y-85619529D01*
X135973510Y-85619526D01*
X135973509Y-85619526D01*
X135754810Y-85501172D01*
X135754806Y-85501170D01*
X135754805Y-85501170D01*
X135519615Y-85420429D01*
X135274335Y-85379500D01*
X135025665Y-85379500D01*
X134780384Y-85420429D01*
X134545194Y-85501170D01*
X134545190Y-85501171D01*
X134545190Y-85501172D01*
X134459033Y-85547798D01*
X134326485Y-85619529D01*
X134130259Y-85772259D01*
X134130256Y-85772261D01*
X134130256Y-85772262D01*
X133961836Y-85955215D01*
X133928174Y-86006739D01*
X133825825Y-86163395D01*
X133725938Y-86391117D01*
X133664892Y-86632177D01*
X133664891Y-86632179D01*
X133664892Y-86632179D01*
X133649500Y-86817933D01*
X133649500Y-88442067D01*
X130800500Y-88442067D01*
X130800500Y-88305665D01*
X130759571Y-88060386D01*
X130678828Y-87825190D01*
X130560474Y-87606491D01*
X130560471Y-87606487D01*
X130560470Y-87606485D01*
X130430904Y-87440020D01*
X130407738Y-87410256D01*
X130224785Y-87241836D01*
X130016607Y-87105827D01*
X130016604Y-87105825D01*
X129891523Y-87050960D01*
X129788881Y-87005937D01*
X129608867Y-86960351D01*
X129547822Y-86944892D01*
X129513854Y-86942077D01*
X129362067Y-86929500D01*
X127237933Y-86929500D01*
X127120111Y-86939262D01*
X127052177Y-86944892D01*
X126930087Y-86975810D01*
X126811119Y-87005937D01*
X126811116Y-87005938D01*
X126811117Y-87005938D01*
X126583395Y-87105825D01*
X126498555Y-87161254D01*
X126375215Y-87241836D01*
X126193589Y-87409035D01*
X126192259Y-87410259D01*
X126039529Y-87606485D01*
X125921170Y-87825194D01*
X125840429Y-88060384D01*
X125799500Y-88305665D01*
X125799500Y-88554334D01*
X122941197Y-88554334D01*
X122950500Y-88442067D01*
X122950500Y-86817933D01*
X122935108Y-86632179D01*
X122874063Y-86391119D01*
X122774173Y-86163393D01*
X122638164Y-85955215D01*
X122469744Y-85772262D01*
X122434146Y-85744555D01*
X122273514Y-85619529D01*
X122273510Y-85619526D01*
X122273509Y-85619526D01*
X122054810Y-85501172D01*
X122054806Y-85501170D01*
X122054805Y-85501170D01*
X121819615Y-85420429D01*
X121574335Y-85379500D01*
X121325665Y-85379500D01*
X121080384Y-85420429D01*
X120845194Y-85501170D01*
X120845190Y-85501171D01*
X120845190Y-85501172D01*
X120759033Y-85547798D01*
X120626485Y-85619529D01*
X120430259Y-85772259D01*
X120430256Y-85772261D01*
X120430256Y-85772262D01*
X120261836Y-85955215D01*
X120228174Y-86006739D01*
X120125825Y-86163395D01*
X120025938Y-86391117D01*
X119964892Y-86632177D01*
X119964891Y-86632179D01*
X119964892Y-86632179D01*
X119949500Y-86817933D01*
X119949500Y-88442067D01*
X116710500Y-88442067D01*
X116710500Y-86817933D01*
X116695108Y-86632179D01*
X116634063Y-86391119D01*
X116534173Y-86163393D01*
X116398164Y-85955215D01*
X116229744Y-85772262D01*
X116194146Y-85744555D01*
X116033514Y-85619529D01*
X116033510Y-85619526D01*
X116033509Y-85619526D01*
X115814810Y-85501172D01*
X115814806Y-85501170D01*
X115814805Y-85501170D01*
X115579615Y-85420429D01*
X115334335Y-85379500D01*
X115085665Y-85379500D01*
X114840384Y-85420429D01*
X114605194Y-85501170D01*
X114605190Y-85501171D01*
X114605190Y-85501172D01*
X114519033Y-85547798D01*
X114386485Y-85619529D01*
X114190259Y-85772259D01*
X114190256Y-85772261D01*
X114190256Y-85772262D01*
X114021836Y-85955215D01*
X113988174Y-86006739D01*
X113885825Y-86163395D01*
X113785938Y-86391117D01*
X113724892Y-86632177D01*
X113724891Y-86632179D01*
X113724892Y-86632179D01*
X113709500Y-86817933D01*
X113709500Y-88442067D01*
X110860500Y-88442067D01*
X110860500Y-88305665D01*
X110819571Y-88060386D01*
X110738828Y-87825190D01*
X110620474Y-87606491D01*
X110620471Y-87606487D01*
X110620470Y-87606485D01*
X110490904Y-87440020D01*
X110467738Y-87410256D01*
X110284785Y-87241836D01*
X110076607Y-87105827D01*
X110076604Y-87105825D01*
X109951523Y-87050960D01*
X109848881Y-87005937D01*
X109668866Y-86960351D01*
X109607822Y-86944892D01*
X109573854Y-86942077D01*
X109422067Y-86929500D01*
X107297933Y-86929500D01*
X107180111Y-86939262D01*
X107112177Y-86944892D01*
X106990087Y-86975810D01*
X106871119Y-87005937D01*
X106871116Y-87005938D01*
X106871117Y-87005938D01*
X106643395Y-87105825D01*
X106558555Y-87161254D01*
X106435215Y-87241836D01*
X106253589Y-87409035D01*
X106252259Y-87410259D01*
X106099529Y-87606485D01*
X105981170Y-87825194D01*
X105900429Y-88060384D01*
X105859500Y-88305665D01*
X105859500Y-88554334D01*
X103001197Y-88554334D01*
X103010500Y-88442067D01*
X103010500Y-86817933D01*
X102995108Y-86632179D01*
X102934063Y-86391119D01*
X102834173Y-86163393D01*
X102698164Y-85955215D01*
X102529744Y-85772262D01*
X102494146Y-85744555D01*
X102333514Y-85619529D01*
X102333510Y-85619526D01*
X102333509Y-85619526D01*
X102114810Y-85501172D01*
X102114806Y-85501170D01*
X102114805Y-85501170D01*
X101879615Y-85420429D01*
X101634335Y-85379500D01*
X101385665Y-85379500D01*
X101140384Y-85420429D01*
X100905194Y-85501170D01*
X100905190Y-85501171D01*
X100905190Y-85501172D01*
X100819033Y-85547798D01*
X100686485Y-85619529D01*
X100490259Y-85772259D01*
X100490256Y-85772261D01*
X100490256Y-85772262D01*
X100321836Y-85955215D01*
X100288174Y-86006739D01*
X100185825Y-86163395D01*
X100085938Y-86391117D01*
X100024892Y-86632177D01*
X100024891Y-86632179D01*
X100024892Y-86632179D01*
X100009500Y-86817933D01*
X100009500Y-88442067D01*
X78740500Y-88442067D01*
X78740500Y-84500000D01*
X82994696Y-84500000D01*
X82994866Y-84503243D01*
X83003265Y-84663510D01*
X83002755Y-84665655D01*
X83003619Y-84673737D01*
X83004151Y-84680421D01*
X83004791Y-84692624D01*
X83004961Y-84699118D01*
X83004961Y-84703878D01*
X83005486Y-84705900D01*
X83010751Y-84806357D01*
X83013898Y-84866404D01*
X83014403Y-84869597D01*
X83014405Y-84869609D01*
X83039983Y-85031099D01*
X83039622Y-85033891D01*
X83041892Y-85044389D01*
X83043167Y-85051201D01*
X83045149Y-85063716D01*
X83045971Y-85069920D01*
X83046173Y-85071809D01*
X83046619Y-85072997D01*
X83071295Y-85228794D01*
X83072133Y-85231923D01*
X83072136Y-85231935D01*
X83115241Y-85392803D01*
X83115159Y-85396218D01*
X83119278Y-85408668D01*
X83121326Y-85415516D01*
X83124843Y-85428641D01*
X83125947Y-85433201D01*
X83126201Y-85433707D01*
X83165415Y-85580055D01*
X83165418Y-85580064D01*
X83166258Y-85583199D01*
X83228197Y-85744556D01*
X83228521Y-85748552D01*
X83234853Y-85762507D01*
X83237695Y-85769301D01*
X83241821Y-85780049D01*
X83243066Y-85783291D01*
X83243295Y-85783933D01*
X83243337Y-85783998D01*
X83296586Y-85922718D01*
X83296589Y-85922726D01*
X83297745Y-85925736D01*
X83299209Y-85928610D01*
X83299213Y-85928618D01*
X83377593Y-86082446D01*
X83378442Y-86086968D01*
X83387266Y-86101943D01*
X83390917Y-86108596D01*
X83464318Y-86252652D01*
X83466089Y-86255379D01*
X83561779Y-86402730D01*
X83563262Y-86407693D01*
X83574756Y-86423165D01*
X83579214Y-86429578D01*
X83640233Y-86523538D01*
X83664149Y-86560366D01*
X83666194Y-86562891D01*
X83778696Y-86701820D01*
X83780910Y-86707131D01*
X83795168Y-86722575D01*
X83800423Y-86728650D01*
X83891906Y-86841623D01*
X83895051Y-86845506D01*
X83897344Y-86847800D01*
X83897345Y-86847800D01*
X84025931Y-86976386D01*
X84028962Y-86981937D01*
X84046019Y-86996862D01*
X84052045Y-87002500D01*
X84154494Y-87104949D01*
X84157012Y-87106988D01*
X84300733Y-87223371D01*
X84304645Y-87229034D01*
X84324418Y-87242923D01*
X84331173Y-87248021D01*
X84439634Y-87335851D01*
X84508334Y-87380465D01*
X84600040Y-87440020D01*
X84604884Y-87445665D01*
X84627258Y-87458058D01*
X84634703Y-87462530D01*
X84747348Y-87535682D01*
X84824303Y-87574893D01*
X84920532Y-87623924D01*
X84926338Y-87629408D01*
X84951087Y-87639853D01*
X84959167Y-87643610D01*
X85074264Y-87702255D01*
X85258627Y-87773025D01*
X85265405Y-87778200D01*
X85292289Y-87786306D01*
X85300909Y-87789255D01*
X85416801Y-87833742D01*
X85610549Y-87885657D01*
X85618289Y-87890374D01*
X85646989Y-87895786D01*
X85656102Y-87897863D01*
X85771206Y-87928705D01*
X85972403Y-87960571D01*
X85981072Y-87964681D01*
X86011239Y-87967096D01*
X86020744Y-87968228D01*
X86133596Y-87986102D01*
X86340136Y-87996926D01*
X86349686Y-88000282D01*
X86380918Y-87999450D01*
X86390697Y-87999575D01*
X86500000Y-88005304D01*
X86709659Y-87994316D01*
X86720005Y-87996774D01*
X86751854Y-87992509D01*
X86761809Y-87991583D01*
X86866404Y-87986102D01*
X87076844Y-87952771D01*
X87087900Y-87954199D01*
X87119940Y-87946372D01*
X87129932Y-87944363D01*
X87228794Y-87928705D01*
X87437630Y-87872747D01*
X87449284Y-87873024D01*
X87481046Y-87861570D01*
X87491011Y-87858443D01*
X87583199Y-87833742D01*
X87787976Y-87755135D01*
X87800089Y-87754153D01*
X87831099Y-87739074D01*
X87840877Y-87734828D01*
X87925736Y-87702255D01*
X88123965Y-87601251D01*
X88136399Y-87598916D01*
X88166215Y-87580260D01*
X88175681Y-87574900D01*
X88252652Y-87535682D01*
X88441878Y-87412797D01*
X88454468Y-87409035D01*
X88482625Y-87386929D01*
X88491642Y-87380480D01*
X88560366Y-87335851D01*
X88738155Y-87191880D01*
X88750731Y-87186635D01*
X88776797Y-87161254D01*
X88785254Y-87153739D01*
X88845506Y-87104949D01*
X89009496Y-86940958D01*
X89021872Y-86934200D01*
X89045441Y-86905773D01*
X89053210Y-86897244D01*
X89104949Y-86845506D01*
X89252885Y-86662819D01*
X89264881Y-86654533D01*
X89285570Y-86623345D01*
X89292536Y-86613855D01*
X89333806Y-86562891D01*
X89335851Y-86560366D01*
X89465593Y-86360578D01*
X89477010Y-86350781D01*
X89494481Y-86317159D01*
X89500506Y-86306817D01*
X89535682Y-86252652D01*
X89645268Y-86037577D01*
X89655918Y-86026300D01*
X89669870Y-85990619D01*
X89674865Y-85979491D01*
X89702255Y-85925736D01*
X89789888Y-85697440D01*
X89799580Y-85684748D01*
X89809767Y-85647392D01*
X89813626Y-85635601D01*
X89833742Y-85583199D01*
X89897840Y-85343981D01*
X89906392Y-85329950D01*
X89912612Y-85291348D01*
X89915258Y-85278978D01*
X89927863Y-85231935D01*
X89928705Y-85228794D01*
X89986102Y-84866404D01*
X90005304Y-84500000D01*
X89986102Y-84133596D01*
X89928705Y-83771206D01*
X89919718Y-83737668D01*
X89915259Y-83721025D01*
X89912612Y-83708653D01*
X89907274Y-83675525D01*
X89897843Y-83656028D01*
X89834584Y-83419943D01*
X89834583Y-83419941D01*
X89833742Y-83416801D01*
X89813631Y-83364409D01*
X89809768Y-83352608D01*
X89801000Y-83320458D01*
X89789889Y-83302560D01*
X89702255Y-83074264D01*
X89700786Y-83071381D01*
X89700783Y-83071374D01*
X89674872Y-83020522D01*
X89669870Y-83009381D01*
X89657825Y-82978575D01*
X89645268Y-82962421D01*
X89537156Y-82750241D01*
X89535682Y-82747348D01*
X89500522Y-82693206D01*
X89494485Y-82682846D01*
X89479354Y-82653728D01*
X89465593Y-82639420D01*
X89335851Y-82439634D01*
X89333807Y-82437110D01*
X89333797Y-82437096D01*
X89292540Y-82386149D01*
X89285573Y-82376659D01*
X89267602Y-82349569D01*
X89252887Y-82337182D01*
X89106988Y-82157012D01*
X89104949Y-82154494D01*
X89053226Y-82102771D01*
X89045448Y-82094232D01*
X89024916Y-82069466D01*
X89009495Y-82059040D01*
X88847800Y-81897345D01*
X88847800Y-81897344D01*
X88845506Y-81895051D01*
X88785269Y-81846272D01*
X88776798Y-81838746D01*
X88754026Y-81816573D01*
X88738154Y-81808119D01*
X88699265Y-81776627D01*
X88560366Y-81664149D01*
X88491661Y-81619532D01*
X88482625Y-81613070D01*
X88457954Y-81593700D01*
X88441877Y-81587201D01*
X88255379Y-81466089D01*
X88255374Y-81466086D01*
X88252652Y-81464318D01*
X88249764Y-81462846D01*
X88249758Y-81462843D01*
X88175698Y-81425108D01*
X88166221Y-81419742D01*
X88140023Y-81403350D01*
X88123966Y-81398749D01*
X88066646Y-81369543D01*
X87925736Y-81297745D01*
X87922726Y-81296589D01*
X87922718Y-81296586D01*
X87840906Y-81265182D01*
X87831119Y-81260933D01*
X87803780Y-81247639D01*
X87787975Y-81244863D01*
X87586241Y-81167425D01*
X87586228Y-81167421D01*
X87583199Y-81166258D01*
X87580064Y-81165418D01*
X87580055Y-81165415D01*
X87491027Y-81141560D01*
X87481056Y-81138432D01*
X87452987Y-81128310D01*
X87437632Y-81127253D01*
X87231935Y-81072136D01*
X87231923Y-81072133D01*
X87228794Y-81071295D01*
X87225589Y-81070787D01*
X87225578Y-81070785D01*
X87129987Y-81055645D01*
X87119959Y-81053630D01*
X87091556Y-81046691D01*
X87076844Y-81047228D01*
X86869609Y-81014405D01*
X86869597Y-81014403D01*
X86866404Y-81013898D01*
X86863171Y-81013728D01*
X86863166Y-81013728D01*
X86761839Y-81008418D01*
X86751871Y-81007491D01*
X86723565Y-81003700D01*
X86709660Y-81005683D01*
X86503245Y-80994866D01*
X86503244Y-80994866D01*
X86500000Y-80994696D01*
X86496756Y-80994866D01*
X86496755Y-80994866D01*
X86390723Y-81000422D01*
X86380934Y-81000548D01*
X86353103Y-80999807D01*
X86340138Y-81003073D01*
X86136834Y-81013728D01*
X86136828Y-81013728D01*
X86133596Y-81013898D01*
X86130404Y-81014403D01*
X86130390Y-81014405D01*
X86020755Y-81031770D01*
X86011251Y-81032902D01*
X85984302Y-81035059D01*
X85972404Y-81039428D01*
X85774423Y-81070785D01*
X85774414Y-81070786D01*
X85771206Y-81071295D01*
X85768081Y-81072132D01*
X85768059Y-81072137D01*
X85656128Y-81102129D01*
X85647013Y-81104206D01*
X85621301Y-81109054D01*
X85610550Y-81114342D01*
X85419944Y-81165415D01*
X85419929Y-81165419D01*
X85416801Y-81166258D01*
X85413776Y-81167418D01*
X85413758Y-81167425D01*
X85300950Y-81210728D01*
X85292312Y-81213684D01*
X85268164Y-81220965D01*
X85258628Y-81226974D01*
X85077281Y-81296586D01*
X85077266Y-81296592D01*
X85074264Y-81297745D01*
X85071389Y-81299209D01*
X85071373Y-81299217D01*
X84959184Y-81356380D01*
X84951107Y-81360137D01*
X84928818Y-81369543D01*
X84920534Y-81376073D01*
X84750248Y-81462839D01*
X84750227Y-81462850D01*
X84747348Y-81464318D01*
X84744629Y-81466083D01*
X84744625Y-81466086D01*
X84634724Y-81537456D01*
X84627276Y-81541930D01*
X84607082Y-81553116D01*
X84600043Y-81559978D01*
X84548116Y-81593700D01*
X84439634Y-81664149D01*
X84437114Y-81666189D01*
X84437108Y-81666194D01*
X84331185Y-81751969D01*
X84324424Y-81757072D01*
X84306542Y-81769632D01*
X84300734Y-81776627D01*
X84157012Y-81893011D01*
X84157001Y-81893020D01*
X84154494Y-81895051D01*
X84152209Y-81897335D01*
X84152209Y-81897336D01*
X84052054Y-81997491D01*
X84046030Y-82003127D01*
X84030569Y-82016655D01*
X84025932Y-82023612D01*
X83895051Y-82154494D01*
X83893020Y-82157001D01*
X83893011Y-82157012D01*
X83800424Y-82271348D01*
X83795171Y-82277421D01*
X83782222Y-82291447D01*
X83778697Y-82298177D01*
X83666201Y-82437098D01*
X83666186Y-82437117D01*
X83664149Y-82439634D01*
X83662380Y-82442356D01*
X83662377Y-82442362D01*
X83579224Y-82570407D01*
X83574766Y-82576821D01*
X83564303Y-82590903D01*
X83561781Y-82597266D01*
X83466086Y-82744625D01*
X83464318Y-82747348D01*
X83462850Y-82750227D01*
X83462843Y-82750241D01*
X83390917Y-82891404D01*
X83387266Y-82898058D01*
X83379228Y-82911699D01*
X83377594Y-82917552D01*
X83299213Y-83071381D01*
X83299206Y-83071396D01*
X83297745Y-83074264D01*
X83296589Y-83077273D01*
X83296586Y-83077282D01*
X83243337Y-83216001D01*
X83243302Y-83216046D01*
X83243064Y-83216713D01*
X83237698Y-83230690D01*
X83234857Y-83237480D01*
X83229078Y-83250216D01*
X83228197Y-83255442D01*
X83167425Y-83413758D01*
X83167423Y-83413765D01*
X83166258Y-83416801D01*
X83165419Y-83419929D01*
X83165415Y-83419944D01*
X83126202Y-83566291D01*
X83125982Y-83566651D01*
X83124842Y-83571365D01*
X83121323Y-83584496D01*
X83119276Y-83591338D01*
X83115520Y-83602693D01*
X83115241Y-83607194D01*
X83072137Y-83768059D01*
X83072132Y-83768081D01*
X83071295Y-83771206D01*
X83070786Y-83774418D01*
X83070785Y-83774424D01*
X83046619Y-83927001D01*
X83046208Y-83927866D01*
X83045972Y-83930079D01*
X83045149Y-83936285D01*
X83043168Y-83948794D01*
X83041893Y-83955607D01*
X83039822Y-83965183D01*
X83039983Y-83968899D01*
X83014405Y-84130390D01*
X83014403Y-84130404D01*
X83013898Y-84133596D01*
X83013728Y-84136828D01*
X83013728Y-84136834D01*
X83005486Y-84294098D01*
X83004961Y-84295591D01*
X83004961Y-84300881D01*
X83004791Y-84307376D01*
X83004151Y-84319577D01*
X83003619Y-84326258D01*
X83002833Y-84333607D01*
X83003265Y-84336487D01*
X82994696Y-84500000D01*
X78740500Y-84500000D01*
X78740500Y-74929999D01*
X97754531Y-74929999D01*
X97774364Y-75156689D01*
X97833261Y-75376497D01*
X97929432Y-75582735D01*
X98059953Y-75769140D01*
X98220859Y-75930046D01*
X98407264Y-76060567D01*
X98407265Y-76060567D01*
X98407266Y-76060568D01*
X98613504Y-76156739D01*
X98833308Y-76215635D01*
X99060000Y-76235468D01*
X99286692Y-76215635D01*
X99506496Y-76156739D01*
X99712734Y-76060568D01*
X99899139Y-75930047D01*
X100060047Y-75769139D01*
X100190568Y-75582734D01*
X100217619Y-75524721D01*
X100263788Y-75472286D01*
X100330981Y-75453133D01*
X100397862Y-75473348D01*
X100442380Y-75524722D01*
X100469432Y-75582733D01*
X100469433Y-75582736D01*
X100599953Y-75769140D01*
X100760859Y-75930046D01*
X100947264Y-76060567D01*
X100947265Y-76060567D01*
X100947266Y-76060568D01*
X101153504Y-76156739D01*
X101373308Y-76215635D01*
X101600000Y-76235468D01*
X101826692Y-76215635D01*
X102046496Y-76156739D01*
X102252734Y-76060568D01*
X102439139Y-75930047D01*
X102600047Y-75769139D01*
X102730568Y-75582734D01*
X102757619Y-75524721D01*
X102803788Y-75472286D01*
X102870981Y-75453133D01*
X102937862Y-75473348D01*
X102982380Y-75524722D01*
X103009432Y-75582733D01*
X103009433Y-75582736D01*
X103139953Y-75769140D01*
X103300859Y-75930046D01*
X103487264Y-76060567D01*
X103487265Y-76060567D01*
X103487266Y-76060568D01*
X103693504Y-76156739D01*
X103913308Y-76215635D01*
X104064435Y-76228856D01*
X104139999Y-76235468D01*
X104139999Y-76235467D01*
X104140000Y-76235468D01*
X104366692Y-76215635D01*
X104586496Y-76156739D01*
X104792734Y-76060568D01*
X104979139Y-75930047D01*
X105140047Y-75769139D01*
X105270568Y-75582734D01*
X105297618Y-75524724D01*
X105343790Y-75472285D01*
X105410983Y-75453133D01*
X105477865Y-75473348D01*
X105522382Y-75524725D01*
X105549431Y-75582733D01*
X105679953Y-75769140D01*
X105840859Y-75930046D01*
X106027264Y-76060567D01*
X106027265Y-76060567D01*
X106027266Y-76060568D01*
X106233504Y-76156739D01*
X106453308Y-76215635D01*
X106680000Y-76235468D01*
X106906692Y-76215635D01*
X107126496Y-76156739D01*
X107332734Y-76060568D01*
X107519139Y-75930047D01*
X107680047Y-75769139D01*
X107810568Y-75582734D01*
X107837618Y-75524724D01*
X107883790Y-75472285D01*
X107950983Y-75453133D01*
X108017865Y-75473348D01*
X108062382Y-75524725D01*
X108089431Y-75582733D01*
X108219953Y-75769140D01*
X108380859Y-75930046D01*
X108567264Y-76060567D01*
X108567265Y-76060567D01*
X108567266Y-76060568D01*
X108773504Y-76156739D01*
X108993308Y-76215635D01*
X109144436Y-76228856D01*
X109219999Y-76235468D01*
X109219999Y-76235467D01*
X109220000Y-76235468D01*
X109446692Y-76215635D01*
X109666496Y-76156739D01*
X109872734Y-76060568D01*
X110059139Y-75930047D01*
X110220047Y-75769139D01*
X110350568Y-75582734D01*
X110377618Y-75524724D01*
X110423790Y-75472285D01*
X110490983Y-75453133D01*
X110557865Y-75473348D01*
X110602382Y-75524725D01*
X110629431Y-75582733D01*
X110759953Y-75769140D01*
X110920859Y-75930046D01*
X111107264Y-76060567D01*
X111107265Y-76060567D01*
X111107266Y-76060568D01*
X111313504Y-76156739D01*
X111533308Y-76215635D01*
X111684435Y-76228857D01*
X111759999Y-76235468D01*
X111759999Y-76235467D01*
X111760000Y-76235468D01*
X111986692Y-76215635D01*
X112206496Y-76156739D01*
X112412734Y-76060568D01*
X112599139Y-75930047D01*
X112760047Y-75769139D01*
X112890568Y-75582734D01*
X112917618Y-75524724D01*
X112963790Y-75472285D01*
X113030983Y-75453133D01*
X113097865Y-75473348D01*
X113142382Y-75524725D01*
X113169431Y-75582733D01*
X113299953Y-75769140D01*
X113460859Y-75930046D01*
X113647264Y-76060567D01*
X113647265Y-76060567D01*
X113647266Y-76060568D01*
X113853504Y-76156739D01*
X114073308Y-76215635D01*
X114300000Y-76235468D01*
X114526692Y-76215635D01*
X114746496Y-76156739D01*
X114952734Y-76060568D01*
X115139139Y-75930047D01*
X115300047Y-75769139D01*
X115430568Y-75582734D01*
X115457618Y-75524724D01*
X115503790Y-75472285D01*
X115570983Y-75453133D01*
X115637865Y-75473348D01*
X115682382Y-75524725D01*
X115709431Y-75582733D01*
X115839953Y-75769140D01*
X116000859Y-75930046D01*
X116187264Y-76060567D01*
X116187265Y-76060567D01*
X116187266Y-76060568D01*
X116393504Y-76156739D01*
X116613308Y-76215635D01*
X116840000Y-76235468D01*
X117066692Y-76215635D01*
X117286496Y-76156739D01*
X117492734Y-76060568D01*
X117679139Y-75930047D01*
X117840047Y-75769139D01*
X117970568Y-75582734D01*
X117997618Y-75524724D01*
X118043790Y-75472285D01*
X118110983Y-75453133D01*
X118177865Y-75473348D01*
X118222382Y-75524725D01*
X118249431Y-75582733D01*
X118379953Y-75769140D01*
X118540859Y-75930046D01*
X118727264Y-76060567D01*
X118727265Y-76060567D01*
X118727266Y-76060568D01*
X118933504Y-76156739D01*
X119153308Y-76215635D01*
X119380000Y-76235468D01*
X119606692Y-76215635D01*
X119826496Y-76156739D01*
X120032734Y-76060568D01*
X120219139Y-75930047D01*
X120380047Y-75769139D01*
X120510568Y-75582734D01*
X120537618Y-75524724D01*
X120583790Y-75472285D01*
X120650983Y-75453133D01*
X120717865Y-75473348D01*
X120762382Y-75524725D01*
X120789431Y-75582733D01*
X120919953Y-75769140D01*
X121080859Y-75930046D01*
X121267264Y-76060567D01*
X121267265Y-76060567D01*
X121267266Y-76060568D01*
X121473504Y-76156739D01*
X121693308Y-76215635D01*
X121920000Y-76235468D01*
X122146692Y-76215635D01*
X122366496Y-76156739D01*
X122572734Y-76060568D01*
X122759139Y-75930047D01*
X122920047Y-75769139D01*
X123050568Y-75582734D01*
X123077618Y-75524724D01*
X123123790Y-75472285D01*
X123190983Y-75453133D01*
X123257865Y-75473348D01*
X123302382Y-75524725D01*
X123329431Y-75582733D01*
X123459953Y-75769140D01*
X123620859Y-75930046D01*
X123807264Y-76060567D01*
X123807265Y-76060567D01*
X123807266Y-76060568D01*
X124013504Y-76156739D01*
X124233308Y-76215635D01*
X124384435Y-76228856D01*
X124459999Y-76235468D01*
X124459999Y-76235467D01*
X124460000Y-76235468D01*
X124471299Y-76234479D01*
X124504100Y-76231610D01*
X124572600Y-76245376D01*
X124622783Y-76293992D01*
X124638717Y-76362020D01*
X124615342Y-76427864D01*
X124602589Y-76442819D01*
X124237228Y-76808181D01*
X124175905Y-76841666D01*
X124149547Y-76844500D01*
X112352741Y-76844500D01*
X112332237Y-76842236D01*
X112262145Y-76844439D01*
X112258251Y-76844500D01*
X112230650Y-76844500D01*
X112226799Y-76844986D01*
X112226768Y-76844988D01*
X112226640Y-76845005D01*
X112215028Y-76845918D01*
X112171368Y-76847290D01*
X112152128Y-76852880D01*
X112133081Y-76856825D01*
X112113209Y-76859335D01*
X112072599Y-76875413D01*
X112061554Y-76879194D01*
X112019611Y-76891380D01*
X112002369Y-76901578D01*
X111984897Y-76910138D01*
X111966266Y-76917514D01*
X111930938Y-76943181D01*
X111921180Y-76949591D01*
X111883579Y-76971829D01*
X111869410Y-76985998D01*
X111854622Y-76998628D01*
X111838413Y-77010405D01*
X111810572Y-77044058D01*
X111802711Y-77052696D01*
X106425328Y-82430079D01*
X106364005Y-82463564D01*
X106294313Y-82458580D01*
X106238380Y-82416708D01*
X106213963Y-82351244D01*
X106217872Y-82310304D01*
X106245635Y-82206692D01*
X106265468Y-81980000D01*
X106245635Y-81753308D01*
X106186739Y-81533504D01*
X106090568Y-81327266D01*
X106070926Y-81299213D01*
X105960046Y-81140859D01*
X105799140Y-80979953D01*
X105612735Y-80849432D01*
X105406497Y-80753261D01*
X105186689Y-80694364D01*
X104959999Y-80674531D01*
X104733310Y-80694364D01*
X104513502Y-80753261D01*
X104307264Y-80849432D01*
X104120859Y-80979953D01*
X103959953Y-81140859D01*
X103829432Y-81327264D01*
X103733261Y-81533502D01*
X103674364Y-81753310D01*
X103654531Y-81980000D01*
X103674364Y-82206689D01*
X103733261Y-82426497D01*
X103829432Y-82632735D01*
X103959953Y-82819140D01*
X104120859Y-82980046D01*
X104307264Y-83110567D01*
X104307265Y-83110567D01*
X104307266Y-83110568D01*
X104513504Y-83206739D01*
X104628232Y-83237480D01*
X104713117Y-83260225D01*
X104772777Y-83296590D01*
X104803306Y-83359437D01*
X104795011Y-83428813D01*
X104750526Y-83482691D01*
X104713117Y-83499775D01*
X104513502Y-83553261D01*
X104307264Y-83649432D01*
X104120859Y-83779953D01*
X103959953Y-83940859D01*
X103829432Y-84127264D01*
X103733261Y-84333502D01*
X103674364Y-84553310D01*
X103654531Y-84779999D01*
X103674364Y-85006689D01*
X103733261Y-85226497D01*
X103829432Y-85432735D01*
X103959953Y-85619140D01*
X104120859Y-85780046D01*
X104307264Y-85910567D01*
X104307265Y-85910567D01*
X104307266Y-85910568D01*
X104513504Y-86006739D01*
X104733308Y-86065635D01*
X104960000Y-86085468D01*
X105186692Y-86065635D01*
X105406496Y-86006739D01*
X105612734Y-85910568D01*
X105799139Y-85780047D01*
X105922319Y-85656866D01*
X105983640Y-85623383D01*
X106053332Y-85628367D01*
X106097680Y-85656867D01*
X106220863Y-85780049D01*
X106407264Y-85910567D01*
X106407265Y-85910567D01*
X106407266Y-85910568D01*
X106613504Y-86006739D01*
X106833308Y-86065635D01*
X106984436Y-86078856D01*
X107059999Y-86085468D01*
X107059999Y-86085467D01*
X107060000Y-86085468D01*
X107286692Y-86065635D01*
X107506496Y-86006739D01*
X107712734Y-85910568D01*
X107899139Y-85780047D01*
X108060047Y-85619139D01*
X108133926Y-85513626D01*
X108188500Y-85470003D01*
X108257999Y-85462809D01*
X108320354Y-85494331D01*
X108355769Y-85554560D01*
X108359500Y-85584748D01*
X108359500Y-85624559D01*
X108359500Y-85624577D01*
X108359501Y-85627872D01*
X108365909Y-85687483D01*
X108416204Y-85822331D01*
X108502454Y-85937546D01*
X108617669Y-86023796D01*
X108752517Y-86074091D01*
X108812127Y-86080500D01*
X110507872Y-86080499D01*
X110567483Y-86074091D01*
X110702331Y-86023796D01*
X110817546Y-85937546D01*
X110858742Y-85882514D01*
X110914676Y-85840642D01*
X110984368Y-85835658D01*
X111029133Y-85855249D01*
X111107516Y-85910133D01*
X111313673Y-86006266D01*
X111533397Y-86065141D01*
X111760000Y-86084966D01*
X111986602Y-86065141D01*
X112206326Y-86006266D01*
X112412480Y-85910134D01*
X112485472Y-85859025D01*
X111804400Y-85177953D01*
X111885148Y-85165165D01*
X111998045Y-85107641D01*
X112087641Y-85018045D01*
X112145165Y-84905148D01*
X112157953Y-84824400D01*
X112839025Y-85505472D01*
X112890134Y-85432480D01*
X112986266Y-85226326D01*
X113045141Y-85006602D01*
X113064966Y-84780000D01*
X113064966Y-84779999D01*
X123594531Y-84779999D01*
X123614364Y-85006689D01*
X123673261Y-85226497D01*
X123769432Y-85432735D01*
X123899953Y-85619140D01*
X124060859Y-85780046D01*
X124247264Y-85910567D01*
X124247265Y-85910567D01*
X124247266Y-85910568D01*
X124453504Y-86006739D01*
X124673308Y-86065635D01*
X124824436Y-86078856D01*
X124899999Y-86085468D01*
X124899999Y-86085467D01*
X124900000Y-86085468D01*
X125126692Y-86065635D01*
X125346496Y-86006739D01*
X125552734Y-85910568D01*
X125739139Y-85780047D01*
X125774631Y-85744555D01*
X125862319Y-85656868D01*
X125923642Y-85623383D01*
X125993334Y-85628367D01*
X126037681Y-85656868D01*
X126160859Y-85780046D01*
X126347264Y-85910567D01*
X126347265Y-85910567D01*
X126347266Y-85910568D01*
X126553504Y-86006739D01*
X126773308Y-86065635D01*
X126924436Y-86078856D01*
X126999999Y-86085468D01*
X126999999Y-86085467D01*
X127000000Y-86085468D01*
X127226692Y-86065635D01*
X127446496Y-86006739D01*
X127652734Y-85910568D01*
X127839139Y-85780047D01*
X128000047Y-85619139D01*
X128073926Y-85513626D01*
X128128500Y-85470003D01*
X128197999Y-85462809D01*
X128260354Y-85494331D01*
X128295769Y-85554560D01*
X128299500Y-85584748D01*
X128299500Y-85624559D01*
X128299500Y-85624577D01*
X128299501Y-85627872D01*
X128305909Y-85687483D01*
X128356204Y-85822331D01*
X128442454Y-85937546D01*
X128557669Y-86023796D01*
X128692517Y-86074091D01*
X128752127Y-86080500D01*
X130447872Y-86080499D01*
X130507483Y-86074091D01*
X130642331Y-86023796D01*
X130757546Y-85937546D01*
X130798742Y-85882514D01*
X130854676Y-85840642D01*
X130924368Y-85835658D01*
X130969133Y-85855249D01*
X131047516Y-85910133D01*
X131253673Y-86006266D01*
X131473397Y-86065141D01*
X131700000Y-86084966D01*
X131926602Y-86065141D01*
X132146326Y-86006266D01*
X132352480Y-85910134D01*
X132425472Y-85859025D01*
X131744401Y-85177953D01*
X131825148Y-85165165D01*
X131938045Y-85107641D01*
X132027641Y-85018045D01*
X132085165Y-84905148D01*
X132097953Y-84824400D01*
X132779025Y-85505472D01*
X132830134Y-85432480D01*
X132926266Y-85226326D01*
X132985141Y-85006602D01*
X133004966Y-84780000D01*
X132985141Y-84553397D01*
X132970833Y-84500000D01*
X147994696Y-84500000D01*
X147994866Y-84503243D01*
X148003265Y-84663510D01*
X148002755Y-84665655D01*
X148003619Y-84673737D01*
X148004151Y-84680421D01*
X148004791Y-84692624D01*
X148004961Y-84699118D01*
X148004961Y-84703878D01*
X148005486Y-84705900D01*
X148010751Y-84806357D01*
X148013898Y-84866404D01*
X148014403Y-84869597D01*
X148014405Y-84869609D01*
X148039983Y-85031099D01*
X148039622Y-85033891D01*
X148041892Y-85044389D01*
X148043167Y-85051201D01*
X148045149Y-85063716D01*
X148045971Y-85069920D01*
X148046173Y-85071809D01*
X148046619Y-85072997D01*
X148071295Y-85228794D01*
X148072133Y-85231923D01*
X148072136Y-85231935D01*
X148115241Y-85392803D01*
X148115159Y-85396218D01*
X148119278Y-85408668D01*
X148121326Y-85415516D01*
X148124843Y-85428641D01*
X148125947Y-85433201D01*
X148126201Y-85433707D01*
X148165415Y-85580055D01*
X148165418Y-85580064D01*
X148166258Y-85583199D01*
X148228197Y-85744556D01*
X148228521Y-85748552D01*
X148234853Y-85762507D01*
X148237695Y-85769301D01*
X148241821Y-85780049D01*
X148243066Y-85783291D01*
X148243295Y-85783933D01*
X148243337Y-85783998D01*
X148296586Y-85922718D01*
X148296589Y-85922726D01*
X148297745Y-85925736D01*
X148299209Y-85928610D01*
X148299213Y-85928618D01*
X148377593Y-86082446D01*
X148378442Y-86086968D01*
X148387266Y-86101943D01*
X148390917Y-86108596D01*
X148464318Y-86252652D01*
X148466089Y-86255379D01*
X148561779Y-86402730D01*
X148563262Y-86407693D01*
X148574756Y-86423165D01*
X148579214Y-86429578D01*
X148640233Y-86523538D01*
X148664149Y-86560366D01*
X148666194Y-86562891D01*
X148778696Y-86701820D01*
X148780910Y-86707131D01*
X148795168Y-86722575D01*
X148800423Y-86728650D01*
X148891906Y-86841623D01*
X148895051Y-86845506D01*
X148897344Y-86847799D01*
X148897345Y-86847800D01*
X149025931Y-86976386D01*
X149028962Y-86981937D01*
X149046019Y-86996862D01*
X149052045Y-87002500D01*
X149154494Y-87104949D01*
X149157012Y-87106988D01*
X149300733Y-87223371D01*
X149304645Y-87229034D01*
X149324418Y-87242923D01*
X149331173Y-87248021D01*
X149439634Y-87335851D01*
X149508334Y-87380465D01*
X149600040Y-87440020D01*
X149604884Y-87445665D01*
X149627258Y-87458058D01*
X149634703Y-87462530D01*
X149747348Y-87535682D01*
X149824303Y-87574893D01*
X149920532Y-87623924D01*
X149926338Y-87629408D01*
X149951087Y-87639853D01*
X149959167Y-87643610D01*
X150074264Y-87702255D01*
X150258627Y-87773025D01*
X150265405Y-87778200D01*
X150292289Y-87786306D01*
X150300909Y-87789255D01*
X150416801Y-87833742D01*
X150610549Y-87885657D01*
X150618289Y-87890374D01*
X150646989Y-87895786D01*
X150656102Y-87897863D01*
X150771206Y-87928705D01*
X150972403Y-87960571D01*
X150981072Y-87964681D01*
X151011239Y-87967096D01*
X151020744Y-87968228D01*
X151133596Y-87986102D01*
X151340136Y-87996926D01*
X151349686Y-88000282D01*
X151380918Y-87999450D01*
X151390697Y-87999575D01*
X151500000Y-88005304D01*
X151709659Y-87994316D01*
X151720005Y-87996774D01*
X151751854Y-87992509D01*
X151761809Y-87991583D01*
X151866404Y-87986102D01*
X152076844Y-87952771D01*
X152087900Y-87954199D01*
X152119940Y-87946372D01*
X152129932Y-87944363D01*
X152228794Y-87928705D01*
X152437630Y-87872747D01*
X152449284Y-87873024D01*
X152481046Y-87861570D01*
X152491011Y-87858443D01*
X152583199Y-87833742D01*
X152787976Y-87755135D01*
X152800089Y-87754153D01*
X152831099Y-87739074D01*
X152840877Y-87734828D01*
X152925736Y-87702255D01*
X153123965Y-87601251D01*
X153136399Y-87598916D01*
X153166215Y-87580260D01*
X153175681Y-87574900D01*
X153252652Y-87535682D01*
X153441878Y-87412797D01*
X153454468Y-87409035D01*
X153482625Y-87386929D01*
X153491642Y-87380480D01*
X153560366Y-87335851D01*
X153738155Y-87191880D01*
X153750731Y-87186635D01*
X153776797Y-87161254D01*
X153785254Y-87153739D01*
X153845506Y-87104949D01*
X154009496Y-86940958D01*
X154021872Y-86934200D01*
X154045441Y-86905773D01*
X154053210Y-86897244D01*
X154104949Y-86845506D01*
X154252885Y-86662819D01*
X154264881Y-86654533D01*
X154285570Y-86623345D01*
X154292536Y-86613855D01*
X154333806Y-86562891D01*
X154335851Y-86560366D01*
X154465593Y-86360578D01*
X154477010Y-86350781D01*
X154494481Y-86317159D01*
X154500506Y-86306817D01*
X154535682Y-86252652D01*
X154645268Y-86037577D01*
X154655918Y-86026300D01*
X154669870Y-85990619D01*
X154674865Y-85979491D01*
X154702255Y-85925736D01*
X154789888Y-85697440D01*
X154799580Y-85684748D01*
X154809767Y-85647392D01*
X154813626Y-85635601D01*
X154833742Y-85583199D01*
X154897840Y-85343981D01*
X154906392Y-85329950D01*
X154912612Y-85291348D01*
X154915258Y-85278978D01*
X154927863Y-85231935D01*
X154928705Y-85228794D01*
X154986102Y-84866404D01*
X155005304Y-84500000D01*
X154986102Y-84133596D01*
X154928705Y-83771206D01*
X154919718Y-83737668D01*
X154915259Y-83721025D01*
X154912612Y-83708653D01*
X154907274Y-83675525D01*
X154897843Y-83656028D01*
X154834584Y-83419943D01*
X154834583Y-83419941D01*
X154833742Y-83416801D01*
X154813631Y-83364409D01*
X154809768Y-83352608D01*
X154801000Y-83320458D01*
X154789889Y-83302560D01*
X154702255Y-83074264D01*
X154700786Y-83071381D01*
X154700783Y-83071374D01*
X154674872Y-83020522D01*
X154669870Y-83009381D01*
X154657825Y-82978575D01*
X154645268Y-82962421D01*
X154537156Y-82750241D01*
X154535682Y-82747348D01*
X154500522Y-82693206D01*
X154494485Y-82682846D01*
X154479354Y-82653728D01*
X154465593Y-82639420D01*
X154335851Y-82439634D01*
X154333807Y-82437110D01*
X154333797Y-82437096D01*
X154292540Y-82386149D01*
X154285573Y-82376659D01*
X154267602Y-82349569D01*
X154252887Y-82337182D01*
X154106988Y-82157012D01*
X154104949Y-82154494D01*
X154053226Y-82102771D01*
X154045448Y-82094232D01*
X154024916Y-82069466D01*
X154009495Y-82059040D01*
X153847800Y-81897345D01*
X153847800Y-81897344D01*
X153845506Y-81895051D01*
X153785269Y-81846272D01*
X153776798Y-81838746D01*
X153754026Y-81816573D01*
X153738154Y-81808119D01*
X153699265Y-81776627D01*
X153560366Y-81664149D01*
X153491661Y-81619532D01*
X153482625Y-81613070D01*
X153457954Y-81593700D01*
X153441877Y-81587201D01*
X153255379Y-81466089D01*
X153255374Y-81466086D01*
X153252652Y-81464318D01*
X153249764Y-81462846D01*
X153249758Y-81462843D01*
X153175698Y-81425108D01*
X153166221Y-81419742D01*
X153140023Y-81403350D01*
X153123966Y-81398749D01*
X153066646Y-81369543D01*
X152925736Y-81297745D01*
X152922726Y-81296589D01*
X152922718Y-81296586D01*
X152840906Y-81265182D01*
X152831119Y-81260933D01*
X152803780Y-81247639D01*
X152787975Y-81244863D01*
X152586241Y-81167425D01*
X152586228Y-81167421D01*
X152583199Y-81166258D01*
X152580064Y-81165418D01*
X152580055Y-81165415D01*
X152491027Y-81141560D01*
X152481056Y-81138432D01*
X152452987Y-81128310D01*
X152437632Y-81127253D01*
X152231935Y-81072136D01*
X152231923Y-81072133D01*
X152228794Y-81071295D01*
X152225589Y-81070787D01*
X152225578Y-81070785D01*
X152129987Y-81055645D01*
X152119959Y-81053630D01*
X152091556Y-81046691D01*
X152076844Y-81047228D01*
X151869609Y-81014405D01*
X151869597Y-81014403D01*
X151866404Y-81013898D01*
X151863171Y-81013728D01*
X151863166Y-81013728D01*
X151761839Y-81008418D01*
X151751871Y-81007491D01*
X151723565Y-81003700D01*
X151709660Y-81005683D01*
X151503245Y-80994866D01*
X151503244Y-80994866D01*
X151500000Y-80994696D01*
X151496756Y-80994866D01*
X151496755Y-80994866D01*
X151390723Y-81000422D01*
X151380934Y-81000548D01*
X151353103Y-80999807D01*
X151340138Y-81003073D01*
X151136834Y-81013728D01*
X151136828Y-81013728D01*
X151133596Y-81013898D01*
X151130404Y-81014403D01*
X151130390Y-81014405D01*
X151020755Y-81031770D01*
X151011251Y-81032902D01*
X150984302Y-81035059D01*
X150972404Y-81039428D01*
X150774423Y-81070785D01*
X150774414Y-81070786D01*
X150771206Y-81071295D01*
X150768081Y-81072132D01*
X150768059Y-81072137D01*
X150656128Y-81102129D01*
X150647013Y-81104206D01*
X150621301Y-81109054D01*
X150610550Y-81114342D01*
X150419944Y-81165415D01*
X150419929Y-81165419D01*
X150416801Y-81166258D01*
X150413776Y-81167418D01*
X150413758Y-81167425D01*
X150300950Y-81210728D01*
X150292312Y-81213684D01*
X150268164Y-81220965D01*
X150258628Y-81226974D01*
X150077281Y-81296586D01*
X150077266Y-81296592D01*
X150074264Y-81297745D01*
X150071389Y-81299209D01*
X150071373Y-81299217D01*
X149959184Y-81356380D01*
X149951107Y-81360137D01*
X149928818Y-81369543D01*
X149920534Y-81376073D01*
X149750248Y-81462839D01*
X149750227Y-81462850D01*
X149747348Y-81464318D01*
X149744629Y-81466083D01*
X149744625Y-81466086D01*
X149634724Y-81537456D01*
X149627276Y-81541930D01*
X149607082Y-81553116D01*
X149600043Y-81559978D01*
X149548116Y-81593700D01*
X149439634Y-81664149D01*
X149437114Y-81666189D01*
X149437108Y-81666194D01*
X149331185Y-81751969D01*
X149324424Y-81757072D01*
X149306542Y-81769632D01*
X149300734Y-81776627D01*
X149157012Y-81893011D01*
X149157001Y-81893020D01*
X149154494Y-81895051D01*
X149152209Y-81897335D01*
X149152209Y-81897336D01*
X149052054Y-81997491D01*
X149046030Y-82003127D01*
X149030569Y-82016655D01*
X149025933Y-82023612D01*
X148895051Y-82154494D01*
X148893020Y-82157001D01*
X148893011Y-82157012D01*
X148800424Y-82271348D01*
X148795171Y-82277421D01*
X148782222Y-82291447D01*
X148778697Y-82298177D01*
X148666201Y-82437098D01*
X148666186Y-82437117D01*
X148664149Y-82439634D01*
X148662380Y-82442356D01*
X148662377Y-82442362D01*
X148579224Y-82570407D01*
X148574766Y-82576821D01*
X148564303Y-82590903D01*
X148561781Y-82597266D01*
X148466086Y-82744625D01*
X148464318Y-82747348D01*
X148462850Y-82750227D01*
X148462843Y-82750241D01*
X148390917Y-82891404D01*
X148387266Y-82898058D01*
X148379228Y-82911699D01*
X148377594Y-82917552D01*
X148299213Y-83071381D01*
X148299206Y-83071396D01*
X148297745Y-83074264D01*
X148296589Y-83077273D01*
X148296586Y-83077282D01*
X148243337Y-83216001D01*
X148243302Y-83216046D01*
X148243064Y-83216713D01*
X148237698Y-83230690D01*
X148234857Y-83237480D01*
X148229078Y-83250216D01*
X148228197Y-83255442D01*
X148167425Y-83413758D01*
X148167423Y-83413765D01*
X148166258Y-83416801D01*
X148165419Y-83419929D01*
X148165415Y-83419944D01*
X148126202Y-83566291D01*
X148125982Y-83566651D01*
X148124842Y-83571365D01*
X148121323Y-83584496D01*
X148119276Y-83591338D01*
X148115520Y-83602693D01*
X148115241Y-83607194D01*
X148072137Y-83768059D01*
X148072132Y-83768081D01*
X148071295Y-83771206D01*
X148070786Y-83774418D01*
X148070785Y-83774424D01*
X148046619Y-83927001D01*
X148046208Y-83927866D01*
X148045972Y-83930079D01*
X148045149Y-83936285D01*
X148043168Y-83948794D01*
X148041893Y-83955607D01*
X148039822Y-83965183D01*
X148039983Y-83968899D01*
X148014405Y-84130390D01*
X148014403Y-84130404D01*
X148013898Y-84133596D01*
X148013728Y-84136828D01*
X148013728Y-84136834D01*
X148005486Y-84294098D01*
X148004961Y-84295591D01*
X148004961Y-84300881D01*
X148004791Y-84307376D01*
X148004151Y-84319577D01*
X148003619Y-84326258D01*
X148002833Y-84333607D01*
X148003265Y-84336487D01*
X147994696Y-84500000D01*
X132970833Y-84500000D01*
X132926266Y-84333673D01*
X132830133Y-84127515D01*
X132779025Y-84054526D01*
X132097953Y-84735596D01*
X132085165Y-84654852D01*
X132027641Y-84541955D01*
X131938045Y-84452359D01*
X131825148Y-84394835D01*
X131744400Y-84382046D01*
X132425472Y-83700974D01*
X132425471Y-83700972D01*
X132352484Y-83649866D01*
X132146326Y-83553733D01*
X131945917Y-83500033D01*
X131886257Y-83463667D01*
X131855728Y-83400820D01*
X131864023Y-83331445D01*
X131908509Y-83277567D01*
X131945915Y-83260484D01*
X132146496Y-83206739D01*
X132352734Y-83110568D01*
X132539139Y-82980047D01*
X132700047Y-82819139D01*
X132830568Y-82632734D01*
X132926739Y-82426496D01*
X132985635Y-82206692D01*
X133005468Y-81980000D01*
X132985635Y-81753308D01*
X132926739Y-81533504D01*
X132830568Y-81327266D01*
X132810926Y-81299213D01*
X132700046Y-81140859D01*
X132539140Y-80979953D01*
X132352735Y-80849432D01*
X132146497Y-80753261D01*
X131926689Y-80694364D01*
X131699999Y-80674531D01*
X131473310Y-80694364D01*
X131253502Y-80753261D01*
X131047264Y-80849432D01*
X130860859Y-80979953D01*
X130699953Y-81140859D01*
X130569432Y-81327264D01*
X130473261Y-81533502D01*
X130414364Y-81753310D01*
X130394531Y-81979999D01*
X130414364Y-82206689D01*
X130473261Y-82426497D01*
X130569432Y-82632735D01*
X130699953Y-82819140D01*
X130860859Y-82980046D01*
X131047264Y-83110567D01*
X131047265Y-83110567D01*
X131047266Y-83110568D01*
X131253504Y-83206739D01*
X131454081Y-83260483D01*
X131513742Y-83296848D01*
X131544271Y-83359695D01*
X131535976Y-83429070D01*
X131491491Y-83482948D01*
X131454082Y-83500033D01*
X131253673Y-83553733D01*
X131047515Y-83649866D01*
X130969133Y-83704750D01*
X130902926Y-83727078D01*
X130835159Y-83710066D01*
X130798743Y-83677486D01*
X130757546Y-83622454D01*
X130642331Y-83536204D01*
X130507483Y-83485909D01*
X130451166Y-83479854D01*
X130451165Y-83479853D01*
X130447873Y-83479500D01*
X130444550Y-83479500D01*
X128755439Y-83479500D01*
X128755420Y-83479500D01*
X128752128Y-83479501D01*
X128748848Y-83479853D01*
X128748840Y-83479854D01*
X128692515Y-83485909D01*
X128557669Y-83536204D01*
X128442454Y-83622454D01*
X128356204Y-83737668D01*
X128342496Y-83774423D01*
X128305909Y-83872517D01*
X128299500Y-83932127D01*
X128299500Y-83935448D01*
X128299500Y-83935449D01*
X128299500Y-83975247D01*
X128279815Y-84042286D01*
X128227011Y-84088041D01*
X128157853Y-84097985D01*
X128094297Y-84068960D01*
X128073925Y-84046370D01*
X128000046Y-83940859D01*
X127839140Y-83779953D01*
X127652735Y-83649432D01*
X127446497Y-83553261D01*
X127226689Y-83494364D01*
X127000000Y-83474531D01*
X126773310Y-83494364D01*
X126553502Y-83553261D01*
X126347264Y-83649432D01*
X126160859Y-83779953D01*
X126037681Y-83903132D01*
X125976358Y-83936617D01*
X125906666Y-83931633D01*
X125862319Y-83903132D01*
X125739140Y-83779953D01*
X125552735Y-83649432D01*
X125346496Y-83553261D01*
X125146883Y-83499775D01*
X125087222Y-83463410D01*
X125056693Y-83400563D01*
X125064988Y-83331187D01*
X125109473Y-83277310D01*
X125146883Y-83260225D01*
X125170500Y-83253896D01*
X125346496Y-83206739D01*
X125552734Y-83110568D01*
X125739139Y-82980047D01*
X125900047Y-82819139D01*
X126030568Y-82632734D01*
X126126739Y-82426496D01*
X126185635Y-82206692D01*
X126205468Y-81980000D01*
X126185635Y-81753308D01*
X126126739Y-81533504D01*
X126030568Y-81327266D01*
X126010926Y-81299213D01*
X125900046Y-81140859D01*
X125739140Y-80979953D01*
X125552735Y-80849432D01*
X125346497Y-80753261D01*
X125126689Y-80694364D01*
X124900000Y-80674531D01*
X124673310Y-80694364D01*
X124453502Y-80753261D01*
X124247264Y-80849432D01*
X124060859Y-80979953D01*
X123899953Y-81140859D01*
X123769432Y-81327264D01*
X123673261Y-81533502D01*
X123614364Y-81753310D01*
X123594531Y-81980000D01*
X123614364Y-82206689D01*
X123673261Y-82426497D01*
X123769432Y-82632735D01*
X123899953Y-82819140D01*
X124060859Y-82980046D01*
X124247264Y-83110567D01*
X124247265Y-83110567D01*
X124247266Y-83110568D01*
X124453504Y-83206739D01*
X124568232Y-83237480D01*
X124653117Y-83260225D01*
X124712777Y-83296590D01*
X124743306Y-83359437D01*
X124735011Y-83428813D01*
X124690526Y-83482691D01*
X124653117Y-83499775D01*
X124453502Y-83553261D01*
X124247264Y-83649432D01*
X124060859Y-83779953D01*
X123899953Y-83940859D01*
X123769432Y-84127264D01*
X123673261Y-84333502D01*
X123614364Y-84553310D01*
X123594531Y-84779999D01*
X113064966Y-84779999D01*
X113045141Y-84553397D01*
X112986266Y-84333673D01*
X112890133Y-84127515D01*
X112839025Y-84054526D01*
X112157953Y-84735598D01*
X112145165Y-84654852D01*
X112087641Y-84541955D01*
X111998045Y-84452359D01*
X111885148Y-84394835D01*
X111804400Y-84382046D01*
X112485472Y-83700974D01*
X112485471Y-83700972D01*
X112412484Y-83649866D01*
X112206326Y-83553733D01*
X112005917Y-83500033D01*
X111946257Y-83463667D01*
X111915728Y-83400820D01*
X111924023Y-83331445D01*
X111968509Y-83277567D01*
X112005915Y-83260484D01*
X112206496Y-83206739D01*
X112412734Y-83110568D01*
X112599139Y-82980047D01*
X112760047Y-82819139D01*
X112890568Y-82632734D01*
X112986739Y-82426496D01*
X113045635Y-82206692D01*
X113065468Y-81980000D01*
X113045635Y-81753308D01*
X112986739Y-81533504D01*
X112890568Y-81327266D01*
X112870926Y-81299213D01*
X112760046Y-81140859D01*
X112599140Y-80979953D01*
X112412735Y-80849432D01*
X112206497Y-80753261D01*
X111986689Y-80694364D01*
X111760000Y-80674531D01*
X111533310Y-80694364D01*
X111313502Y-80753261D01*
X111107264Y-80849432D01*
X110920859Y-80979953D01*
X110759953Y-81140859D01*
X110629432Y-81327264D01*
X110533261Y-81533502D01*
X110474364Y-81753310D01*
X110454531Y-81980000D01*
X110474364Y-82206689D01*
X110533261Y-82426497D01*
X110629432Y-82632735D01*
X110759953Y-82819140D01*
X110920859Y-82980046D01*
X111107264Y-83110567D01*
X111107265Y-83110567D01*
X111107266Y-83110568D01*
X111313504Y-83206739D01*
X111514081Y-83260483D01*
X111573742Y-83296848D01*
X111604271Y-83359695D01*
X111595976Y-83429070D01*
X111551491Y-83482948D01*
X111514082Y-83500033D01*
X111313673Y-83553733D01*
X111107515Y-83649866D01*
X111029133Y-83704750D01*
X110962926Y-83727078D01*
X110895159Y-83710066D01*
X110858743Y-83677486D01*
X110817546Y-83622454D01*
X110702331Y-83536204D01*
X110567483Y-83485909D01*
X110511166Y-83479854D01*
X110511165Y-83479853D01*
X110507873Y-83479500D01*
X110504550Y-83479500D01*
X108815439Y-83479500D01*
X108815420Y-83479500D01*
X108812128Y-83479501D01*
X108808848Y-83479853D01*
X108808840Y-83479854D01*
X108752515Y-83485909D01*
X108617669Y-83536204D01*
X108502454Y-83622454D01*
X108416204Y-83737668D01*
X108402496Y-83774423D01*
X108365909Y-83872517D01*
X108359500Y-83932127D01*
X108359500Y-83935448D01*
X108359500Y-83935449D01*
X108359500Y-83975247D01*
X108339815Y-84042286D01*
X108287011Y-84088041D01*
X108217853Y-84097985D01*
X108154297Y-84068960D01*
X108133925Y-84046370D01*
X108060046Y-83940859D01*
X107899140Y-83779953D01*
X107712735Y-83649432D01*
X107506496Y-83553261D01*
X107370746Y-83516887D01*
X107311085Y-83480522D01*
X107280556Y-83417675D01*
X107288851Y-83348300D01*
X107315155Y-83309434D01*
X112492771Y-78131819D01*
X112554095Y-78098334D01*
X112580453Y-78095500D01*
X124377256Y-78095500D01*
X124397762Y-78097764D01*
X124400665Y-78097672D01*
X124400667Y-78097673D01*
X124467872Y-78095561D01*
X124471768Y-78095500D01*
X124495448Y-78095500D01*
X124499350Y-78095500D01*
X124503313Y-78094999D01*
X124514962Y-78094080D01*
X124558627Y-78092709D01*
X124577859Y-78087120D01*
X124596918Y-78083174D01*
X124603196Y-78082381D01*
X124616792Y-78080664D01*
X124657407Y-78064582D01*
X124668444Y-78060803D01*
X124710390Y-78048618D01*
X124727629Y-78038422D01*
X124745102Y-78029862D01*
X124763732Y-78022486D01*
X124799064Y-77996814D01*
X124808830Y-77990400D01*
X124846418Y-77968171D01*
X124846417Y-77968171D01*
X124846420Y-77968170D01*
X124860585Y-77954004D01*
X124875373Y-77941373D01*
X124891587Y-77929594D01*
X124919438Y-77895926D01*
X124927279Y-77887309D01*
X126585178Y-76229411D01*
X126646499Y-76195928D01*
X126704951Y-76197319D01*
X126773308Y-76215635D01*
X127000000Y-76235468D01*
X127226692Y-76215635D01*
X127446496Y-76156739D01*
X127652734Y-76060568D01*
X127839139Y-75930047D01*
X128000047Y-75769139D01*
X128130568Y-75582734D01*
X128157619Y-75524721D01*
X128203788Y-75472286D01*
X128270981Y-75453133D01*
X128337862Y-75473348D01*
X128382380Y-75524722D01*
X128409432Y-75582733D01*
X128409433Y-75582736D01*
X128539953Y-75769140D01*
X128700859Y-75930046D01*
X128887264Y-76060567D01*
X128887265Y-76060567D01*
X128887266Y-76060568D01*
X129093504Y-76156739D01*
X129313308Y-76215635D01*
X129464435Y-76228856D01*
X129539999Y-76235468D01*
X129539999Y-76235467D01*
X129540000Y-76235468D01*
X129766692Y-76215635D01*
X129986496Y-76156739D01*
X130192734Y-76060568D01*
X130379139Y-75930047D01*
X130540047Y-75769139D01*
X130670568Y-75582734D01*
X130697893Y-75524134D01*
X130744065Y-75471695D01*
X130811258Y-75452543D01*
X130878139Y-75472758D01*
X130922657Y-75524133D01*
X130949866Y-75582482D01*
X131080341Y-75768819D01*
X131241180Y-75929658D01*
X131427519Y-76060134D01*
X131633673Y-76156266D01*
X131829999Y-76208871D01*
X131830000Y-76208871D01*
X131830000Y-75365501D01*
X131937685Y-75414680D01*
X132044237Y-75430000D01*
X132115763Y-75430000D01*
X132222315Y-75414680D01*
X132330000Y-75365501D01*
X132330000Y-76208871D01*
X132526326Y-76156266D01*
X132732480Y-76060134D01*
X132918819Y-75929658D01*
X133079658Y-75768819D01*
X133210135Y-75582479D01*
X133237342Y-75524135D01*
X133283514Y-75471695D01*
X133350707Y-75452543D01*
X133417589Y-75472758D01*
X133462105Y-75524132D01*
X133489432Y-75582733D01*
X133489433Y-75582736D01*
X133619953Y-75769140D01*
X133780859Y-75930046D01*
X133967264Y-76060567D01*
X133967265Y-76060567D01*
X133967266Y-76060568D01*
X134173504Y-76156739D01*
X134393308Y-76215635D01*
X134620000Y-76235468D01*
X134846692Y-76215635D01*
X135066496Y-76156739D01*
X135272734Y-76060568D01*
X135459139Y-75930047D01*
X135620047Y-75769139D01*
X135750568Y-75582734D01*
X135846739Y-75376496D01*
X135905635Y-75156692D01*
X135925468Y-74930000D01*
X135905635Y-74703308D01*
X135846739Y-74483504D01*
X135750568Y-74277266D01*
X135620271Y-74091180D01*
X135620046Y-74090859D01*
X135459140Y-73929953D01*
X135272735Y-73799432D01*
X135066497Y-73703261D01*
X134846689Y-73644364D01*
X134620000Y-73624531D01*
X134393310Y-73644364D01*
X134173502Y-73703261D01*
X133967264Y-73799432D01*
X133780859Y-73929953D01*
X133619953Y-74090859D01*
X133489430Y-74277267D01*
X133462105Y-74335866D01*
X133415932Y-74388305D01*
X133348739Y-74407456D01*
X133281858Y-74387239D01*
X133237342Y-74335865D01*
X133210134Y-74277519D01*
X133079658Y-74091180D01*
X132918819Y-73930341D01*
X132732480Y-73799865D01*
X132526326Y-73703733D01*
X132330000Y-73651126D01*
X132330000Y-74494498D01*
X132222315Y-74445320D01*
X132115763Y-74430000D01*
X132044237Y-74430000D01*
X131937685Y-74445320D01*
X131830000Y-74494498D01*
X131830000Y-73651127D01*
X131829999Y-73651126D01*
X131633673Y-73703733D01*
X131427519Y-73799865D01*
X131241180Y-73930341D01*
X131080341Y-74091180D01*
X130949863Y-74277522D01*
X130922656Y-74335866D01*
X130876483Y-74388305D01*
X130809290Y-74407456D01*
X130742409Y-74387239D01*
X130697893Y-74335865D01*
X130670567Y-74277264D01*
X130540046Y-74090859D01*
X130379140Y-73929953D01*
X130192735Y-73799432D01*
X129986497Y-73703261D01*
X129766689Y-73644364D01*
X129539999Y-73624531D01*
X129313310Y-73644364D01*
X129093502Y-73703261D01*
X128887264Y-73799432D01*
X128700859Y-73929953D01*
X128539953Y-74090859D01*
X128409433Y-74277263D01*
X128382382Y-74335275D01*
X128336209Y-74387714D01*
X128269015Y-74406865D01*
X128202134Y-74386649D01*
X128157618Y-74335275D01*
X128130687Y-74277522D01*
X128130568Y-74277266D01*
X128130566Y-74277263D01*
X128000046Y-74090859D01*
X127839140Y-73929953D01*
X127678377Y-73817387D01*
X127634752Y-73762811D01*
X127625500Y-73715812D01*
X127625500Y-72700452D01*
X127645185Y-72633413D01*
X127661819Y-72612771D01*
X128546409Y-71728181D01*
X137803789Y-62470800D01*
X137819885Y-62457906D01*
X137821873Y-62455787D01*
X137821877Y-62455786D01*
X137867949Y-62406723D01*
X137870534Y-62404055D01*
X137890120Y-62384471D01*
X137892585Y-62381292D01*
X137900167Y-62372416D01*
X137930062Y-62340582D01*
X137939717Y-62323018D01*
X137950394Y-62306764D01*
X137962673Y-62290936D01*
X137980018Y-62250852D01*
X137985160Y-62240356D01*
X138006197Y-62202092D01*
X138011179Y-62182684D01*
X138017481Y-62164280D01*
X138025437Y-62145896D01*
X138032269Y-62102752D01*
X138034633Y-62091338D01*
X138045500Y-62049019D01*
X138045500Y-62028983D01*
X138047027Y-62009584D01*
X138050160Y-61989804D01*
X138046050Y-61946324D01*
X138045500Y-61934655D01*
X138045500Y-53753149D01*
X138065185Y-53686110D01*
X138098374Y-53651576D01*
X138226877Y-53561598D01*
X138381598Y-53406877D01*
X138507102Y-53227639D01*
X138599575Y-53029330D01*
X138607434Y-53000000D01*
X147994696Y-53000000D01*
X147994866Y-53003243D01*
X148003265Y-53163510D01*
X148002755Y-53165655D01*
X148003619Y-53173737D01*
X148004151Y-53180421D01*
X148004791Y-53192624D01*
X148004961Y-53199118D01*
X148004961Y-53203878D01*
X148005486Y-53205900D01*
X148010444Y-53300500D01*
X148013898Y-53366404D01*
X148014403Y-53369597D01*
X148014405Y-53369609D01*
X148039983Y-53531099D01*
X148039622Y-53533891D01*
X148041892Y-53544389D01*
X148043167Y-53551201D01*
X148045149Y-53563716D01*
X148045971Y-53569920D01*
X148046173Y-53571809D01*
X148046619Y-53572997D01*
X148067708Y-53706151D01*
X148071295Y-53728794D01*
X148072133Y-53731923D01*
X148072136Y-53731935D01*
X148115241Y-53892803D01*
X148115159Y-53896218D01*
X148119278Y-53908668D01*
X148121326Y-53915516D01*
X148124843Y-53928641D01*
X148125947Y-53933201D01*
X148126201Y-53933707D01*
X148165415Y-54080055D01*
X148165418Y-54080064D01*
X148166258Y-54083199D01*
X148228197Y-54244556D01*
X148228521Y-54248552D01*
X148234853Y-54262507D01*
X148237698Y-54269307D01*
X148243066Y-54283291D01*
X148243295Y-54283933D01*
X148243337Y-54283998D01*
X148296586Y-54422718D01*
X148296589Y-54422726D01*
X148297745Y-54425736D01*
X148299209Y-54428610D01*
X148299213Y-54428618D01*
X148377593Y-54582446D01*
X148378442Y-54586968D01*
X148387266Y-54601943D01*
X148390917Y-54608596D01*
X148464318Y-54752652D01*
X148466089Y-54755379D01*
X148561779Y-54902730D01*
X148563262Y-54907693D01*
X148574756Y-54923165D01*
X148579214Y-54929578D01*
X148640233Y-55023538D01*
X148664149Y-55060366D01*
X148666194Y-55062891D01*
X148778696Y-55201820D01*
X148780910Y-55207131D01*
X148795168Y-55222575D01*
X148800423Y-55228650D01*
X148891906Y-55341623D01*
X148895051Y-55345506D01*
X148897344Y-55347799D01*
X148897345Y-55347800D01*
X149025931Y-55476386D01*
X149028962Y-55481937D01*
X149046019Y-55496862D01*
X149052044Y-55502500D01*
X149154494Y-55604949D01*
X149157012Y-55606988D01*
X149300733Y-55723371D01*
X149304645Y-55729034D01*
X149324418Y-55742923D01*
X149331173Y-55748021D01*
X149439634Y-55835851D01*
X149508334Y-55880465D01*
X149600040Y-55940020D01*
X149604884Y-55945665D01*
X149627258Y-55958058D01*
X149634703Y-55962530D01*
X149747348Y-56035682D01*
X149824303Y-56074893D01*
X149920532Y-56123924D01*
X149926338Y-56129408D01*
X149951087Y-56139853D01*
X149959167Y-56143610D01*
X150074264Y-56202255D01*
X150258627Y-56273025D01*
X150265405Y-56278200D01*
X150292289Y-56286306D01*
X150300909Y-56289255D01*
X150416801Y-56333742D01*
X150610549Y-56385657D01*
X150618289Y-56390374D01*
X150646989Y-56395786D01*
X150656102Y-56397863D01*
X150771206Y-56428705D01*
X150972403Y-56460571D01*
X150981072Y-56464681D01*
X151011239Y-56467096D01*
X151020744Y-56468228D01*
X151133596Y-56486102D01*
X151340136Y-56496926D01*
X151349686Y-56500282D01*
X151380918Y-56499450D01*
X151390697Y-56499575D01*
X151500000Y-56505304D01*
X151709659Y-56494316D01*
X151720005Y-56496774D01*
X151751854Y-56492509D01*
X151761809Y-56491583D01*
X151866404Y-56486102D01*
X152076844Y-56452771D01*
X152087900Y-56454199D01*
X152119940Y-56446372D01*
X152129932Y-56444363D01*
X152228794Y-56428705D01*
X152437630Y-56372747D01*
X152449284Y-56373024D01*
X152481046Y-56361570D01*
X152491011Y-56358443D01*
X152583199Y-56333742D01*
X152787976Y-56255135D01*
X152800089Y-56254153D01*
X152831099Y-56239074D01*
X152840877Y-56234828D01*
X152925736Y-56202255D01*
X153123965Y-56101251D01*
X153136399Y-56098916D01*
X153166215Y-56080260D01*
X153175681Y-56074900D01*
X153252652Y-56035682D01*
X153441878Y-55912797D01*
X153454468Y-55909035D01*
X153482625Y-55886929D01*
X153491642Y-55880480D01*
X153560366Y-55835851D01*
X153738155Y-55691880D01*
X153750731Y-55686635D01*
X153776797Y-55661254D01*
X153785254Y-55653739D01*
X153845506Y-55604949D01*
X154009496Y-55440958D01*
X154021872Y-55434200D01*
X154045441Y-55405773D01*
X154053210Y-55397244D01*
X154104949Y-55345506D01*
X154252885Y-55162819D01*
X154264881Y-55154533D01*
X154285570Y-55123345D01*
X154292536Y-55113855D01*
X154333806Y-55062891D01*
X154335851Y-55060366D01*
X154465593Y-54860578D01*
X154477010Y-54850781D01*
X154494481Y-54817159D01*
X154500506Y-54806817D01*
X154535682Y-54752652D01*
X154645268Y-54537577D01*
X154655918Y-54526300D01*
X154669870Y-54490619D01*
X154674865Y-54479491D01*
X154702255Y-54425736D01*
X154789888Y-54197440D01*
X154799580Y-54184748D01*
X154809767Y-54147392D01*
X154813626Y-54135601D01*
X154833742Y-54083199D01*
X154897840Y-53843981D01*
X154906392Y-53829950D01*
X154912612Y-53791348D01*
X154915258Y-53778978D01*
X154927863Y-53731935D01*
X154928705Y-53728794D01*
X154986102Y-53366404D01*
X155005304Y-53000000D01*
X154986102Y-52633596D01*
X154928705Y-52271206D01*
X154915259Y-52221025D01*
X154912612Y-52208653D01*
X154907274Y-52175525D01*
X154897843Y-52156028D01*
X154834584Y-51919943D01*
X154834583Y-51919941D01*
X154833742Y-51916801D01*
X154813631Y-51864409D01*
X154809768Y-51852608D01*
X154801000Y-51820458D01*
X154789889Y-51802560D01*
X154787881Y-51797328D01*
X154702255Y-51574264D01*
X154700786Y-51571381D01*
X154700783Y-51571374D01*
X154674872Y-51520522D01*
X154669870Y-51509381D01*
X154657825Y-51478575D01*
X154645268Y-51462421D01*
X154537156Y-51250241D01*
X154535682Y-51247348D01*
X154500522Y-51193206D01*
X154494485Y-51182846D01*
X154479354Y-51153728D01*
X154465593Y-51139420D01*
X154335851Y-50939634D01*
X154333807Y-50937110D01*
X154333797Y-50937096D01*
X154292540Y-50886149D01*
X154285573Y-50876659D01*
X154267602Y-50849569D01*
X154252887Y-50837182D01*
X154106988Y-50657012D01*
X154104949Y-50654494D01*
X154053226Y-50602770D01*
X154045448Y-50594232D01*
X154024916Y-50569466D01*
X154009495Y-50559040D01*
X153847800Y-50397345D01*
X153847799Y-50397344D01*
X153845506Y-50395051D01*
X153785269Y-50346272D01*
X153776798Y-50338746D01*
X153754026Y-50316573D01*
X153738154Y-50308119D01*
X153699265Y-50276627D01*
X153560366Y-50164149D01*
X153491661Y-50119532D01*
X153482625Y-50113070D01*
X153457954Y-50093700D01*
X153441877Y-50087201D01*
X153255379Y-49966089D01*
X153255374Y-49966086D01*
X153252652Y-49964318D01*
X153249764Y-49962846D01*
X153249758Y-49962843D01*
X153175698Y-49925108D01*
X153166221Y-49919742D01*
X153140023Y-49903350D01*
X153123966Y-49898749D01*
X153114135Y-49893740D01*
X152925736Y-49797745D01*
X152922726Y-49796589D01*
X152922718Y-49796586D01*
X152840906Y-49765182D01*
X152831119Y-49760933D01*
X152803780Y-49747639D01*
X152787975Y-49744863D01*
X152586241Y-49667425D01*
X152586228Y-49667421D01*
X152583199Y-49666258D01*
X152580064Y-49665418D01*
X152580055Y-49665415D01*
X152491027Y-49641560D01*
X152481056Y-49638432D01*
X152452987Y-49628310D01*
X152437632Y-49627253D01*
X152231935Y-49572136D01*
X152231923Y-49572133D01*
X152228794Y-49571295D01*
X152225589Y-49570787D01*
X152225578Y-49570785D01*
X152129987Y-49555645D01*
X152119959Y-49553630D01*
X152091556Y-49546691D01*
X152076844Y-49547228D01*
X151869609Y-49514405D01*
X151869597Y-49514403D01*
X151866404Y-49513898D01*
X151863171Y-49513728D01*
X151863166Y-49513728D01*
X151761839Y-49508418D01*
X151751871Y-49507491D01*
X151723565Y-49503700D01*
X151709660Y-49505683D01*
X151503245Y-49494866D01*
X151503244Y-49494866D01*
X151500000Y-49494696D01*
X151496756Y-49494866D01*
X151496755Y-49494866D01*
X151390723Y-49500422D01*
X151380934Y-49500548D01*
X151353103Y-49499807D01*
X151340138Y-49503073D01*
X151136834Y-49513728D01*
X151136828Y-49513728D01*
X151133596Y-49513898D01*
X151130404Y-49514403D01*
X151130390Y-49514405D01*
X151020755Y-49531770D01*
X151011251Y-49532902D01*
X150984302Y-49535059D01*
X150972404Y-49539428D01*
X150774423Y-49570785D01*
X150774414Y-49570786D01*
X150771206Y-49571295D01*
X150768081Y-49572132D01*
X150768059Y-49572137D01*
X150656128Y-49602129D01*
X150647013Y-49604206D01*
X150621301Y-49609054D01*
X150610550Y-49614342D01*
X150419944Y-49665415D01*
X150419929Y-49665419D01*
X150416801Y-49666258D01*
X150413776Y-49667418D01*
X150413758Y-49667425D01*
X150300950Y-49710728D01*
X150292312Y-49713684D01*
X150268164Y-49720965D01*
X150258628Y-49726974D01*
X150077281Y-49796586D01*
X150077266Y-49796592D01*
X150074264Y-49797745D01*
X150071389Y-49799209D01*
X150071373Y-49799217D01*
X149959184Y-49856380D01*
X149951107Y-49860137D01*
X149928818Y-49869543D01*
X149920534Y-49876073D01*
X149750248Y-49962839D01*
X149750227Y-49962850D01*
X149747348Y-49964318D01*
X149744629Y-49966083D01*
X149744625Y-49966086D01*
X149634724Y-50037456D01*
X149627276Y-50041930D01*
X149607082Y-50053116D01*
X149600043Y-50059978D01*
X149518289Y-50113070D01*
X149439634Y-50164149D01*
X149437114Y-50166189D01*
X149437108Y-50166194D01*
X149331185Y-50251969D01*
X149324424Y-50257072D01*
X149306542Y-50269632D01*
X149300734Y-50276627D01*
X149157012Y-50393011D01*
X149157001Y-50393020D01*
X149154494Y-50395051D01*
X149152209Y-50397335D01*
X149152209Y-50397336D01*
X149052054Y-50497491D01*
X149046030Y-50503127D01*
X149030569Y-50516655D01*
X149025933Y-50523611D01*
X148895051Y-50654494D01*
X148893020Y-50657001D01*
X148893011Y-50657012D01*
X148800424Y-50771348D01*
X148795171Y-50777421D01*
X148782222Y-50791447D01*
X148778697Y-50798177D01*
X148666201Y-50937098D01*
X148666186Y-50937117D01*
X148664149Y-50939634D01*
X148662380Y-50942356D01*
X148662377Y-50942362D01*
X148579224Y-51070407D01*
X148574766Y-51076821D01*
X148564303Y-51090903D01*
X148561781Y-51097266D01*
X148466086Y-51244625D01*
X148464318Y-51247348D01*
X148462850Y-51250227D01*
X148462843Y-51250241D01*
X148390917Y-51391404D01*
X148387266Y-51398058D01*
X148379228Y-51411699D01*
X148377594Y-51417552D01*
X148299213Y-51571381D01*
X148299206Y-51571396D01*
X148297745Y-51574264D01*
X148296589Y-51577273D01*
X148296586Y-51577282D01*
X148243337Y-51716001D01*
X148243302Y-51716046D01*
X148243064Y-51716713D01*
X148237698Y-51730690D01*
X148234857Y-51737480D01*
X148229078Y-51750216D01*
X148228197Y-51755442D01*
X148167425Y-51913758D01*
X148167423Y-51913765D01*
X148166258Y-51916801D01*
X148165419Y-51919929D01*
X148165415Y-51919944D01*
X148126202Y-52066291D01*
X148125982Y-52066651D01*
X148124842Y-52071365D01*
X148121323Y-52084496D01*
X148119276Y-52091338D01*
X148115520Y-52102693D01*
X148115241Y-52107194D01*
X148072137Y-52268059D01*
X148072132Y-52268081D01*
X148071295Y-52271206D01*
X148070786Y-52274418D01*
X148070785Y-52274424D01*
X148046619Y-52427001D01*
X148046208Y-52427866D01*
X148045972Y-52430079D01*
X148045149Y-52436285D01*
X148043168Y-52448794D01*
X148041893Y-52455607D01*
X148039822Y-52465183D01*
X148039983Y-52468899D01*
X148014405Y-52630390D01*
X148014403Y-52630404D01*
X148013898Y-52633596D01*
X148013728Y-52636828D01*
X148013728Y-52636834D01*
X148005486Y-52794098D01*
X148004961Y-52795591D01*
X148004961Y-52800881D01*
X148004791Y-52807376D01*
X148004151Y-52819577D01*
X148003619Y-52826258D01*
X148002833Y-52833607D01*
X148003265Y-52836487D01*
X147994866Y-52996755D01*
X147994696Y-53000000D01*
X138607434Y-53000000D01*
X138656207Y-52817977D01*
X138675277Y-52600000D01*
X138656207Y-52382023D01*
X138599575Y-52170670D01*
X138507102Y-51972362D01*
X138381598Y-51793123D01*
X138226877Y-51638402D01*
X138047639Y-51512898D01*
X137879375Y-51434435D01*
X137849331Y-51420425D01*
X137637974Y-51363792D01*
X137420000Y-51344722D01*
X137202023Y-51363792D01*
X137068686Y-51399520D01*
X136998837Y-51397857D01*
X136940974Y-51358695D01*
X136913470Y-51294466D01*
X136925056Y-51225564D01*
X136972055Y-51173864D01*
X136984189Y-51167363D01*
X136994504Y-51162553D01*
X137027639Y-51147102D01*
X137206877Y-51021598D01*
X137361598Y-50866877D01*
X137487102Y-50687639D01*
X137579575Y-50489330D01*
X137636207Y-50277977D01*
X137655277Y-50060000D01*
X137636207Y-49842023D01*
X137579575Y-49630670D01*
X137487102Y-49432362D01*
X137361598Y-49253123D01*
X137206877Y-49098402D01*
X137027639Y-48972898D01*
X136936205Y-48930261D01*
X136829331Y-48880425D01*
X136617974Y-48823792D01*
X136400000Y-48804722D01*
X136182025Y-48823792D01*
X135970668Y-48880425D01*
X135772360Y-48972898D01*
X135680406Y-49037285D01*
X135614199Y-49059613D01*
X135546432Y-49042601D01*
X135510016Y-49010021D01*
X135467188Y-48952810D01*
X135352089Y-48866647D01*
X135217371Y-48816400D01*
X135161132Y-48810354D01*
X135154518Y-48810000D01*
X134610000Y-48810000D01*
X134610000Y-49685810D01*
X134557453Y-49649984D01*
X134427827Y-49610000D01*
X134326276Y-49610000D01*
X134225862Y-49625135D01*
X134109999Y-49680931D01*
X134110000Y-48810000D01*
X133565482Y-48810000D01*
X133558867Y-48810354D01*
X133502628Y-48816400D01*
X133367910Y-48866647D01*
X133252811Y-48952811D01*
X133166647Y-49067910D01*
X133116400Y-49202628D01*
X133110354Y-49258867D01*
X133110000Y-49265481D01*
X133110000Y-49810000D01*
X133984722Y-49810000D01*
X133936375Y-49893740D01*
X133906190Y-50025992D01*
X133916327Y-50161265D01*
X133965887Y-50287541D01*
X133983797Y-50310000D01*
X133110000Y-50310000D01*
X133110000Y-50854518D01*
X133110354Y-50861132D01*
X133116400Y-50917371D01*
X133166647Y-51052089D01*
X133252811Y-51167188D01*
X133367910Y-51253352D01*
X133502628Y-51303599D01*
X133558867Y-51309645D01*
X133565482Y-51310000D01*
X134110000Y-51310000D01*
X134110000Y-50434189D01*
X134162547Y-50470016D01*
X134292173Y-50510000D01*
X134393724Y-50510000D01*
X134494138Y-50494865D01*
X134610000Y-50439068D01*
X134610000Y-51310000D01*
X134648853Y-51310000D01*
X134715892Y-51329685D01*
X134761647Y-51382489D01*
X134771591Y-51451647D01*
X134742566Y-51515203D01*
X134719976Y-51535574D01*
X134691447Y-51555550D01*
X134573122Y-51638402D01*
X134418402Y-51793122D01*
X134292898Y-51972361D01*
X134200425Y-52170668D01*
X134143792Y-52382025D01*
X134124722Y-52600000D01*
X134143792Y-52817974D01*
X134191696Y-52996755D01*
X134200425Y-53029330D01*
X134292898Y-53227639D01*
X134418402Y-53406877D01*
X134573123Y-53561598D01*
X134752361Y-53687102D01*
X134950670Y-53779575D01*
X135162023Y-53836207D01*
X135380000Y-53855277D01*
X135597977Y-53836207D01*
X135809330Y-53779575D01*
X136007639Y-53687102D01*
X136186877Y-53561598D01*
X136312319Y-53436156D01*
X136373642Y-53402671D01*
X136443334Y-53407655D01*
X136487680Y-53436156D01*
X136613123Y-53561598D01*
X136741624Y-53651575D01*
X136785248Y-53706151D01*
X136794500Y-53753149D01*
X136794500Y-61659546D01*
X136774815Y-61726585D01*
X136758181Y-61747227D01*
X126777228Y-71728181D01*
X126715905Y-71761666D01*
X126689547Y-71764500D01*
X120639462Y-71764500D01*
X120572423Y-71744815D01*
X120551781Y-71728181D01*
X109842077Y-61018477D01*
X109808592Y-60957154D01*
X109813576Y-60887462D01*
X109855448Y-60831529D01*
X109866705Y-60824789D01*
X109872731Y-60820569D01*
X109872734Y-60820568D01*
X110059139Y-60690047D01*
X110220047Y-60529139D01*
X110350568Y-60342734D01*
X110377618Y-60284724D01*
X110423790Y-60232285D01*
X110490983Y-60213133D01*
X110557865Y-60233348D01*
X110602382Y-60284725D01*
X110629431Y-60342733D01*
X110759953Y-60529140D01*
X110920859Y-60690046D01*
X111107264Y-60820567D01*
X111107265Y-60820567D01*
X111107266Y-60820568D01*
X111313504Y-60916739D01*
X111533308Y-60975635D01*
X111760000Y-60995468D01*
X111986692Y-60975635D01*
X112206496Y-60916739D01*
X112412734Y-60820568D01*
X112599139Y-60690047D01*
X112760047Y-60529139D01*
X112890568Y-60342734D01*
X112917618Y-60284724D01*
X112963790Y-60232285D01*
X113030983Y-60213133D01*
X113097865Y-60233348D01*
X113142382Y-60284725D01*
X113169431Y-60342733D01*
X113299953Y-60529140D01*
X113460859Y-60690046D01*
X113647264Y-60820567D01*
X113647265Y-60820567D01*
X113647266Y-60820568D01*
X113853504Y-60916739D01*
X114073308Y-60975635D01*
X114300000Y-60995468D01*
X114526692Y-60975635D01*
X114746496Y-60916739D01*
X114952734Y-60820568D01*
X115139139Y-60690047D01*
X115300047Y-60529139D01*
X115430568Y-60342734D01*
X115457619Y-60284721D01*
X115503788Y-60232286D01*
X115570981Y-60213133D01*
X115637862Y-60233348D01*
X115682380Y-60284722D01*
X115709432Y-60342733D01*
X115709433Y-60342736D01*
X115839953Y-60529140D01*
X116000859Y-60690046D01*
X116187264Y-60820567D01*
X116187265Y-60820567D01*
X116187266Y-60820568D01*
X116393504Y-60916739D01*
X116613308Y-60975635D01*
X116840000Y-60995468D01*
X117066692Y-60975635D01*
X117286496Y-60916739D01*
X117492734Y-60820568D01*
X117679139Y-60690047D01*
X117840047Y-60529139D01*
X117970568Y-60342734D01*
X117997618Y-60284724D01*
X118043790Y-60232285D01*
X118110983Y-60213133D01*
X118177865Y-60233348D01*
X118222382Y-60284725D01*
X118249431Y-60342733D01*
X118379953Y-60529140D01*
X118540859Y-60690046D01*
X118727264Y-60820567D01*
X118727265Y-60820567D01*
X118727266Y-60820568D01*
X118933504Y-60916739D01*
X119153308Y-60975635D01*
X119304436Y-60988856D01*
X119379999Y-60995468D01*
X119379999Y-60995467D01*
X119380000Y-60995468D01*
X119606692Y-60975635D01*
X119826496Y-60916739D01*
X120032734Y-60820568D01*
X120219139Y-60690047D01*
X120380047Y-60529139D01*
X120510568Y-60342734D01*
X120537618Y-60284724D01*
X120583790Y-60232285D01*
X120650983Y-60213133D01*
X120717865Y-60233348D01*
X120762382Y-60284725D01*
X120789431Y-60342733D01*
X120919953Y-60529140D01*
X121080859Y-60690046D01*
X121267264Y-60820567D01*
X121267265Y-60820567D01*
X121267266Y-60820568D01*
X121473504Y-60916739D01*
X121693308Y-60975635D01*
X121920000Y-60995468D01*
X122146692Y-60975635D01*
X122366496Y-60916739D01*
X122572734Y-60820568D01*
X122759139Y-60690047D01*
X122920047Y-60529139D01*
X123050568Y-60342734D01*
X123077618Y-60284724D01*
X123123790Y-60232285D01*
X123190983Y-60213133D01*
X123257865Y-60233348D01*
X123302382Y-60284725D01*
X123329431Y-60342733D01*
X123459953Y-60529140D01*
X123620859Y-60690046D01*
X123807264Y-60820567D01*
X123807265Y-60820567D01*
X123807266Y-60820568D01*
X124013504Y-60916739D01*
X124233308Y-60975635D01*
X124460000Y-60995468D01*
X124686692Y-60975635D01*
X124906496Y-60916739D01*
X125112734Y-60820568D01*
X125299139Y-60690047D01*
X125460047Y-60529139D01*
X125590568Y-60342734D01*
X125617893Y-60284134D01*
X125664065Y-60231695D01*
X125731258Y-60212543D01*
X125798139Y-60232758D01*
X125842657Y-60284133D01*
X125869866Y-60342482D01*
X126000341Y-60528819D01*
X126161180Y-60689658D01*
X126347519Y-60820134D01*
X126553673Y-60916266D01*
X126749999Y-60968871D01*
X126750000Y-60968871D01*
X126750000Y-60125501D01*
X126857685Y-60174680D01*
X126964237Y-60190000D01*
X127035763Y-60190000D01*
X127142315Y-60174680D01*
X127250000Y-60125501D01*
X127250000Y-60968871D01*
X127446326Y-60916266D01*
X127652480Y-60820134D01*
X127838819Y-60689658D01*
X127999658Y-60528819D01*
X128130135Y-60342479D01*
X128157342Y-60284135D01*
X128203514Y-60231695D01*
X128270707Y-60212543D01*
X128337589Y-60232758D01*
X128382105Y-60284132D01*
X128409432Y-60342733D01*
X128409433Y-60342736D01*
X128539953Y-60529140D01*
X128700859Y-60690046D01*
X128887264Y-60820567D01*
X128887265Y-60820567D01*
X128887266Y-60820568D01*
X129093504Y-60916739D01*
X129313308Y-60975635D01*
X129464435Y-60988856D01*
X129539999Y-60995468D01*
X129539999Y-60995467D01*
X129540000Y-60995468D01*
X129766692Y-60975635D01*
X129986496Y-60916739D01*
X130192734Y-60820568D01*
X130379139Y-60690047D01*
X130540047Y-60529139D01*
X130670568Y-60342734D01*
X130697618Y-60284724D01*
X130743790Y-60232285D01*
X130810983Y-60213133D01*
X130877865Y-60233348D01*
X130922382Y-60284725D01*
X130949431Y-60342733D01*
X131079953Y-60529140D01*
X131240859Y-60690046D01*
X131427264Y-60820567D01*
X131427265Y-60820567D01*
X131427266Y-60820568D01*
X131633504Y-60916739D01*
X131853308Y-60975635D01*
X132080000Y-60995468D01*
X132306692Y-60975635D01*
X132526496Y-60916739D01*
X132732734Y-60820568D01*
X132919139Y-60690047D01*
X133080047Y-60529139D01*
X133097273Y-60504537D01*
X133151847Y-60460913D01*
X133221345Y-60453718D01*
X133283701Y-60485239D01*
X133319116Y-60545468D01*
X133322138Y-60562405D01*
X133325909Y-60597483D01*
X133376204Y-60732331D01*
X133462454Y-60847546D01*
X133577669Y-60933796D01*
X133712517Y-60984091D01*
X133772127Y-60990500D01*
X135467872Y-60990499D01*
X135527483Y-60984091D01*
X135662331Y-60933796D01*
X135777546Y-60847546D01*
X135863796Y-60732331D01*
X135914091Y-60597483D01*
X135920500Y-60537873D01*
X135920499Y-58842128D01*
X135914091Y-58782517D01*
X135863796Y-58647669D01*
X135777546Y-58532454D01*
X135662331Y-58446204D01*
X135527483Y-58395909D01*
X135467873Y-58389500D01*
X135464550Y-58389500D01*
X133775439Y-58389500D01*
X133775420Y-58389500D01*
X133772128Y-58389501D01*
X133768848Y-58389853D01*
X133768840Y-58389854D01*
X133712515Y-58395909D01*
X133577669Y-58446204D01*
X133462454Y-58532454D01*
X133376204Y-58647668D01*
X133325909Y-58782516D01*
X133322138Y-58817594D01*
X133295400Y-58882145D01*
X133238007Y-58921993D01*
X133168182Y-58924487D01*
X133108093Y-58888835D01*
X133097272Y-58875461D01*
X133080045Y-58850858D01*
X132919140Y-58689953D01*
X132732735Y-58559432D01*
X132526497Y-58463261D01*
X132306689Y-58404364D01*
X132080000Y-58384531D01*
X131853310Y-58404364D01*
X131633502Y-58463261D01*
X131427264Y-58559432D01*
X131240859Y-58689953D01*
X131079953Y-58850859D01*
X130949433Y-59037263D01*
X130922382Y-59095275D01*
X130876209Y-59147714D01*
X130809015Y-59166865D01*
X130742134Y-59146649D01*
X130697618Y-59095275D01*
X130670687Y-59037522D01*
X130670568Y-59037266D01*
X130658993Y-59020735D01*
X130540046Y-58850859D01*
X130379140Y-58689953D01*
X130192735Y-58559432D01*
X129986497Y-58463261D01*
X129766689Y-58404364D01*
X129540000Y-58384531D01*
X129313310Y-58404364D01*
X129093502Y-58463261D01*
X128887264Y-58559432D01*
X128700859Y-58689953D01*
X128539953Y-58850859D01*
X128409430Y-59037267D01*
X128382105Y-59095866D01*
X128335932Y-59148305D01*
X128268739Y-59167456D01*
X128201858Y-59147239D01*
X128157342Y-59095865D01*
X128130134Y-59037519D01*
X127999658Y-58851180D01*
X127838819Y-58690341D01*
X127652480Y-58559865D01*
X127446326Y-58463733D01*
X127250000Y-58411126D01*
X127250000Y-59254498D01*
X127142315Y-59205320D01*
X127035763Y-59190000D01*
X126964237Y-59190000D01*
X126857685Y-59205320D01*
X126750000Y-59254498D01*
X126750000Y-58411127D01*
X126749999Y-58411126D01*
X126553673Y-58463733D01*
X126347519Y-58559865D01*
X126161180Y-58690341D01*
X126000341Y-58851180D01*
X125869863Y-59037522D01*
X125842656Y-59095866D01*
X125796483Y-59148305D01*
X125729290Y-59167456D01*
X125662409Y-59147239D01*
X125617893Y-59095865D01*
X125617618Y-59095276D01*
X125590568Y-59037266D01*
X125569363Y-59006981D01*
X125460046Y-58850859D01*
X125299140Y-58689953D01*
X125112735Y-58559432D01*
X124906497Y-58463261D01*
X124686689Y-58404364D01*
X124459999Y-58384531D01*
X124233310Y-58404364D01*
X124013502Y-58463261D01*
X123807264Y-58559432D01*
X123620859Y-58689953D01*
X123459953Y-58850859D01*
X123329433Y-59037263D01*
X123302382Y-59095275D01*
X123256209Y-59147714D01*
X123189015Y-59166865D01*
X123122134Y-59146649D01*
X123077618Y-59095275D01*
X123050687Y-59037522D01*
X123050568Y-59037266D01*
X123038993Y-59020735D01*
X122920046Y-58850859D01*
X122759140Y-58689953D01*
X122572735Y-58559432D01*
X122366497Y-58463261D01*
X122146689Y-58404364D01*
X121920000Y-58384531D01*
X121693310Y-58404364D01*
X121473502Y-58463261D01*
X121267264Y-58559432D01*
X121080859Y-58689953D01*
X120919953Y-58850859D01*
X120789431Y-59037266D01*
X120762380Y-59095276D01*
X120716207Y-59147714D01*
X120649013Y-59166865D01*
X120582132Y-59146648D01*
X120537617Y-59095273D01*
X120510568Y-59037266D01*
X120380046Y-58850859D01*
X120219140Y-58689953D01*
X120032735Y-58559432D01*
X119826497Y-58463261D01*
X119606689Y-58404364D01*
X119380000Y-58384531D01*
X119153310Y-58404364D01*
X118933502Y-58463261D01*
X118727264Y-58559432D01*
X118540859Y-58689953D01*
X118379953Y-58850859D01*
X118249433Y-59037263D01*
X118222382Y-59095275D01*
X118176209Y-59147714D01*
X118109015Y-59166865D01*
X118042134Y-59146649D01*
X117997618Y-59095275D01*
X117970687Y-59037522D01*
X117970568Y-59037266D01*
X117958993Y-59020735D01*
X117840046Y-58850859D01*
X117679140Y-58689953D01*
X117492735Y-58559432D01*
X117286497Y-58463261D01*
X117066689Y-58404364D01*
X116840000Y-58384531D01*
X116613310Y-58404364D01*
X116393501Y-58463261D01*
X116371903Y-58473333D01*
X116302826Y-58483824D01*
X116239042Y-58455303D01*
X116200803Y-58396826D01*
X116195500Y-58360950D01*
X116195500Y-52375423D01*
X116215185Y-52308384D01*
X116267989Y-52262629D01*
X116337147Y-52252685D01*
X116371902Y-52263040D01*
X116508504Y-52326739D01*
X116728308Y-52385635D01*
X116955000Y-52405468D01*
X117181692Y-52385635D01*
X117401496Y-52326739D01*
X117607734Y-52230568D01*
X117794139Y-52100047D01*
X117955047Y-51939139D01*
X118085568Y-51752734D01*
X118181739Y-51546496D01*
X118240635Y-51326692D01*
X118260468Y-51100000D01*
X118240635Y-50873308D01*
X118220992Y-50800000D01*
X121409556Y-50800000D01*
X121429312Y-51114015D01*
X121430039Y-51117827D01*
X121430041Y-51117841D01*
X121487538Y-51419249D01*
X121488269Y-51423079D01*
X121489473Y-51426786D01*
X121489474Y-51426788D01*
X121540776Y-51584680D01*
X121585497Y-51722315D01*
X121719463Y-52007007D01*
X121721545Y-52010288D01*
X121721548Y-52010293D01*
X121885962Y-52269369D01*
X121885966Y-52269375D01*
X121888053Y-52272663D01*
X121890532Y-52275660D01*
X121890536Y-52275665D01*
X121943383Y-52339545D01*
X122088610Y-52515094D01*
X122317970Y-52730478D01*
X122572516Y-52915416D01*
X122848234Y-53066994D01*
X123140775Y-53182819D01*
X123445527Y-53261066D01*
X123757682Y-53300500D01*
X123761577Y-53300500D01*
X124068423Y-53300500D01*
X124072318Y-53300500D01*
X124384473Y-53261066D01*
X124689225Y-53182819D01*
X124981766Y-53066994D01*
X125257484Y-52915416D01*
X125512030Y-52730478D01*
X125741390Y-52515094D01*
X125941947Y-52272663D01*
X126110537Y-52007007D01*
X126244503Y-51722315D01*
X126341731Y-51423079D01*
X126400688Y-51114015D01*
X126420444Y-50800000D01*
X126400688Y-50485985D01*
X126341731Y-50176921D01*
X126244503Y-49877685D01*
X126110537Y-49592993D01*
X125941947Y-49327337D01*
X125741390Y-49084906D01*
X125512030Y-48869522D01*
X125490086Y-48853579D01*
X125260633Y-48686872D01*
X125260634Y-48686872D01*
X125257484Y-48684584D01*
X125254081Y-48682713D01*
X125254076Y-48682710D01*
X124985183Y-48534884D01*
X124985176Y-48534880D01*
X124981766Y-48533006D01*
X124978140Y-48531570D01*
X124978135Y-48531568D01*
X124692847Y-48418615D01*
X124692846Y-48418614D01*
X124689225Y-48417181D01*
X124685455Y-48416213D01*
X124685452Y-48416212D01*
X124388256Y-48339905D01*
X124388251Y-48339904D01*
X124384473Y-48338934D01*
X124380602Y-48338445D01*
X124380597Y-48338444D01*
X124076184Y-48299988D01*
X124076177Y-48299987D01*
X124072318Y-48299500D01*
X123757682Y-48299500D01*
X123753823Y-48299987D01*
X123753815Y-48299988D01*
X123449402Y-48338444D01*
X123449394Y-48338445D01*
X123445527Y-48338934D01*
X123441751Y-48339903D01*
X123441743Y-48339905D01*
X123144547Y-48416212D01*
X123144539Y-48416214D01*
X123140775Y-48417181D01*
X123137158Y-48418612D01*
X123137152Y-48418615D01*
X122851864Y-48531568D01*
X122851853Y-48531572D01*
X122848234Y-48533006D01*
X122844829Y-48534877D01*
X122844816Y-48534884D01*
X122575923Y-48682710D01*
X122575911Y-48682717D01*
X122572516Y-48684584D01*
X122569372Y-48686867D01*
X122569366Y-48686872D01*
X122321126Y-48867228D01*
X122321115Y-48867236D01*
X122317970Y-48869522D01*
X122315135Y-48872183D01*
X122315128Y-48872190D01*
X122091447Y-49082241D01*
X122091440Y-49082248D01*
X122088610Y-49084906D01*
X122086135Y-49087897D01*
X122086131Y-49087902D01*
X121890536Y-49324334D01*
X121890526Y-49324346D01*
X121888053Y-49327337D01*
X121885971Y-49330616D01*
X121885962Y-49330630D01*
X121721548Y-49589706D01*
X121721541Y-49589717D01*
X121719463Y-49592993D01*
X121717810Y-49596504D01*
X121717807Y-49596511D01*
X121587153Y-49874165D01*
X121585497Y-49877685D01*
X121584295Y-49881382D01*
X121584293Y-49881389D01*
X121491754Y-50166194D01*
X121488269Y-50176921D01*
X121487540Y-50180741D01*
X121487538Y-50180750D01*
X121430041Y-50482158D01*
X121430038Y-50482174D01*
X121429312Y-50485985D01*
X121429067Y-50489876D01*
X121429067Y-50489878D01*
X121410094Y-50791447D01*
X121409556Y-50800000D01*
X118220992Y-50800000D01*
X118181739Y-50653504D01*
X118085568Y-50447266D01*
X118077685Y-50436007D01*
X117955046Y-50260859D01*
X117794140Y-50099953D01*
X117607735Y-49969432D01*
X117401497Y-49873261D01*
X117181689Y-49814364D01*
X116954999Y-49794531D01*
X116728310Y-49814364D01*
X116508501Y-49873261D01*
X116371905Y-49936958D01*
X116302827Y-49947450D01*
X116239043Y-49918930D01*
X116200804Y-49860454D01*
X116195500Y-49824576D01*
X116195500Y-49474188D01*
X116215185Y-49407149D01*
X116248377Y-49372613D01*
X116409140Y-49260046D01*
X116570046Y-49099140D01*
X116579755Y-49085275D01*
X116700568Y-48912734D01*
X116796739Y-48706496D01*
X116855635Y-48486692D01*
X116875468Y-48260000D01*
X116855635Y-48033308D01*
X116796739Y-47813504D01*
X116743974Y-47700350D01*
X128485702Y-47700350D01*
X128495819Y-47938529D01*
X128546046Y-48171581D01*
X128597448Y-48299500D01*
X128634936Y-48392790D01*
X128759931Y-48595795D01*
X128841628Y-48688620D01*
X128917437Y-48774756D01*
X129102914Y-48924519D01*
X129102917Y-48924520D01*
X129102920Y-48924523D01*
X129304772Y-49037285D01*
X129311048Y-49040791D01*
X129535831Y-49120212D01*
X129770797Y-49160500D01*
X129770800Y-49160500D01*
X129946866Y-49160500D01*
X129949497Y-49160500D01*
X130127541Y-49145346D01*
X130281346Y-49105298D01*
X130358250Y-49085275D01*
X130524728Y-49010021D01*
X130575486Y-48987077D01*
X130773003Y-48853579D01*
X130945118Y-48688621D01*
X131086879Y-48496947D01*
X131194207Y-48284074D01*
X131264016Y-48056123D01*
X131294298Y-47819654D01*
X131289230Y-47700350D01*
X140485702Y-47700350D01*
X140495819Y-47938529D01*
X140546046Y-48171581D01*
X140597448Y-48299500D01*
X140634936Y-48392790D01*
X140759931Y-48595795D01*
X140841628Y-48688620D01*
X140917437Y-48774756D01*
X141102914Y-48924519D01*
X141102917Y-48924520D01*
X141102920Y-48924523D01*
X141304772Y-49037285D01*
X141311048Y-49040791D01*
X141535831Y-49120212D01*
X141770797Y-49160500D01*
X141770800Y-49160500D01*
X141946866Y-49160500D01*
X141949497Y-49160500D01*
X142127541Y-49145346D01*
X142281346Y-49105298D01*
X142358250Y-49085275D01*
X142524728Y-49010021D01*
X142575486Y-48987077D01*
X142773003Y-48853579D01*
X142945118Y-48688621D01*
X143086879Y-48496947D01*
X143194207Y-48284074D01*
X143264016Y-48056123D01*
X143294298Y-47819654D01*
X143284180Y-47581468D01*
X143233954Y-47348419D01*
X143145064Y-47127210D01*
X143020069Y-46924205D01*
X142862564Y-46745245D01*
X142862562Y-46745243D01*
X142677085Y-46595480D01*
X142468951Y-46479208D01*
X142244168Y-46399787D01*
X142009203Y-46359500D01*
X142009200Y-46359500D01*
X141830503Y-46359500D01*
X141827887Y-46359722D01*
X141827878Y-46359723D01*
X141652460Y-46374653D01*
X141421749Y-46434724D01*
X141204514Y-46532922D01*
X141006997Y-46666420D01*
X140834881Y-46831379D01*
X140693121Y-47023052D01*
X140585793Y-47235925D01*
X140551343Y-47348419D01*
X140515984Y-47463877D01*
X140485702Y-47700346D01*
X140485702Y-47700349D01*
X140485702Y-47700350D01*
X131289230Y-47700350D01*
X131284180Y-47581468D01*
X131233954Y-47348419D01*
X131145064Y-47127210D01*
X131020069Y-46924205D01*
X130862564Y-46745245D01*
X130862562Y-46745243D01*
X130677085Y-46595480D01*
X130468951Y-46479208D01*
X130244168Y-46399787D01*
X130009203Y-46359500D01*
X130009200Y-46359500D01*
X129830503Y-46359500D01*
X129827887Y-46359722D01*
X129827878Y-46359723D01*
X129652460Y-46374653D01*
X129421749Y-46434724D01*
X129204514Y-46532922D01*
X129006997Y-46666420D01*
X128834881Y-46831379D01*
X128693121Y-47023052D01*
X128585793Y-47235925D01*
X128551343Y-47348419D01*
X128515984Y-47463877D01*
X128485702Y-47700346D01*
X128485702Y-47700349D01*
X128485702Y-47700350D01*
X116743974Y-47700350D01*
X116700568Y-47607266D01*
X116682505Y-47581468D01*
X116570046Y-47420859D01*
X116409140Y-47259953D01*
X116222735Y-47129432D01*
X116016497Y-47033261D01*
X115796689Y-46974364D01*
X115570000Y-46954531D01*
X115343310Y-46974364D01*
X115123502Y-47033261D01*
X114917264Y-47129432D01*
X114730859Y-47259953D01*
X114569953Y-47420859D01*
X114439432Y-47607264D01*
X114343261Y-47813502D01*
X114304775Y-47957136D01*
X114268410Y-48016796D01*
X114205563Y-48047325D01*
X114136187Y-48039030D01*
X114082309Y-47994545D01*
X114065225Y-47957136D01*
X114057295Y-47927542D01*
X114026739Y-47813504D01*
X113930568Y-47607266D01*
X113912505Y-47581468D01*
X113800046Y-47420859D01*
X113639140Y-47259953D01*
X113452735Y-47129432D01*
X113246497Y-47033261D01*
X113026689Y-46974364D01*
X112799999Y-46954531D01*
X112573310Y-46974364D01*
X112353502Y-47033261D01*
X112147264Y-47129432D01*
X111960859Y-47259953D01*
X111799953Y-47420859D01*
X111669432Y-47607264D01*
X111573261Y-47813502D01*
X111534775Y-47957136D01*
X111498410Y-48016796D01*
X111435563Y-48047325D01*
X111366187Y-48039030D01*
X111312309Y-47994545D01*
X111295225Y-47957136D01*
X111287295Y-47927542D01*
X111256739Y-47813504D01*
X111160568Y-47607266D01*
X111142505Y-47581468D01*
X111030046Y-47420859D01*
X110869140Y-47259953D01*
X110682735Y-47129432D01*
X110476497Y-47033261D01*
X110256689Y-46974364D01*
X110029999Y-46954531D01*
X109803310Y-46974364D01*
X109583502Y-47033261D01*
X109377264Y-47129432D01*
X109190859Y-47259953D01*
X109029953Y-47420859D01*
X108899432Y-47607264D01*
X108803261Y-47813502D01*
X108764775Y-47957136D01*
X108728410Y-48016796D01*
X108665563Y-48047325D01*
X108596187Y-48039030D01*
X108542309Y-47994545D01*
X108525225Y-47957136D01*
X108517295Y-47927542D01*
X108486739Y-47813504D01*
X108390568Y-47607266D01*
X108372505Y-47581468D01*
X108260046Y-47420859D01*
X108099140Y-47259953D01*
X107912735Y-47129432D01*
X107706497Y-47033261D01*
X107486689Y-46974364D01*
X107259999Y-46954531D01*
X107033310Y-46974364D01*
X106813502Y-47033261D01*
X106607264Y-47129432D01*
X106420859Y-47259953D01*
X106259953Y-47420859D01*
X106129432Y-47607264D01*
X106033261Y-47813502D01*
X105974364Y-48033310D01*
X105954531Y-48259999D01*
X105974364Y-48486689D01*
X106033261Y-48706497D01*
X106129432Y-48912735D01*
X106259953Y-49099140D01*
X106420859Y-49260046D01*
X106581623Y-49372613D01*
X106625248Y-49427189D01*
X106634500Y-49474188D01*
X106634500Y-49676000D01*
X106614815Y-49743039D01*
X106562011Y-49788794D01*
X106510500Y-49800000D01*
X106125000Y-49800000D01*
X106125000Y-50664498D01*
X106017315Y-50615320D01*
X105910763Y-50600000D01*
X105839237Y-50600000D01*
X105732685Y-50615320D01*
X105625000Y-50664498D01*
X105625000Y-49800000D01*
X105030482Y-49800000D01*
X105023867Y-49800354D01*
X104967628Y-49806400D01*
X104832910Y-49856647D01*
X104717811Y-49942811D01*
X104631647Y-50057910D01*
X104581400Y-50192628D01*
X104575354Y-50248867D01*
X104575000Y-50255481D01*
X104575000Y-50850000D01*
X105441314Y-50850000D01*
X105415507Y-50890156D01*
X105375000Y-51028111D01*
X105375000Y-51171889D01*
X105415507Y-51309844D01*
X105441314Y-51350000D01*
X104575000Y-51350000D01*
X104575000Y-51944518D01*
X104575354Y-51951132D01*
X104581400Y-52007371D01*
X104631647Y-52142089D01*
X104717811Y-52257188D01*
X104832910Y-52343352D01*
X104967628Y-52393599D01*
X105023867Y-52399645D01*
X105030482Y-52400000D01*
X105625000Y-52400000D01*
X105625000Y-51535501D01*
X105732685Y-51584680D01*
X105839237Y-51600000D01*
X105910763Y-51600000D01*
X106017315Y-51584680D01*
X106125000Y-51535501D01*
X106125000Y-52400000D01*
X106510500Y-52400000D01*
X106577539Y-52419685D01*
X106623294Y-52472489D01*
X106634500Y-52524000D01*
X106634500Y-58274887D01*
X106614815Y-58341926D01*
X106562011Y-58387681D01*
X106521308Y-58398415D01*
X106453310Y-58404364D01*
X106233502Y-58463261D01*
X106027264Y-58559432D01*
X105840859Y-58689953D01*
X105679953Y-58850859D01*
X105549433Y-59037263D01*
X105522382Y-59095275D01*
X105476209Y-59147714D01*
X105409015Y-59166865D01*
X105342134Y-59146649D01*
X105297618Y-59095275D01*
X105270687Y-59037522D01*
X105270568Y-59037266D01*
X105258993Y-59020735D01*
X105140046Y-58850859D01*
X104979140Y-58689953D01*
X104792735Y-58559432D01*
X104586497Y-58463261D01*
X104366689Y-58404364D01*
X104139999Y-58384531D01*
X103913310Y-58404364D01*
X103693502Y-58463261D01*
X103487264Y-58559432D01*
X103300859Y-58689953D01*
X103139953Y-58850859D01*
X103009433Y-59037263D01*
X102982382Y-59095275D01*
X102936209Y-59147714D01*
X102869015Y-59166865D01*
X102802134Y-59146649D01*
X102757618Y-59095275D01*
X102730687Y-59037522D01*
X102730568Y-59037266D01*
X102718993Y-59020735D01*
X102600046Y-58850859D01*
X102439140Y-58689953D01*
X102252735Y-58559432D01*
X102046497Y-58463261D01*
X101826689Y-58404364D01*
X101600000Y-58384531D01*
X101373310Y-58404364D01*
X101153502Y-58463261D01*
X100947264Y-58559432D01*
X100760859Y-58689953D01*
X100599953Y-58850859D01*
X100469433Y-59037263D01*
X100442382Y-59095275D01*
X100396209Y-59147714D01*
X100329015Y-59166865D01*
X100262134Y-59146649D01*
X100217618Y-59095275D01*
X100190687Y-59037522D01*
X100190568Y-59037266D01*
X100178993Y-59020735D01*
X100060046Y-58850859D01*
X99899140Y-58689953D01*
X99712735Y-58559432D01*
X99506497Y-58463261D01*
X99286689Y-58404364D01*
X99060000Y-58384531D01*
X98833310Y-58404364D01*
X98613502Y-58463261D01*
X98407264Y-58559432D01*
X98220859Y-58689953D01*
X98059953Y-58850859D01*
X97929432Y-59037264D01*
X97833261Y-59243502D01*
X97774364Y-59463310D01*
X97754531Y-59690000D01*
X97774364Y-59916689D01*
X97833261Y-60136497D01*
X97929432Y-60342735D01*
X98059953Y-60529140D01*
X98220859Y-60690046D01*
X98407264Y-60820567D01*
X98407265Y-60820567D01*
X98407266Y-60820568D01*
X98613504Y-60916739D01*
X98833308Y-60975635D01*
X98984435Y-60988856D01*
X99059999Y-60995468D01*
X99059999Y-60995467D01*
X99060000Y-60995468D01*
X99286692Y-60975635D01*
X99506496Y-60916739D01*
X99712734Y-60820568D01*
X99899139Y-60690047D01*
X100060047Y-60529139D01*
X100190568Y-60342734D01*
X100217618Y-60284724D01*
X100263790Y-60232285D01*
X100330983Y-60213133D01*
X100397865Y-60233348D01*
X100442382Y-60284725D01*
X100469431Y-60342733D01*
X100599953Y-60529140D01*
X100760859Y-60690046D01*
X100947264Y-60820567D01*
X100947265Y-60820567D01*
X100947266Y-60820568D01*
X101153504Y-60916739D01*
X101373308Y-60975635D01*
X101600000Y-60995468D01*
X101826692Y-60975635D01*
X102046496Y-60916739D01*
X102252734Y-60820568D01*
X102439139Y-60690047D01*
X102600047Y-60529139D01*
X102730568Y-60342734D01*
X102757619Y-60284721D01*
X102803788Y-60232286D01*
X102870981Y-60213133D01*
X102937862Y-60233348D01*
X102982380Y-60284722D01*
X103009432Y-60342733D01*
X103009433Y-60342736D01*
X103139953Y-60529140D01*
X103300859Y-60690046D01*
X103487264Y-60820567D01*
X103487265Y-60820567D01*
X103487266Y-60820568D01*
X103693504Y-60916739D01*
X103913308Y-60975635D01*
X104140000Y-60995468D01*
X104366692Y-60975635D01*
X104586496Y-60916739D01*
X104792734Y-60820568D01*
X104979139Y-60690047D01*
X105140047Y-60529139D01*
X105270568Y-60342734D01*
X105297618Y-60284724D01*
X105343790Y-60232285D01*
X105410983Y-60213133D01*
X105477865Y-60233348D01*
X105522382Y-60284725D01*
X105549431Y-60342733D01*
X105679953Y-60529140D01*
X105840859Y-60690046D01*
X106027264Y-60820567D01*
X106027265Y-60820567D01*
X106027266Y-60820568D01*
X106233504Y-60916739D01*
X106453308Y-60975635D01*
X106680000Y-60995468D01*
X106906692Y-60975635D01*
X107126496Y-60916739D01*
X107332734Y-60820568D01*
X107519139Y-60690047D01*
X107544122Y-60665062D01*
X107605442Y-60631579D01*
X107675134Y-60636563D01*
X107719483Y-60665064D01*
X119828205Y-72773787D01*
X119841105Y-72789888D01*
X119892232Y-72837900D01*
X119895029Y-72840611D01*
X119914538Y-72860120D01*
X119917718Y-72862587D01*
X119926580Y-72870155D01*
X119958426Y-72900062D01*
X119958427Y-72900062D01*
X119975979Y-72909711D01*
X119992247Y-72920397D01*
X120008073Y-72932673D01*
X120048155Y-72950017D01*
X120058642Y-72955155D01*
X120096916Y-72976197D01*
X120105419Y-72978379D01*
X120116317Y-72981178D01*
X120134722Y-72987478D01*
X120153113Y-72995437D01*
X120196259Y-73002270D01*
X120207677Y-73004635D01*
X120249990Y-73015500D01*
X120270025Y-73015500D01*
X120289424Y-73017027D01*
X120309205Y-73020160D01*
X120352683Y-73016050D01*
X120364353Y-73015500D01*
X126250500Y-73015500D01*
X126317539Y-73035185D01*
X126363294Y-73087989D01*
X126374500Y-73139500D01*
X126374500Y-73715812D01*
X126354815Y-73782851D01*
X126321623Y-73817387D01*
X126160859Y-73929953D01*
X125999953Y-74090859D01*
X125869433Y-74277263D01*
X125842382Y-74335275D01*
X125796209Y-74387714D01*
X125729015Y-74406865D01*
X125662134Y-74386649D01*
X125617618Y-74335275D01*
X125590687Y-74277522D01*
X125590568Y-74277266D01*
X125590566Y-74277263D01*
X125460046Y-74090859D01*
X125299140Y-73929953D01*
X125112735Y-73799432D01*
X124906497Y-73703261D01*
X124686689Y-73644364D01*
X124459999Y-73624531D01*
X124233310Y-73644364D01*
X124013502Y-73703261D01*
X123807264Y-73799432D01*
X123620859Y-73929953D01*
X123459953Y-74090859D01*
X123329433Y-74277263D01*
X123302382Y-74335275D01*
X123256209Y-74387714D01*
X123189015Y-74406865D01*
X123122134Y-74386649D01*
X123077618Y-74335275D01*
X123050687Y-74277522D01*
X123050568Y-74277266D01*
X123050566Y-74277263D01*
X122920046Y-74090859D01*
X122759140Y-73929953D01*
X122572735Y-73799432D01*
X122366497Y-73703261D01*
X122146689Y-73644364D01*
X121920000Y-73624531D01*
X121693310Y-73644364D01*
X121473502Y-73703261D01*
X121267264Y-73799432D01*
X121080859Y-73929953D01*
X120919953Y-74090859D01*
X120789433Y-74277263D01*
X120762382Y-74335275D01*
X120716209Y-74387714D01*
X120649015Y-74406865D01*
X120582134Y-74386649D01*
X120537618Y-74335275D01*
X120510687Y-74277522D01*
X120510568Y-74277266D01*
X120510566Y-74277263D01*
X120380046Y-74090859D01*
X120219140Y-73929953D01*
X120032735Y-73799432D01*
X119826497Y-73703261D01*
X119606689Y-73644364D01*
X119380000Y-73624531D01*
X119153310Y-73644364D01*
X118933502Y-73703261D01*
X118727264Y-73799432D01*
X118540859Y-73929953D01*
X118379953Y-74090859D01*
X118249433Y-74277263D01*
X118222382Y-74335275D01*
X118176209Y-74387714D01*
X118109015Y-74406865D01*
X118042134Y-74386649D01*
X117997618Y-74335275D01*
X117970687Y-74277522D01*
X117970568Y-74277266D01*
X117970566Y-74277263D01*
X117840046Y-74090859D01*
X117679140Y-73929953D01*
X117492735Y-73799432D01*
X117286497Y-73703261D01*
X117066689Y-73644364D01*
X116840000Y-73624531D01*
X116613310Y-73644364D01*
X116393502Y-73703261D01*
X116187264Y-73799432D01*
X116000859Y-73929953D01*
X115839953Y-74090859D01*
X115709433Y-74277263D01*
X115682382Y-74335275D01*
X115636209Y-74387714D01*
X115569015Y-74406865D01*
X115502134Y-74386649D01*
X115457618Y-74335275D01*
X115430687Y-74277522D01*
X115430568Y-74277266D01*
X115430566Y-74277263D01*
X115300046Y-74090859D01*
X115139140Y-73929953D01*
X114952735Y-73799432D01*
X114746497Y-73703261D01*
X114526689Y-73644364D01*
X114300000Y-73624531D01*
X114073310Y-73644364D01*
X113853502Y-73703261D01*
X113647264Y-73799432D01*
X113460859Y-73929953D01*
X113299953Y-74090859D01*
X113169433Y-74277263D01*
X113142382Y-74335275D01*
X113096209Y-74387714D01*
X113029015Y-74406865D01*
X112962134Y-74386649D01*
X112917618Y-74335275D01*
X112890687Y-74277522D01*
X112890568Y-74277266D01*
X112890566Y-74277263D01*
X112760046Y-74090859D01*
X112599140Y-73929953D01*
X112412735Y-73799432D01*
X112206497Y-73703261D01*
X111986689Y-73644364D01*
X111759999Y-73624531D01*
X111533310Y-73644364D01*
X111313502Y-73703261D01*
X111107264Y-73799432D01*
X110920859Y-73929953D01*
X110759953Y-74090859D01*
X110629433Y-74277263D01*
X110602382Y-74335275D01*
X110556209Y-74387714D01*
X110489015Y-74406865D01*
X110422134Y-74386649D01*
X110377618Y-74335275D01*
X110350687Y-74277522D01*
X110350568Y-74277266D01*
X110350566Y-74277263D01*
X110220046Y-74090859D01*
X110059140Y-73929953D01*
X109872735Y-73799432D01*
X109666497Y-73703261D01*
X109446689Y-73644364D01*
X109219999Y-73624531D01*
X108993310Y-73644364D01*
X108773502Y-73703261D01*
X108567264Y-73799432D01*
X108380859Y-73929953D01*
X108219953Y-74090859D01*
X108089433Y-74277263D01*
X108062382Y-74335275D01*
X108016209Y-74387714D01*
X107949015Y-74406865D01*
X107882134Y-74386649D01*
X107837618Y-74335275D01*
X107810687Y-74277522D01*
X107810568Y-74277266D01*
X107810566Y-74277263D01*
X107680046Y-74090859D01*
X107519140Y-73929953D01*
X107332735Y-73799432D01*
X107126497Y-73703261D01*
X106906689Y-73644364D01*
X106680000Y-73624531D01*
X106453310Y-73644364D01*
X106233502Y-73703261D01*
X106027264Y-73799432D01*
X105840859Y-73929953D01*
X105679953Y-74090859D01*
X105549433Y-74277263D01*
X105522382Y-74335275D01*
X105476209Y-74387714D01*
X105409015Y-74406865D01*
X105342134Y-74386649D01*
X105297618Y-74335275D01*
X105270687Y-74277522D01*
X105270568Y-74277266D01*
X105270566Y-74277263D01*
X105140046Y-74090859D01*
X104979140Y-73929953D01*
X104792735Y-73799432D01*
X104586497Y-73703261D01*
X104366689Y-73644364D01*
X104139999Y-73624531D01*
X103913310Y-73644364D01*
X103693502Y-73703261D01*
X103487264Y-73799432D01*
X103300859Y-73929953D01*
X103139953Y-74090859D01*
X103009433Y-74277263D01*
X102982382Y-74335275D01*
X102936209Y-74387714D01*
X102869015Y-74406865D01*
X102802134Y-74386649D01*
X102757618Y-74335275D01*
X102730687Y-74277522D01*
X102730568Y-74277266D01*
X102730566Y-74277263D01*
X102600046Y-74090859D01*
X102439140Y-73929953D01*
X102252735Y-73799432D01*
X102046497Y-73703261D01*
X101826689Y-73644364D01*
X101600000Y-73624531D01*
X101373310Y-73644364D01*
X101153502Y-73703261D01*
X100947264Y-73799432D01*
X100760859Y-73929953D01*
X100599953Y-74090859D01*
X100469433Y-74277263D01*
X100442382Y-74335275D01*
X100396209Y-74387714D01*
X100329015Y-74406865D01*
X100262134Y-74386649D01*
X100217618Y-74335275D01*
X100190687Y-74277522D01*
X100190568Y-74277266D01*
X100190566Y-74277263D01*
X100060046Y-74090859D01*
X99899140Y-73929953D01*
X99712735Y-73799432D01*
X99506497Y-73703261D01*
X99286689Y-73644364D01*
X99060000Y-73624531D01*
X98833310Y-73644364D01*
X98613502Y-73703261D01*
X98407264Y-73799432D01*
X98220859Y-73929953D01*
X98059953Y-74090859D01*
X97929432Y-74277264D01*
X97833261Y-74483502D01*
X97774364Y-74703310D01*
X97754531Y-74929999D01*
X78740500Y-74929999D01*
X78740500Y-53000000D01*
X82994696Y-53000000D01*
X82994866Y-53003243D01*
X83003265Y-53163510D01*
X83002755Y-53165655D01*
X83003619Y-53173737D01*
X83004151Y-53180421D01*
X83004791Y-53192624D01*
X83004961Y-53199118D01*
X83004961Y-53203878D01*
X83005486Y-53205900D01*
X83010444Y-53300500D01*
X83013898Y-53366404D01*
X83014403Y-53369597D01*
X83014405Y-53369609D01*
X83039983Y-53531099D01*
X83039622Y-53533891D01*
X83041892Y-53544389D01*
X83043167Y-53551201D01*
X83045149Y-53563716D01*
X83045971Y-53569920D01*
X83046173Y-53571809D01*
X83046619Y-53572997D01*
X83067708Y-53706151D01*
X83071295Y-53728794D01*
X83072133Y-53731923D01*
X83072136Y-53731935D01*
X83115241Y-53892803D01*
X83115159Y-53896218D01*
X83119278Y-53908668D01*
X83121326Y-53915516D01*
X83124843Y-53928641D01*
X83125947Y-53933201D01*
X83126201Y-53933707D01*
X83165415Y-54080055D01*
X83165418Y-54080064D01*
X83166258Y-54083199D01*
X83228197Y-54244556D01*
X83228521Y-54248552D01*
X83234853Y-54262507D01*
X83237698Y-54269307D01*
X83243066Y-54283291D01*
X83243295Y-54283933D01*
X83243337Y-54283998D01*
X83296586Y-54422718D01*
X83296589Y-54422726D01*
X83297745Y-54425736D01*
X83299209Y-54428610D01*
X83299213Y-54428618D01*
X83377593Y-54582446D01*
X83378442Y-54586968D01*
X83387266Y-54601943D01*
X83390917Y-54608596D01*
X83464318Y-54752652D01*
X83466089Y-54755379D01*
X83561779Y-54902730D01*
X83563262Y-54907693D01*
X83574756Y-54923165D01*
X83579214Y-54929578D01*
X83640233Y-55023538D01*
X83664149Y-55060366D01*
X83666194Y-55062891D01*
X83778696Y-55201820D01*
X83780910Y-55207131D01*
X83795168Y-55222575D01*
X83800423Y-55228650D01*
X83891906Y-55341623D01*
X83895051Y-55345506D01*
X83897345Y-55347800D01*
X84025931Y-55476386D01*
X84028962Y-55481937D01*
X84046019Y-55496862D01*
X84052045Y-55502500D01*
X84154494Y-55604949D01*
X84157012Y-55606988D01*
X84300733Y-55723371D01*
X84304645Y-55729034D01*
X84324418Y-55742923D01*
X84331173Y-55748021D01*
X84439634Y-55835851D01*
X84508334Y-55880465D01*
X84600040Y-55940020D01*
X84604884Y-55945665D01*
X84627258Y-55958058D01*
X84634703Y-55962530D01*
X84747348Y-56035682D01*
X84824303Y-56074893D01*
X84920532Y-56123924D01*
X84926338Y-56129408D01*
X84951087Y-56139853D01*
X84959167Y-56143610D01*
X85074264Y-56202255D01*
X85258627Y-56273025D01*
X85265405Y-56278200D01*
X85292289Y-56286306D01*
X85300909Y-56289255D01*
X85416801Y-56333742D01*
X85610549Y-56385657D01*
X85618289Y-56390374D01*
X85646989Y-56395786D01*
X85656102Y-56397863D01*
X85771206Y-56428705D01*
X85972403Y-56460571D01*
X85981072Y-56464681D01*
X86011239Y-56467096D01*
X86020744Y-56468228D01*
X86133596Y-56486102D01*
X86340136Y-56496926D01*
X86349686Y-56500282D01*
X86380918Y-56499450D01*
X86390697Y-56499575D01*
X86500000Y-56505304D01*
X86709659Y-56494316D01*
X86720005Y-56496774D01*
X86751854Y-56492509D01*
X86761809Y-56491583D01*
X86866404Y-56486102D01*
X87076844Y-56452771D01*
X87087900Y-56454199D01*
X87119940Y-56446372D01*
X87129932Y-56444363D01*
X87228794Y-56428705D01*
X87437630Y-56372747D01*
X87449284Y-56373024D01*
X87481046Y-56361570D01*
X87491011Y-56358443D01*
X87583199Y-56333742D01*
X87787976Y-56255135D01*
X87800089Y-56254153D01*
X87831099Y-56239074D01*
X87840877Y-56234828D01*
X87925736Y-56202255D01*
X88123965Y-56101251D01*
X88136399Y-56098916D01*
X88166215Y-56080260D01*
X88175681Y-56074900D01*
X88252652Y-56035682D01*
X88441878Y-55912797D01*
X88454468Y-55909035D01*
X88482625Y-55886929D01*
X88491642Y-55880480D01*
X88560366Y-55835851D01*
X88738155Y-55691880D01*
X88750731Y-55686635D01*
X88776797Y-55661254D01*
X88785254Y-55653739D01*
X88845506Y-55604949D01*
X89009496Y-55440958D01*
X89021872Y-55434200D01*
X89045441Y-55405773D01*
X89053210Y-55397244D01*
X89104949Y-55345506D01*
X89252885Y-55162819D01*
X89264881Y-55154533D01*
X89285570Y-55123345D01*
X89292536Y-55113855D01*
X89333806Y-55062891D01*
X89335851Y-55060366D01*
X89465593Y-54860578D01*
X89477010Y-54850781D01*
X89494481Y-54817159D01*
X89500506Y-54806817D01*
X89535682Y-54752652D01*
X89645268Y-54537577D01*
X89655918Y-54526300D01*
X89669870Y-54490619D01*
X89674865Y-54479491D01*
X89702255Y-54425736D01*
X89789888Y-54197440D01*
X89799580Y-54184748D01*
X89809767Y-54147392D01*
X89813626Y-54135601D01*
X89833742Y-54083199D01*
X89897840Y-53843981D01*
X89906392Y-53829950D01*
X89912612Y-53791348D01*
X89915258Y-53778978D01*
X89927863Y-53731935D01*
X89928705Y-53728794D01*
X89986102Y-53366404D01*
X90005304Y-53000000D01*
X89986102Y-52633596D01*
X89928705Y-52271206D01*
X89915259Y-52221025D01*
X89912612Y-52208653D01*
X89907274Y-52175525D01*
X89897843Y-52156028D01*
X89834584Y-51919943D01*
X89834583Y-51919941D01*
X89833742Y-51916801D01*
X89813631Y-51864409D01*
X89809768Y-51852608D01*
X89801000Y-51820458D01*
X89789889Y-51802560D01*
X89787881Y-51797328D01*
X89702255Y-51574264D01*
X89700786Y-51571381D01*
X89700783Y-51571374D01*
X89674872Y-51520522D01*
X89669870Y-51509381D01*
X89657825Y-51478575D01*
X89645268Y-51462421D01*
X89537156Y-51250241D01*
X89535682Y-51247348D01*
X89500522Y-51193206D01*
X89494485Y-51182846D01*
X89479354Y-51153728D01*
X89465593Y-51139420D01*
X89335851Y-50939634D01*
X89333807Y-50937110D01*
X89333797Y-50937096D01*
X89292540Y-50886149D01*
X89285573Y-50876659D01*
X89267602Y-50849569D01*
X89252887Y-50837182D01*
X89222778Y-50800000D01*
X96409556Y-50800000D01*
X96429312Y-51114015D01*
X96430039Y-51117827D01*
X96430041Y-51117841D01*
X96487538Y-51419249D01*
X96488269Y-51423079D01*
X96489473Y-51426786D01*
X96489474Y-51426788D01*
X96540776Y-51584680D01*
X96585497Y-51722315D01*
X96719463Y-52007007D01*
X96721545Y-52010288D01*
X96721548Y-52010293D01*
X96885962Y-52269369D01*
X96885966Y-52269375D01*
X96888053Y-52272663D01*
X96890532Y-52275660D01*
X96890536Y-52275665D01*
X96943383Y-52339545D01*
X97088610Y-52515094D01*
X97317970Y-52730478D01*
X97572516Y-52915416D01*
X97848234Y-53066994D01*
X98140775Y-53182819D01*
X98445527Y-53261066D01*
X98757682Y-53300500D01*
X98761577Y-53300500D01*
X99068423Y-53300500D01*
X99072318Y-53300500D01*
X99384473Y-53261066D01*
X99689225Y-53182819D01*
X99981766Y-53066994D01*
X100257484Y-52915416D01*
X100512030Y-52730478D01*
X100741390Y-52515094D01*
X100941947Y-52272663D01*
X101110537Y-52007007D01*
X101244503Y-51722315D01*
X101341731Y-51423079D01*
X101400688Y-51114015D01*
X101420444Y-50800000D01*
X101400688Y-50485985D01*
X101341731Y-50176921D01*
X101244503Y-49877685D01*
X101110537Y-49592993D01*
X100941947Y-49327337D01*
X100741390Y-49084906D01*
X100512030Y-48869522D01*
X100490086Y-48853579D01*
X100260633Y-48686872D01*
X100260634Y-48686872D01*
X100257484Y-48684584D01*
X100254081Y-48682713D01*
X100254076Y-48682710D01*
X99985183Y-48534884D01*
X99985176Y-48534880D01*
X99981766Y-48533006D01*
X99978140Y-48531570D01*
X99978135Y-48531568D01*
X99692847Y-48418615D01*
X99692846Y-48418614D01*
X99689225Y-48417181D01*
X99685455Y-48416213D01*
X99685452Y-48416212D01*
X99388256Y-48339905D01*
X99388251Y-48339904D01*
X99384473Y-48338934D01*
X99380602Y-48338445D01*
X99380597Y-48338444D01*
X99076184Y-48299988D01*
X99076177Y-48299987D01*
X99072318Y-48299500D01*
X98757682Y-48299500D01*
X98753823Y-48299987D01*
X98753815Y-48299988D01*
X98449402Y-48338444D01*
X98449394Y-48338445D01*
X98445527Y-48338934D01*
X98441751Y-48339903D01*
X98441743Y-48339905D01*
X98144547Y-48416212D01*
X98144539Y-48416214D01*
X98140775Y-48417181D01*
X98137158Y-48418612D01*
X98137152Y-48418615D01*
X97851864Y-48531568D01*
X97851853Y-48531572D01*
X97848234Y-48533006D01*
X97844829Y-48534877D01*
X97844816Y-48534884D01*
X97575923Y-48682710D01*
X97575911Y-48682717D01*
X97572516Y-48684584D01*
X97569372Y-48686867D01*
X97569366Y-48686872D01*
X97321126Y-48867228D01*
X97321115Y-48867236D01*
X97317970Y-48869522D01*
X97315135Y-48872183D01*
X97315128Y-48872190D01*
X97091447Y-49082241D01*
X97091440Y-49082248D01*
X97088610Y-49084906D01*
X97086135Y-49087897D01*
X97086131Y-49087902D01*
X96890536Y-49324334D01*
X96890526Y-49324346D01*
X96888053Y-49327337D01*
X96885971Y-49330616D01*
X96885962Y-49330630D01*
X96721548Y-49589706D01*
X96721541Y-49589717D01*
X96719463Y-49592993D01*
X96717810Y-49596504D01*
X96717807Y-49596511D01*
X96587153Y-49874165D01*
X96585497Y-49877685D01*
X96584295Y-49881382D01*
X96584293Y-49881389D01*
X96491754Y-50166194D01*
X96488269Y-50176921D01*
X96487540Y-50180741D01*
X96487538Y-50180750D01*
X96430041Y-50482158D01*
X96430038Y-50482174D01*
X96429312Y-50485985D01*
X96429067Y-50489876D01*
X96429067Y-50489878D01*
X96410094Y-50791447D01*
X96409556Y-50800000D01*
X89222778Y-50800000D01*
X89106988Y-50657012D01*
X89104949Y-50654494D01*
X89053226Y-50602771D01*
X89045448Y-50594232D01*
X89024916Y-50569466D01*
X89009495Y-50559040D01*
X88847800Y-50397345D01*
X88845506Y-50395051D01*
X88785269Y-50346272D01*
X88776798Y-50338746D01*
X88754026Y-50316573D01*
X88738154Y-50308119D01*
X88699265Y-50276627D01*
X88560366Y-50164149D01*
X88491661Y-50119532D01*
X88482625Y-50113070D01*
X88457954Y-50093700D01*
X88441877Y-50087201D01*
X88255379Y-49966089D01*
X88255374Y-49966086D01*
X88252652Y-49964318D01*
X88249764Y-49962846D01*
X88249758Y-49962843D01*
X88175698Y-49925108D01*
X88166221Y-49919742D01*
X88140023Y-49903350D01*
X88123966Y-49898749D01*
X88114135Y-49893740D01*
X87925736Y-49797745D01*
X87922726Y-49796589D01*
X87922718Y-49796586D01*
X87840906Y-49765182D01*
X87831119Y-49760933D01*
X87803780Y-49747639D01*
X87787975Y-49744863D01*
X87586241Y-49667425D01*
X87586228Y-49667421D01*
X87583199Y-49666258D01*
X87580064Y-49665418D01*
X87580055Y-49665415D01*
X87491027Y-49641560D01*
X87481056Y-49638432D01*
X87452987Y-49628310D01*
X87437632Y-49627253D01*
X87231935Y-49572136D01*
X87231923Y-49572133D01*
X87228794Y-49571295D01*
X87225589Y-49570787D01*
X87225578Y-49570785D01*
X87129987Y-49555645D01*
X87119959Y-49553630D01*
X87091556Y-49546691D01*
X87076844Y-49547228D01*
X86869609Y-49514405D01*
X86869597Y-49514403D01*
X86866404Y-49513898D01*
X86863171Y-49513728D01*
X86863166Y-49513728D01*
X86761839Y-49508418D01*
X86751871Y-49507491D01*
X86723565Y-49503700D01*
X86709660Y-49505683D01*
X86503245Y-49494866D01*
X86503244Y-49494866D01*
X86500000Y-49494696D01*
X86496756Y-49494866D01*
X86496755Y-49494866D01*
X86390723Y-49500422D01*
X86380934Y-49500548D01*
X86353103Y-49499807D01*
X86340138Y-49503073D01*
X86136834Y-49513728D01*
X86136828Y-49513728D01*
X86133596Y-49513898D01*
X86130404Y-49514403D01*
X86130390Y-49514405D01*
X86020755Y-49531770D01*
X86011251Y-49532902D01*
X85984302Y-49535059D01*
X85972404Y-49539428D01*
X85774423Y-49570785D01*
X85774414Y-49570786D01*
X85771206Y-49571295D01*
X85768081Y-49572132D01*
X85768059Y-49572137D01*
X85656128Y-49602129D01*
X85647013Y-49604206D01*
X85621301Y-49609054D01*
X85610550Y-49614342D01*
X85419944Y-49665415D01*
X85419929Y-49665419D01*
X85416801Y-49666258D01*
X85413776Y-49667418D01*
X85413758Y-49667425D01*
X85300950Y-49710728D01*
X85292312Y-49713684D01*
X85268164Y-49720965D01*
X85258628Y-49726974D01*
X85077281Y-49796586D01*
X85077266Y-49796592D01*
X85074264Y-49797745D01*
X85071389Y-49799209D01*
X85071373Y-49799217D01*
X84959184Y-49856380D01*
X84951107Y-49860137D01*
X84928818Y-49869543D01*
X84920534Y-49876073D01*
X84750248Y-49962839D01*
X84750227Y-49962850D01*
X84747348Y-49964318D01*
X84744629Y-49966083D01*
X84744625Y-49966086D01*
X84634724Y-50037456D01*
X84627276Y-50041930D01*
X84607082Y-50053116D01*
X84600043Y-50059978D01*
X84518289Y-50113070D01*
X84439634Y-50164149D01*
X84437114Y-50166189D01*
X84437108Y-50166194D01*
X84331185Y-50251969D01*
X84324424Y-50257072D01*
X84306542Y-50269632D01*
X84300734Y-50276627D01*
X84157012Y-50393011D01*
X84157001Y-50393020D01*
X84154494Y-50395051D01*
X84152209Y-50397335D01*
X84152209Y-50397336D01*
X84052054Y-50497491D01*
X84046030Y-50503127D01*
X84030569Y-50516655D01*
X84025932Y-50523611D01*
X83895051Y-50654494D01*
X83893020Y-50657001D01*
X83893011Y-50657012D01*
X83800424Y-50771348D01*
X83795171Y-50777421D01*
X83782222Y-50791447D01*
X83778697Y-50798177D01*
X83666201Y-50937098D01*
X83666186Y-50937117D01*
X83664149Y-50939634D01*
X83662380Y-50942356D01*
X83662377Y-50942362D01*
X83579224Y-51070407D01*
X83574766Y-51076821D01*
X83564303Y-51090903D01*
X83561781Y-51097266D01*
X83466086Y-51244625D01*
X83464318Y-51247348D01*
X83462850Y-51250227D01*
X83462843Y-51250241D01*
X83390917Y-51391404D01*
X83387266Y-51398058D01*
X83379228Y-51411699D01*
X83377594Y-51417552D01*
X83299213Y-51571381D01*
X83299206Y-51571396D01*
X83297745Y-51574264D01*
X83296589Y-51577273D01*
X83296586Y-51577282D01*
X83243337Y-51716001D01*
X83243302Y-51716046D01*
X83243064Y-51716713D01*
X83237698Y-51730690D01*
X83234857Y-51737480D01*
X83229078Y-51750216D01*
X83228197Y-51755442D01*
X83167425Y-51913758D01*
X83167423Y-51913765D01*
X83166258Y-51916801D01*
X83165419Y-51919929D01*
X83165415Y-51919944D01*
X83126202Y-52066291D01*
X83125982Y-52066651D01*
X83124842Y-52071365D01*
X83121323Y-52084496D01*
X83119276Y-52091338D01*
X83115520Y-52102693D01*
X83115241Y-52107194D01*
X83072137Y-52268059D01*
X83072132Y-52268081D01*
X83071295Y-52271206D01*
X83070786Y-52274418D01*
X83070785Y-52274424D01*
X83046619Y-52427001D01*
X83046208Y-52427866D01*
X83045972Y-52430079D01*
X83045149Y-52436285D01*
X83043168Y-52448794D01*
X83041893Y-52455607D01*
X83039822Y-52465183D01*
X83039983Y-52468899D01*
X83014405Y-52630390D01*
X83014403Y-52630404D01*
X83013898Y-52633596D01*
X83013728Y-52636828D01*
X83013728Y-52636834D01*
X83005486Y-52794098D01*
X83004961Y-52795591D01*
X83004961Y-52800881D01*
X83004791Y-52807376D01*
X83004151Y-52819577D01*
X83003619Y-52826258D01*
X83002833Y-52833607D01*
X83003265Y-52836487D01*
X82994866Y-52996755D01*
X82994696Y-53000000D01*
X78740500Y-53000000D01*
X78740500Y-46993478D01*
X78740695Y-46986525D01*
X78746987Y-46874482D01*
X78746988Y-46874474D01*
X78746992Y-46874394D01*
X78757200Y-46705642D01*
X78758719Y-46692415D01*
X78781281Y-46559623D01*
X78808015Y-46413747D01*
X78810806Y-46401875D01*
X78849040Y-46269161D01*
X78849757Y-46266772D01*
X78892427Y-46129839D01*
X78896231Y-46119330D01*
X78949714Y-45990214D01*
X78951109Y-45986984D01*
X79009307Y-45857673D01*
X79013821Y-45848650D01*
X79081820Y-45725615D01*
X79084172Y-45721549D01*
X79157051Y-45600991D01*
X79162027Y-45593406D01*
X79243605Y-45478431D01*
X79247048Y-45473815D01*
X79333697Y-45363215D01*
X79338797Y-45357122D01*
X79432892Y-45251829D01*
X79437603Y-45246847D01*
X79536847Y-45147603D01*
X79541829Y-45142892D01*
X79647122Y-45048797D01*
X79653215Y-45043697D01*
X79763815Y-44957048D01*
X79768431Y-44953605D01*
X79883410Y-44872024D01*
X79890991Y-44867051D01*
X80011549Y-44794172D01*
X80015615Y-44791820D01*
X80138650Y-44723821D01*
X80147673Y-44719307D01*
X80276984Y-44661109D01*
X80280214Y-44659714D01*
X80409330Y-44606231D01*
X80419839Y-44602427D01*
X80556772Y-44559757D01*
X80559161Y-44559040D01*
X80691855Y-44520812D01*
X80703784Y-44518008D01*
X80849598Y-44491286D01*
X80982404Y-44468721D01*
X80995650Y-44467199D01*
X81164333Y-44456995D01*
X81276527Y-44450695D01*
X81283479Y-44450500D01*
X156206521Y-44450500D01*
X156213471Y-44450694D01*
G37*
%TD.AperFunction*%
%TD*%
M02*
