%TF.GenerationSoftware,KiCad,Pcbnew,7.0.2*%
%TF.CreationDate,2024-03-26T11:17:04+09:00*%
%TF.ProjectId,dual_arduino_macplus_adapter,6475616c-5f61-4726-9475-696e6f5f6d61,rev?*%
%TF.SameCoordinates,Original*%
%TF.FileFunction,Legend,Top*%
%TF.FilePolarity,Positive*%
%FSLAX46Y46*%
G04 Gerber Fmt 4.6, Leading zero omitted, Abs format (unit mm)*
G04 Created by KiCad (PCBNEW 7.0.2) date 2024-03-26 11:17:04*
%MOMM*%
%LPD*%
G01*
G04 APERTURE LIST*
%ADD10C,0.150000*%
%ADD11C,0.200000*%
%ADD12C,0.203000*%
%ADD13C,0.120000*%
G04 APERTURE END LIST*
D10*
G36*
X148011277Y-71186859D02*
G01*
X153950774Y-71186859D01*
X154025753Y-71189080D01*
X154099381Y-71194644D01*
X154171657Y-71203552D01*
X154242583Y-71215802D01*
X154312158Y-71231395D01*
X154380382Y-71250332D01*
X154447255Y-71272611D01*
X154512777Y-71298234D01*
X154576948Y-71327200D01*
X154639768Y-71359508D01*
X154701237Y-71395160D01*
X154761355Y-71434155D01*
X154820122Y-71476493D01*
X154877538Y-71522174D01*
X154933603Y-71571198D01*
X154988318Y-71623565D01*
X155040153Y-71677770D01*
X155088679Y-71733406D01*
X155133896Y-71790473D01*
X155175805Y-71848971D01*
X155214405Y-71908900D01*
X155249696Y-71970261D01*
X155281678Y-72033052D01*
X155310352Y-72097274D01*
X155335717Y-72162928D01*
X155357773Y-72230013D01*
X155376521Y-72298529D01*
X155391960Y-72368476D01*
X155404090Y-72439854D01*
X155412911Y-72512663D01*
X155418424Y-72586903D01*
X155420628Y-72662575D01*
X155420628Y-72719727D01*
X154238004Y-72719727D01*
X154238004Y-72665505D01*
X154232600Y-72606246D01*
X154213602Y-72545053D01*
X154180925Y-72489656D01*
X154151542Y-72455945D01*
X154106021Y-72418118D01*
X154049336Y-72388481D01*
X153986855Y-72372523D01*
X153941981Y-72369483D01*
X148011277Y-72369483D01*
X148011277Y-71186859D01*
G37*
G36*
X153920000Y-68988674D02*
G01*
X152737376Y-68988674D01*
X152737376Y-69577787D01*
X153920000Y-69577787D01*
X153920000Y-70760411D01*
X149388806Y-70760411D01*
X149313301Y-70758723D01*
X149239192Y-70753656D01*
X149166480Y-70745213D01*
X149095165Y-70733392D01*
X149025247Y-70718193D01*
X148956725Y-70699618D01*
X148889601Y-70677664D01*
X148823872Y-70652334D01*
X148759541Y-70623626D01*
X148696607Y-70591540D01*
X148635069Y-70556077D01*
X148574928Y-70517237D01*
X148516184Y-70475019D01*
X148458836Y-70429424D01*
X148402886Y-70380451D01*
X148348332Y-70328101D01*
X148296159Y-70273175D01*
X148247353Y-70216841D01*
X148201912Y-70159099D01*
X148159837Y-70099948D01*
X148121129Y-70039389D01*
X148085786Y-69977422D01*
X148053809Y-69914047D01*
X148025198Y-69849263D01*
X147999954Y-69783072D01*
X147978075Y-69715472D01*
X147959562Y-69646463D01*
X147944415Y-69576047D01*
X147932634Y-69504223D01*
X147924219Y-69430990D01*
X147919170Y-69356349D01*
X147917487Y-69280300D01*
X149069337Y-69280300D01*
X149074740Y-69340200D01*
X149093738Y-69401895D01*
X149126415Y-69457563D01*
X149155799Y-69491325D01*
X149201319Y-69529153D01*
X149258004Y-69558789D01*
X149320485Y-69574748D01*
X149365359Y-69577787D01*
X151554752Y-69577787D01*
X151554752Y-68988674D01*
X149365359Y-68988674D01*
X149306099Y-68994077D01*
X149244907Y-69013075D01*
X149189510Y-69045752D01*
X149155799Y-69075136D01*
X149117971Y-69120382D01*
X149088335Y-69176100D01*
X149072376Y-69236920D01*
X149069337Y-69280300D01*
X147917487Y-69280300D01*
X147919170Y-69204788D01*
X147924219Y-69130663D01*
X147932634Y-69057922D01*
X147944415Y-68986567D01*
X147959562Y-68916597D01*
X147978075Y-68848013D01*
X147999954Y-68780813D01*
X148025198Y-68715000D01*
X148053809Y-68650571D01*
X148085786Y-68587528D01*
X148121129Y-68525870D01*
X148159837Y-68465597D01*
X148201912Y-68406710D01*
X148247353Y-68349208D01*
X148296159Y-68293091D01*
X148348332Y-68238360D01*
X148402886Y-68185832D01*
X148458836Y-68136693D01*
X148516184Y-68090944D01*
X148574928Y-68048583D01*
X148635069Y-68009611D01*
X148696607Y-67974028D01*
X148759541Y-67941834D01*
X148823872Y-67913028D01*
X148889601Y-67887612D01*
X148956725Y-67865584D01*
X149025247Y-67846945D01*
X149095165Y-67831695D01*
X149166480Y-67819834D01*
X149239192Y-67811362D01*
X149313301Y-67806279D01*
X149388806Y-67804584D01*
X153920000Y-67804584D01*
X153920000Y-68988674D01*
G37*
G36*
X148011277Y-64435498D02*
G01*
X153920000Y-64435498D01*
X153920000Y-65613726D01*
X151836120Y-65613726D01*
X150449797Y-66207236D01*
X153920000Y-66207236D01*
X153920000Y-67385464D01*
X148011277Y-67385464D01*
X148011277Y-66207236D01*
X149426908Y-65613726D01*
X148011277Y-65613726D01*
X148011277Y-64435498D01*
G37*
G36*
X152466266Y-61107445D02*
G01*
X153920000Y-60900816D01*
X153920000Y-62083440D01*
X152494110Y-62285673D01*
X152439888Y-62294466D01*
X152380628Y-62307655D01*
X152325949Y-62331102D01*
X152275848Y-62364808D01*
X152230327Y-62408771D01*
X152192500Y-62459788D01*
X152165481Y-62513185D01*
X152148003Y-62576104D01*
X152143866Y-62627124D01*
X152143866Y-62883579D01*
X153920000Y-62883579D01*
X153920000Y-64066203D01*
X148011277Y-64066203D01*
X148011277Y-62883579D01*
X150965638Y-62883579D01*
X150965638Y-62713586D01*
X150960234Y-62653594D01*
X150944023Y-62596716D01*
X150917003Y-62542952D01*
X150879176Y-62492302D01*
X150833930Y-62447698D01*
X150784654Y-62413534D01*
X150724401Y-62387581D01*
X150674012Y-62376531D01*
X148011277Y-62001374D01*
X148011277Y-60818750D01*
X150675478Y-61193907D01*
X150760473Y-61208436D01*
X150843999Y-61227292D01*
X150926058Y-61250476D01*
X151006648Y-61277988D01*
X151085770Y-61309827D01*
X151163423Y-61345994D01*
X151239608Y-61386489D01*
X151314325Y-61431311D01*
X151363321Y-61463597D01*
X151411664Y-61497807D01*
X151459354Y-61533939D01*
X151506392Y-61571995D01*
X151557940Y-61524855D01*
X151610370Y-61480152D01*
X151663682Y-61437889D01*
X151717875Y-61398064D01*
X151772950Y-61360678D01*
X151828907Y-61325730D01*
X151885745Y-61293221D01*
X151943464Y-61263150D01*
X152002065Y-61235518D01*
X152061548Y-61210325D01*
X152121912Y-61187570D01*
X152183158Y-61167254D01*
X152245285Y-61149377D01*
X152308294Y-61133938D01*
X152372185Y-61120938D01*
X152436957Y-61110376D01*
X152466266Y-61107445D01*
G37*
G36*
X143490244Y-74295882D02*
G01*
X143490244Y-74891835D01*
X146640000Y-74891835D01*
X146640000Y-75678297D01*
X143490244Y-75678297D01*
X143490244Y-76263503D01*
X142700851Y-76263503D01*
X142700851Y-74295882D01*
X143490244Y-74295882D01*
G37*
G36*
X143263586Y-72257920D02*
G01*
X146640000Y-72257920D01*
X146640000Y-73046336D01*
X145873077Y-73046336D01*
X145873077Y-73439078D01*
X146640000Y-73439078D01*
X146640000Y-74228471D01*
X143263586Y-74228471D01*
X143263586Y-73439078D01*
X145102247Y-73439078D01*
X145102247Y-73046336D01*
X143263586Y-73046336D01*
X143263586Y-72257920D01*
G37*
G36*
X144048094Y-71195952D02*
G01*
X144677264Y-71195952D01*
X144677264Y-70407536D01*
X145461772Y-70407536D01*
X145461772Y-71195952D01*
X145855491Y-71195952D01*
X145855491Y-70250244D01*
X146640000Y-70250244D01*
X146640000Y-71984368D01*
X143263586Y-71984368D01*
X143263586Y-70250244D01*
X144048094Y-70250244D01*
X144048094Y-71195952D01*
G37*
D11*
X139874190Y-90929047D02*
X138274190Y-90929047D01*
X139874190Y-90014761D02*
X138959904Y-90700476D01*
X138274190Y-90014761D02*
X139188476Y-90929047D01*
X139798000Y-88719523D02*
X139874190Y-88871904D01*
X139874190Y-88871904D02*
X139874190Y-89176666D01*
X139874190Y-89176666D02*
X139798000Y-89329047D01*
X139798000Y-89329047D02*
X139645619Y-89405238D01*
X139645619Y-89405238D02*
X139036095Y-89405238D01*
X139036095Y-89405238D02*
X138883714Y-89329047D01*
X138883714Y-89329047D02*
X138807523Y-89176666D01*
X138807523Y-89176666D02*
X138807523Y-88871904D01*
X138807523Y-88871904D02*
X138883714Y-88719523D01*
X138883714Y-88719523D02*
X139036095Y-88643333D01*
X139036095Y-88643333D02*
X139188476Y-88643333D01*
X139188476Y-88643333D02*
X139340857Y-89405238D01*
X138807523Y-88109999D02*
X139874190Y-87729047D01*
X138807523Y-87348094D02*
X139874190Y-87729047D01*
X139874190Y-87729047D02*
X140255142Y-87881428D01*
X140255142Y-87881428D02*
X140331333Y-87957618D01*
X140331333Y-87957618D02*
X140407523Y-88109999D01*
X139874190Y-86738570D02*
X138274190Y-86738570D01*
X138883714Y-86738570D02*
X138807523Y-86586189D01*
X138807523Y-86586189D02*
X138807523Y-86281427D01*
X138807523Y-86281427D02*
X138883714Y-86129046D01*
X138883714Y-86129046D02*
X138959904Y-86052856D01*
X138959904Y-86052856D02*
X139112285Y-85976665D01*
X139112285Y-85976665D02*
X139569428Y-85976665D01*
X139569428Y-85976665D02*
X139721809Y-86052856D01*
X139721809Y-86052856D02*
X139798000Y-86129046D01*
X139798000Y-86129046D02*
X139874190Y-86281427D01*
X139874190Y-86281427D02*
X139874190Y-86586189D01*
X139874190Y-86586189D02*
X139798000Y-86738570D01*
X139874190Y-85062380D02*
X139798000Y-85214761D01*
X139798000Y-85214761D02*
X139721809Y-85290951D01*
X139721809Y-85290951D02*
X139569428Y-85367142D01*
X139569428Y-85367142D02*
X139112285Y-85367142D01*
X139112285Y-85367142D02*
X138959904Y-85290951D01*
X138959904Y-85290951D02*
X138883714Y-85214761D01*
X138883714Y-85214761D02*
X138807523Y-85062380D01*
X138807523Y-85062380D02*
X138807523Y-84833808D01*
X138807523Y-84833808D02*
X138883714Y-84681427D01*
X138883714Y-84681427D02*
X138959904Y-84605237D01*
X138959904Y-84605237D02*
X139112285Y-84529046D01*
X139112285Y-84529046D02*
X139569428Y-84529046D01*
X139569428Y-84529046D02*
X139721809Y-84605237D01*
X139721809Y-84605237D02*
X139798000Y-84681427D01*
X139798000Y-84681427D02*
X139874190Y-84833808D01*
X139874190Y-84833808D02*
X139874190Y-85062380D01*
X139874190Y-83157618D02*
X139036095Y-83157618D01*
X139036095Y-83157618D02*
X138883714Y-83233808D01*
X138883714Y-83233808D02*
X138807523Y-83386189D01*
X138807523Y-83386189D02*
X138807523Y-83690951D01*
X138807523Y-83690951D02*
X138883714Y-83843332D01*
X139798000Y-83157618D02*
X139874190Y-83309999D01*
X139874190Y-83309999D02*
X139874190Y-83690951D01*
X139874190Y-83690951D02*
X139798000Y-83843332D01*
X139798000Y-83843332D02*
X139645619Y-83919523D01*
X139645619Y-83919523D02*
X139493238Y-83919523D01*
X139493238Y-83919523D02*
X139340857Y-83843332D01*
X139340857Y-83843332D02*
X139264666Y-83690951D01*
X139264666Y-83690951D02*
X139264666Y-83309999D01*
X139264666Y-83309999D02*
X139188476Y-83157618D01*
X139874190Y-82395713D02*
X138807523Y-82395713D01*
X139112285Y-82395713D02*
X138959904Y-82319523D01*
X138959904Y-82319523D02*
X138883714Y-82243332D01*
X138883714Y-82243332D02*
X138807523Y-82090951D01*
X138807523Y-82090951D02*
X138807523Y-81938570D01*
X139874190Y-80719523D02*
X138274190Y-80719523D01*
X139798000Y-80719523D02*
X139874190Y-80871904D01*
X139874190Y-80871904D02*
X139874190Y-81176666D01*
X139874190Y-81176666D02*
X139798000Y-81329047D01*
X139798000Y-81329047D02*
X139721809Y-81405237D01*
X139721809Y-81405237D02*
X139569428Y-81481428D01*
X139569428Y-81481428D02*
X139112285Y-81481428D01*
X139112285Y-81481428D02*
X138959904Y-81405237D01*
X138959904Y-81405237D02*
X138883714Y-81329047D01*
X138883714Y-81329047D02*
X138807523Y-81176666D01*
X138807523Y-81176666D02*
X138807523Y-80871904D01*
X138807523Y-80871904D02*
X138883714Y-80719523D01*
D12*
X96764761Y-81756190D02*
X98764761Y-81756190D01*
X98764761Y-81756190D02*
X97336190Y-82422857D01*
X97336190Y-82422857D02*
X98764761Y-83089523D01*
X98764761Y-83089523D02*
X96764761Y-83089523D01*
X96764761Y-84327618D02*
X96860000Y-84137142D01*
X96860000Y-84137142D02*
X96955238Y-84041904D01*
X96955238Y-84041904D02*
X97145714Y-83946666D01*
X97145714Y-83946666D02*
X97717142Y-83946666D01*
X97717142Y-83946666D02*
X97907619Y-84041904D01*
X97907619Y-84041904D02*
X98002857Y-84137142D01*
X98002857Y-84137142D02*
X98098095Y-84327618D01*
X98098095Y-84327618D02*
X98098095Y-84613333D01*
X98098095Y-84613333D02*
X98002857Y-84803809D01*
X98002857Y-84803809D02*
X97907619Y-84899047D01*
X97907619Y-84899047D02*
X97717142Y-84994285D01*
X97717142Y-84994285D02*
X97145714Y-84994285D01*
X97145714Y-84994285D02*
X96955238Y-84899047D01*
X96955238Y-84899047D02*
X96860000Y-84803809D01*
X96860000Y-84803809D02*
X96764761Y-84613333D01*
X96764761Y-84613333D02*
X96764761Y-84327618D01*
X98098095Y-86708571D02*
X96764761Y-86708571D01*
X98098095Y-85851428D02*
X97050476Y-85851428D01*
X97050476Y-85851428D02*
X96860000Y-85946666D01*
X96860000Y-85946666D02*
X96764761Y-86137142D01*
X96764761Y-86137142D02*
X96764761Y-86422857D01*
X96764761Y-86422857D02*
X96860000Y-86613333D01*
X96860000Y-86613333D02*
X96955238Y-86708571D01*
X96860000Y-87565714D02*
X96764761Y-87756190D01*
X96764761Y-87756190D02*
X96764761Y-88137142D01*
X96764761Y-88137142D02*
X96860000Y-88327619D01*
X96860000Y-88327619D02*
X97050476Y-88422857D01*
X97050476Y-88422857D02*
X97145714Y-88422857D01*
X97145714Y-88422857D02*
X97336190Y-88327619D01*
X97336190Y-88327619D02*
X97431428Y-88137142D01*
X97431428Y-88137142D02*
X97431428Y-87851428D01*
X97431428Y-87851428D02*
X97526666Y-87660952D01*
X97526666Y-87660952D02*
X97717142Y-87565714D01*
X97717142Y-87565714D02*
X97812380Y-87565714D01*
X97812380Y-87565714D02*
X98002857Y-87660952D01*
X98002857Y-87660952D02*
X98098095Y-87851428D01*
X98098095Y-87851428D02*
X98098095Y-88137142D01*
X98098095Y-88137142D02*
X98002857Y-88327619D01*
X96860000Y-90041905D02*
X96764761Y-89851429D01*
X96764761Y-89851429D02*
X96764761Y-89470476D01*
X96764761Y-89470476D02*
X96860000Y-89280000D01*
X96860000Y-89280000D02*
X97050476Y-89184762D01*
X97050476Y-89184762D02*
X97812380Y-89184762D01*
X97812380Y-89184762D02*
X98002857Y-89280000D01*
X98002857Y-89280000D02*
X98098095Y-89470476D01*
X98098095Y-89470476D02*
X98098095Y-89851429D01*
X98098095Y-89851429D02*
X98002857Y-90041905D01*
X98002857Y-90041905D02*
X97812380Y-90137143D01*
X97812380Y-90137143D02*
X97621904Y-90137143D01*
X97621904Y-90137143D02*
X97431428Y-89184762D01*
D10*
%TO.C,J4*%
X139366666Y-50262619D02*
X139366666Y-50976904D01*
X139366666Y-50976904D02*
X139319047Y-51119761D01*
X139319047Y-51119761D02*
X139223809Y-51215000D01*
X139223809Y-51215000D02*
X139080952Y-51262619D01*
X139080952Y-51262619D02*
X138985714Y-51262619D01*
X140271428Y-50595952D02*
X140271428Y-51262619D01*
X140033333Y-50215000D02*
X139795238Y-50929285D01*
X139795238Y-50929285D02*
X140414285Y-50929285D01*
%TO.C,J3*%
X121382619Y-82883333D02*
X122096904Y-82883333D01*
X122096904Y-82883333D02*
X122239761Y-82930952D01*
X122239761Y-82930952D02*
X122335000Y-83026190D01*
X122335000Y-83026190D02*
X122382619Y-83169047D01*
X122382619Y-83169047D02*
X122382619Y-83264285D01*
X121382619Y-82502380D02*
X121382619Y-81883333D01*
X121382619Y-81883333D02*
X121763571Y-82216666D01*
X121763571Y-82216666D02*
X121763571Y-82073809D01*
X121763571Y-82073809D02*
X121811190Y-81978571D01*
X121811190Y-81978571D02*
X121858809Y-81930952D01*
X121858809Y-81930952D02*
X121954047Y-81883333D01*
X121954047Y-81883333D02*
X122192142Y-81883333D01*
X122192142Y-81883333D02*
X122287380Y-81930952D01*
X122287380Y-81930952D02*
X122335000Y-81978571D01*
X122335000Y-81978571D02*
X122382619Y-82073809D01*
X122382619Y-82073809D02*
X122382619Y-82359523D01*
X122382619Y-82359523D02*
X122335000Y-82454761D01*
X122335000Y-82454761D02*
X122287380Y-82502380D01*
%TO.C,J2*%
X101062619Y-82883333D02*
X101776904Y-82883333D01*
X101776904Y-82883333D02*
X101919761Y-82930952D01*
X101919761Y-82930952D02*
X102015000Y-83026190D01*
X102015000Y-83026190D02*
X102062619Y-83169047D01*
X102062619Y-83169047D02*
X102062619Y-83264285D01*
X101157857Y-82454761D02*
X101110238Y-82407142D01*
X101110238Y-82407142D02*
X101062619Y-82311904D01*
X101062619Y-82311904D02*
X101062619Y-82073809D01*
X101062619Y-82073809D02*
X101110238Y-81978571D01*
X101110238Y-81978571D02*
X101157857Y-81930952D01*
X101157857Y-81930952D02*
X101253095Y-81883333D01*
X101253095Y-81883333D02*
X101348333Y-81883333D01*
X101348333Y-81883333D02*
X101491190Y-81930952D01*
X101491190Y-81930952D02*
X102062619Y-82502380D01*
X102062619Y-82502380D02*
X102062619Y-81883333D01*
%TO.C,J1*%
X120316666Y-46452619D02*
X120316666Y-47166904D01*
X120316666Y-47166904D02*
X120269047Y-47309761D01*
X120269047Y-47309761D02*
X120173809Y-47405000D01*
X120173809Y-47405000D02*
X120030952Y-47452619D01*
X120030952Y-47452619D02*
X119935714Y-47452619D01*
X121316666Y-47452619D02*
X120745238Y-47452619D01*
X121030952Y-47452619D02*
X121030952Y-46452619D01*
X121030952Y-46452619D02*
X120935714Y-46595476D01*
X120935714Y-46595476D02*
X120840476Y-46690714D01*
X120840476Y-46690714D02*
X120745238Y-46738333D01*
%TO.C,A1*%
X136066904Y-68024285D02*
X136066904Y-67548095D01*
X136352619Y-68119523D02*
X135352619Y-67786190D01*
X135352619Y-67786190D02*
X136352619Y-67452857D01*
X136352619Y-66595714D02*
X136352619Y-67167142D01*
X136352619Y-66881428D02*
X135352619Y-66881428D01*
X135352619Y-66881428D02*
X135495476Y-66976666D01*
X135495476Y-66976666D02*
X135590714Y-67071904D01*
X135590714Y-67071904D02*
X135638333Y-67167142D01*
D13*
%TO.C,J4*%
X129080000Y-49560000D02*
X129580000Y-50060000D01*
X142090000Y-54960000D02*
X129690000Y-54960000D01*
X129080000Y-50560000D02*
X129080000Y-49560000D01*
X129690000Y-54960000D02*
X129690000Y-49490000D01*
X142090000Y-41560000D02*
X142090000Y-46030000D01*
X129690000Y-41560000D02*
X142090000Y-41560000D01*
X129690000Y-41560000D02*
X129690000Y-46030000D01*
X142090000Y-49490000D02*
X142090000Y-54960000D01*
X129580000Y-50060000D02*
X129080000Y-50560000D01*
%TO.C,J3*%
X136400000Y-80380000D02*
X136400000Y-93380000D01*
X120200000Y-80380000D02*
X120200000Y-93380000D01*
X120200000Y-80380000D02*
X136400000Y-80380000D01*
X120200000Y-93380000D02*
X136400000Y-93380000D01*
%TO.C,J2*%
X116460000Y-80380000D02*
X116460000Y-93380000D01*
X100260000Y-80380000D02*
X100260000Y-93380000D01*
X100260000Y-80380000D02*
X116460000Y-80380000D01*
X100260000Y-93380000D02*
X116460000Y-93380000D01*
%TO.C,J1*%
X105875000Y-54321325D02*
X106125000Y-54754338D01*
X126900000Y-43380000D02*
X126900000Y-53860000D01*
X106125000Y-54754338D02*
X105625000Y-54754338D01*
X105625000Y-54754338D02*
X105875000Y-54321325D01*
X126900000Y-53860000D02*
X95930000Y-53860000D01*
X95930000Y-53860000D02*
X95930000Y-43380000D01*
%TO.C,A1*%
X135890000Y-60960000D02*
X135890000Y-58290000D01*
X92580000Y-71250000D02*
X92580000Y-63370000D01*
X95120000Y-76330000D02*
X138560000Y-76330000D01*
X92580000Y-63370000D02*
X103000000Y-63370000D01*
X103000000Y-71250000D02*
X92580000Y-71250000D01*
X95120000Y-76330000D02*
X95120000Y-71250000D01*
X133350000Y-58290000D02*
X95120000Y-58290000D01*
X97790000Y-60960000D02*
X97790000Y-58290000D01*
X135890000Y-73660000D02*
X97790000Y-73660000D01*
X133350000Y-60960000D02*
X135890000Y-60960000D01*
X97790000Y-73660000D02*
X97790000Y-76330000D01*
X135890000Y-73660000D02*
X135890000Y-76330000D01*
X133350000Y-60960000D02*
X133350000Y-58290000D01*
X138560000Y-76330000D02*
X138560000Y-58290000D01*
X95120000Y-58290000D02*
X95120000Y-63370000D01*
X138560000Y-58290000D02*
X135890000Y-58290000D01*
X103000000Y-63370000D02*
X103000000Y-71250000D01*
X133350000Y-60960000D02*
X97790000Y-60960000D01*
%TD*%
M02*
