M48
; DRILL file {KiCad 7.0.2} date Tue Mar 26 11:17:00 2024
; FORMAT={-:-/ absolute / inch / decimal}
; #@! TF.CreationDate,2024-03-26T11:17:00+09:00
; #@! TF.GenerationSoftware,Kicad,Pcbnew,7.0.2
; #@! TF.FileFunction,Plated,1,2,PTH
FMAT,2
INCH
; #@! TA.AperFunction,Plated,PTH,ComponentDrill
T1C0.0315
; #@! TA.AperFunction,Plated,PTH,ComponentDrill
T2C0.0354
; #@! TA.AperFunction,Plated,PTH,ComponentDrill
T3C0.0394
; #@! TA.AperFunction,Plated,PTH,ComponentDrill
T4C0.1260
%
G90
G05
T1
X4.1323Y-3.2276
X4.1323Y-3.3378
X4.215Y-3.3378
X4.3173Y-3.3378
X4.4Y-3.2276
X4.4Y-3.3378
X4.9173Y-3.2276
X4.9173Y-3.3378
X5.0Y-3.3378
X5.1024Y-3.3378
X5.185Y-3.2276
X5.185Y-3.3378
T2
X5.2898Y-1.9709
X5.3299Y-2.0709
X5.3701Y-1.9709
X5.4102Y-2.0709
T3
X3.9Y-2.35
X3.9Y-2.95
X4.0Y-2.35
X4.0Y-2.95
X4.1Y-2.35
X4.1Y-2.95
X4.1683Y-2.0118
X4.2Y-2.35
X4.2Y-2.95
X4.2228Y-1.9
X4.2774Y-2.0118
X4.3Y-2.35
X4.3Y-2.95
X4.3319Y-1.9
X4.3864Y-2.0118
X4.4Y-2.35
X4.4Y-2.95
X4.4409Y-1.9
X4.4955Y-2.0118
X4.5Y-2.35
X4.5Y-2.95
X4.55Y-1.9
X4.6Y-2.35
X4.6Y-2.95
X4.6045Y-2.0118
X4.7Y-2.35
X4.7Y-2.95
X4.8Y-2.35
X4.8Y-2.95
X4.9Y-2.35
X4.9Y-2.95
X5.0Y-2.35
X5.0Y-2.95
X5.1Y-2.35
X5.1Y-2.95
X5.2Y-2.35
X5.2Y-2.95
X5.3Y-2.35
X5.3Y-2.95
T4
X3.8943Y-2.0
X4.8785Y-2.0
T3
G00X3.9965Y-3.4205
M15
G01X3.9965Y-3.4795
M16
G05
G00X4.2268Y-3.4815
M15
G01X4.3055Y-3.4815
M16
G05
G00X4.5358Y-3.4205
M15
G01X4.5358Y-3.4795
M16
G05
G00X4.7815Y-3.4205
M15
G01X4.7815Y-3.4795
M16
G05
G00X5.0118Y-3.4815
M15
G01X5.0906Y-3.4815
M16
G05
G00X5.3209Y-3.4205
M15
G01X5.3209Y-3.4795
M16
G05
T0
M30
