%TF.GenerationSoftware,KiCad,Pcbnew,(6.0.10)*%
%TF.CreationDate,2023-06-10T20:41:06+09:00*%
%TF.ProjectId,BaeRNG_V1,42616552-4e47-45f5-9631-2e6b69636164,rev?*%
%TF.SameCoordinates,Original*%
%TF.FileFunction,Copper,L2,Bot*%
%TF.FilePolarity,Positive*%
%FSLAX46Y46*%
G04 Gerber Fmt 4.6, Leading zero omitted, Abs format (unit mm)*
G04 Created by KiCad (PCBNEW (6.0.10)) date 2023-06-10 20:41:06*
%MOMM*%
%LPD*%
G01*
G04 APERTURE LIST*
%TA.AperFunction,ComponentPad*%
%ADD10C,3.000000*%
%TD*%
%TA.AperFunction,ComponentPad*%
%ADD11R,3.000000X3.000000*%
%TD*%
%TA.AperFunction,ComponentPad*%
%ADD12C,1.500000*%
%TD*%
%TA.AperFunction,ComponentPad*%
%ADD13R,1.700000X1.700000*%
%TD*%
%TA.AperFunction,ComponentPad*%
%ADD14O,1.700000X1.700000*%
%TD*%
%TA.AperFunction,ComponentPad*%
%ADD15C,1.600000*%
%TD*%
%TA.AperFunction,ComponentPad*%
%ADD16R,1.600000X1.600000*%
%TD*%
%TA.AperFunction,ViaPad*%
%ADD17C,0.800000*%
%TD*%
%TA.AperFunction,ViaPad*%
%ADD18C,0.300000*%
%TD*%
%TA.AperFunction,Conductor*%
%ADD19C,0.250000*%
%TD*%
G04 APERTURE END LIST*
D10*
%TO.P,BT1,2,-*%
%TO.N,GND*%
X106060001Y-121920001D03*
D11*
%TO.P,BT1,1,+*%
%TO.N,Net-(BT1-Pad1)*%
X126550001Y-121920001D03*
%TD*%
D12*
%TO.P,Y1,1,1*%
%TO.N,Net-(U2-Pad8)*%
X157480000Y-118880000D03*
%TO.P,Y1,2,2*%
%TO.N,Net-(U2-Pad7)*%
X157480000Y-123780000D03*
%TD*%
D13*
%TO.P,J1,1,Pin_1*%
%TO.N,Net-(BT1-Pad1)*%
X134620000Y-129510000D03*
D14*
%TO.P,J1,2,Pin_2*%
%TO.N,GND*%
X134620000Y-126970000D03*
%TO.P,J1,3,Pin_3*%
%TO.N,Net-(J1-Pad3)*%
X134620000Y-124430000D03*
%TO.P,J1,4,Pin_4*%
%TO.N,Net-(J1-Pad4)*%
X134620000Y-121890000D03*
%TO.P,J1,5,Pin_5*%
%TO.N,Net-(J1-Pad5)*%
X134620000Y-119350000D03*
%TO.P,J1,6,Pin_6*%
%TO.N,Net-(J1-Pad6)*%
X134620000Y-116810000D03*
%TD*%
D15*
%TO.P,U1,10,G*%
%TO.N,Net-(U1-Pad10)*%
X119380000Y-71120000D03*
%TO.P,U1,9,F*%
%TO.N,Net-(U1-Pad9)*%
X121920000Y-71120000D03*
%TO.P,U1,8,CC*%
%TO.N,GND*%
X124460000Y-71120000D03*
%TO.P,U1,7,A*%
%TO.N,Net-(U1-Pad7)*%
X127000000Y-71120000D03*
%TO.P,U1,6,B*%
%TO.N,Net-(U1-Pad6)*%
X129540000Y-71120000D03*
%TO.P,U1,5,DP*%
%TO.N,unconnected-(U1-Pad5)*%
X129540000Y-86360000D03*
%TO.P,U1,4,C*%
%TO.N,Net-(U1-Pad4)*%
X127000000Y-86360000D03*
%TO.P,U1,3,CC*%
%TO.N,GND*%
X124460000Y-86360000D03*
%TO.P,U1,2,D*%
%TO.N,Net-(U1-Pad2)*%
X121920000Y-86360000D03*
D16*
%TO.P,U1,1,E*%
%TO.N,Net-(U1-Pad1)*%
X119380000Y-86360000D03*
%TD*%
D17*
%TO.N,Net-(BT1-Pad1)*%
X125222000Y-111760000D03*
%TO.N,Net-(R1-Pad2)*%
X151130000Y-124206000D03*
X131318000Y-108712000D03*
%TO.N,GND*%
X152400000Y-121920000D03*
D18*
%TO.N,Net-(U1-Pad1)*%
X146812000Y-114367000D03*
%TO.N,Net-(U1-Pad2)*%
X145796000Y-113538000D03*
%TO.N,Net-(U1-Pad4)*%
X145034000Y-113030000D03*
%TO.N,Net-(U1-Pad6)*%
X144526000Y-114841500D03*
%TO.N,Net-(U1-Pad7)*%
X143764000Y-115316000D03*
D17*
%TO.N,Net-(U1-Pad9)*%
X153162000Y-117094000D03*
%TO.N,Net-(U1-Pad10)*%
X153924000Y-123444000D03*
%TO.N,Net-(J1-Pad3)*%
X141224000Y-128270000D03*
%TO.N,Net-(J1-Pad4)*%
X136906000Y-118110000D03*
%TO.N,Net-(J1-Pad6)*%
X138938000Y-118618000D03*
%TD*%
D19*
%TO.N,Net-(BT1-Pad1)*%
X126550001Y-113088001D02*
X126550001Y-121920001D01*
X125222000Y-111760000D02*
X126550001Y-113088001D01*
%TO.N,Net-(R1-Pad2)*%
X139700000Y-116332000D02*
X138938000Y-116332000D01*
X151130000Y-116840000D02*
X150622000Y-116332000D01*
X151130000Y-124206000D02*
X151130000Y-116840000D01*
X150622000Y-116332000D02*
X139700000Y-116332000D01*
X138938000Y-116332000D02*
X131318000Y-108712000D01*
%TO.N,GND*%
X139954000Y-130048000D02*
X150114000Y-130048000D01*
X152400000Y-127762000D02*
X152400000Y-121920000D01*
X150368000Y-129794000D02*
X152400000Y-127762000D01*
X136876000Y-126970000D02*
X139954000Y-130048000D01*
X150114000Y-130048000D02*
X150368000Y-129794000D01*
X134620000Y-126970000D02*
X136876000Y-126970000D01*
X106060001Y-91805999D02*
X106060001Y-121920001D01*
X116586000Y-81280000D02*
X106060001Y-91805999D01*
X124460000Y-71120000D02*
X124460000Y-77470000D01*
X124460000Y-77470000D02*
X120650000Y-81280000D01*
X120650000Y-81280000D02*
X116586000Y-81280000D01*
X124460000Y-71120000D02*
X124460000Y-86360000D01*
%TO.N,Net-(U1-Pad1)*%
X144847000Y-114367000D02*
X119380000Y-88900000D01*
X146812000Y-114367000D02*
X144847000Y-114367000D01*
X119380000Y-88900000D02*
X119380000Y-86360000D01*
%TO.N,Net-(U1-Pad2)*%
X144870248Y-113538000D02*
X121920000Y-90587752D01*
X121920000Y-90587752D02*
X121920000Y-86360000D01*
X145796000Y-113538000D02*
X144870248Y-113538000D01*
%TO.N,Net-(U1-Pad4)*%
X127000000Y-94996000D02*
X127000000Y-86360000D01*
X145034000Y-113030000D02*
X127000000Y-94996000D01*
%TO.N,Net-(U1-Pad6)*%
X149826500Y-114841500D02*
X144526000Y-114841500D01*
X145542000Y-62992000D02*
X150622000Y-68072000D01*
X150622000Y-114046000D02*
X149826500Y-114841500D01*
X133350000Y-62992000D02*
X145542000Y-62992000D01*
X132842000Y-63500000D02*
X133350000Y-62992000D01*
X129540000Y-66802000D02*
X132842000Y-63500000D01*
X129540000Y-71120000D02*
X129540000Y-66802000D01*
X150622000Y-68072000D02*
X150622000Y-114046000D01*
%TO.N,Net-(U1-Pad7)*%
X127000000Y-67056000D02*
X127000000Y-71120000D01*
X132334000Y-61722000D02*
X127000000Y-67056000D01*
X146050000Y-61722000D02*
X132334000Y-61722000D01*
X151892000Y-67564000D02*
X146050000Y-61722000D01*
X151892000Y-115062000D02*
X151892000Y-67564000D01*
X151638000Y-115316000D02*
X151892000Y-115062000D01*
X143764000Y-115316000D02*
X151638000Y-115316000D01*
%TO.N,Net-(U1-Pad9)*%
X121920000Y-65532000D02*
X121920000Y-71120000D01*
X127000000Y-60452000D02*
X121920000Y-65532000D01*
X153162000Y-66548000D02*
X153162000Y-117094000D01*
X147066000Y-60452000D02*
X153162000Y-66548000D01*
X127000000Y-60452000D02*
X147066000Y-60452000D01*
%TO.N,Net-(U1-Pad10)*%
X147320000Y-59436000D02*
X125730000Y-59436000D01*
X125730000Y-59436000D02*
X119380000Y-65786000D01*
X153924000Y-66040000D02*
X147320000Y-59436000D01*
X153924000Y-123444000D02*
X153924000Y-66040000D01*
X119380000Y-65786000D02*
X119380000Y-71120000D01*
%TO.N,Net-(J1-Pad3)*%
X139700000Y-128270000D02*
X141224000Y-128270000D01*
X138938000Y-125730000D02*
X138938000Y-127508000D01*
X138430000Y-125222000D02*
X138938000Y-125730000D01*
X137638000Y-124430000D02*
X138430000Y-125222000D01*
X134620000Y-124430000D02*
X137638000Y-124430000D01*
X138938000Y-127508000D02*
X139700000Y-128270000D01*
%TO.N,Net-(J1-Pad4)*%
X135412000Y-121890000D02*
X134620000Y-121890000D01*
X136906000Y-120396000D02*
X135412000Y-121890000D01*
X136906000Y-118110000D02*
X136906000Y-120396000D01*
%TO.N,Net-(J1-Pad6)*%
X137130000Y-116810000D02*
X134620000Y-116810000D01*
X138938000Y-118618000D02*
X137130000Y-116810000D01*
%TD*%
%TA.AperFunction,Conductor*%
%TO.N,GND*%
G36*
X125105527Y-58948502D02*
G01*
X125152020Y-59002158D01*
X125162124Y-59072432D01*
X125132630Y-59137012D01*
X125126501Y-59143595D01*
X121993419Y-62276676D01*
X118987747Y-65282348D01*
X118979461Y-65289888D01*
X118972982Y-65294000D01*
X118967557Y-65299777D01*
X118926357Y-65343651D01*
X118923602Y-65346493D01*
X118903865Y-65366230D01*
X118901385Y-65369427D01*
X118893682Y-65378447D01*
X118863414Y-65410679D01*
X118859595Y-65417625D01*
X118859593Y-65417628D01*
X118853652Y-65428434D01*
X118842801Y-65444953D01*
X118830386Y-65460959D01*
X118827241Y-65468228D01*
X118827238Y-65468232D01*
X118812826Y-65501537D01*
X118807609Y-65512187D01*
X118786305Y-65550940D01*
X118784334Y-65558615D01*
X118784334Y-65558616D01*
X118781267Y-65570562D01*
X118774863Y-65589266D01*
X118772670Y-65594335D01*
X118766819Y-65607855D01*
X118765580Y-65615678D01*
X118765577Y-65615688D01*
X118759901Y-65651524D01*
X118757495Y-65663144D01*
X118749080Y-65695920D01*
X118746500Y-65705970D01*
X118746500Y-65726224D01*
X118744949Y-65745934D01*
X118741780Y-65765943D01*
X118742526Y-65773835D01*
X118745941Y-65809961D01*
X118746500Y-65821819D01*
X118746500Y-69900606D01*
X118726498Y-69968727D01*
X118692771Y-70003819D01*
X118540211Y-70110643D01*
X118540208Y-70110645D01*
X118535700Y-70113802D01*
X118373802Y-70275700D01*
X118242477Y-70463251D01*
X118240154Y-70468233D01*
X118240151Y-70468238D01*
X118240034Y-70468489D01*
X118145716Y-70670757D01*
X118144294Y-70676065D01*
X118144293Y-70676067D01*
X118123019Y-70755461D01*
X118086457Y-70891913D01*
X118066502Y-71120000D01*
X118086457Y-71348087D01*
X118087881Y-71353400D01*
X118087881Y-71353402D01*
X118125025Y-71492022D01*
X118145716Y-71569243D01*
X118148039Y-71574224D01*
X118148039Y-71574225D01*
X118240151Y-71771762D01*
X118240154Y-71771767D01*
X118242477Y-71776749D01*
X118373802Y-71964300D01*
X118535700Y-72126198D01*
X118540208Y-72129355D01*
X118540211Y-72129357D01*
X118618389Y-72184098D01*
X118723251Y-72257523D01*
X118728233Y-72259846D01*
X118728238Y-72259849D01*
X118924765Y-72351490D01*
X118930757Y-72354284D01*
X118936065Y-72355706D01*
X118936067Y-72355707D01*
X119146598Y-72412119D01*
X119146600Y-72412119D01*
X119151913Y-72413543D01*
X119380000Y-72433498D01*
X119608087Y-72413543D01*
X119613400Y-72412119D01*
X119613402Y-72412119D01*
X119823933Y-72355707D01*
X119823935Y-72355706D01*
X119829243Y-72354284D01*
X119835235Y-72351490D01*
X120031762Y-72259849D01*
X120031767Y-72259846D01*
X120036749Y-72257523D01*
X120141611Y-72184098D01*
X120219789Y-72129357D01*
X120219792Y-72129355D01*
X120224300Y-72126198D01*
X120386198Y-71964300D01*
X120517523Y-71776749D01*
X120519846Y-71771767D01*
X120519849Y-71771762D01*
X120535805Y-71737543D01*
X120582722Y-71684258D01*
X120650999Y-71664797D01*
X120718959Y-71685339D01*
X120764195Y-71737543D01*
X120780151Y-71771762D01*
X120780154Y-71771767D01*
X120782477Y-71776749D01*
X120913802Y-71964300D01*
X121075700Y-72126198D01*
X121080208Y-72129355D01*
X121080211Y-72129357D01*
X121158389Y-72184098D01*
X121263251Y-72257523D01*
X121268233Y-72259846D01*
X121268238Y-72259849D01*
X121464765Y-72351490D01*
X121470757Y-72354284D01*
X121476065Y-72355706D01*
X121476067Y-72355707D01*
X121686598Y-72412119D01*
X121686600Y-72412119D01*
X121691913Y-72413543D01*
X121920000Y-72433498D01*
X122148087Y-72413543D01*
X122153400Y-72412119D01*
X122153402Y-72412119D01*
X122363933Y-72355707D01*
X122363935Y-72355706D01*
X122369243Y-72354284D01*
X122375235Y-72351490D01*
X122571762Y-72259849D01*
X122571767Y-72259846D01*
X122576749Y-72257523D01*
X122650243Y-72206062D01*
X123738493Y-72206062D01*
X123747789Y-72218077D01*
X123798994Y-72253931D01*
X123808489Y-72259414D01*
X124005947Y-72351490D01*
X124016239Y-72355236D01*
X124226688Y-72411625D01*
X124237481Y-72413528D01*
X124454525Y-72432517D01*
X124465475Y-72432517D01*
X124682519Y-72413528D01*
X124693312Y-72411625D01*
X124903761Y-72355236D01*
X124914053Y-72351490D01*
X125111511Y-72259414D01*
X125121006Y-72253931D01*
X125173048Y-72217491D01*
X125181424Y-72207012D01*
X125174356Y-72193566D01*
X124472812Y-71492022D01*
X124458868Y-71484408D01*
X124457035Y-71484539D01*
X124450420Y-71488790D01*
X123744923Y-72194287D01*
X123738493Y-72206062D01*
X122650243Y-72206062D01*
X122681611Y-72184098D01*
X122759789Y-72129357D01*
X122759792Y-72129355D01*
X122764300Y-72126198D01*
X122926198Y-71964300D01*
X123057523Y-71776749D01*
X123059846Y-71771767D01*
X123059849Y-71771762D01*
X123076081Y-71736951D01*
X123122998Y-71683666D01*
X123191275Y-71664205D01*
X123259235Y-71684747D01*
X123304471Y-71736951D01*
X123320586Y-71771511D01*
X123326069Y-71781006D01*
X123362509Y-71833048D01*
X123372988Y-71841424D01*
X123386434Y-71834356D01*
X124087978Y-71132812D01*
X124095592Y-71118868D01*
X124095461Y-71117035D01*
X124091210Y-71110420D01*
X123385713Y-70404923D01*
X123373938Y-70398493D01*
X123361923Y-70407789D01*
X123326069Y-70458994D01*
X123320586Y-70468489D01*
X123304471Y-70503049D01*
X123257554Y-70556334D01*
X123189277Y-70575795D01*
X123121317Y-70555253D01*
X123076081Y-70503049D01*
X123059849Y-70468238D01*
X123059846Y-70468233D01*
X123057523Y-70463251D01*
X122926198Y-70275700D01*
X122764300Y-70113802D01*
X122759792Y-70110645D01*
X122759789Y-70110643D01*
X122648887Y-70032988D01*
X123738576Y-70032988D01*
X123745644Y-70046434D01*
X124447188Y-70747978D01*
X124461132Y-70755592D01*
X124462965Y-70755461D01*
X124469580Y-70751210D01*
X125175077Y-70045713D01*
X125181507Y-70033938D01*
X125172211Y-70021923D01*
X125121006Y-69986069D01*
X125111511Y-69980586D01*
X124914053Y-69888510D01*
X124903761Y-69884764D01*
X124693312Y-69828375D01*
X124682519Y-69826472D01*
X124465475Y-69807483D01*
X124454525Y-69807483D01*
X124237481Y-69826472D01*
X124226688Y-69828375D01*
X124016239Y-69884764D01*
X124005947Y-69888510D01*
X123808489Y-69980586D01*
X123798994Y-69986069D01*
X123746952Y-70022509D01*
X123738576Y-70032988D01*
X122648887Y-70032988D01*
X122607229Y-70003819D01*
X122562901Y-69948362D01*
X122553500Y-69900606D01*
X122553500Y-65846594D01*
X122573502Y-65778473D01*
X122590405Y-65757499D01*
X127225500Y-61122405D01*
X127287812Y-61088379D01*
X127314595Y-61085500D01*
X131770406Y-61085500D01*
X131838527Y-61105502D01*
X131885020Y-61159158D01*
X131895124Y-61229432D01*
X131865630Y-61294012D01*
X131859501Y-61300595D01*
X126607747Y-66552348D01*
X126599461Y-66559888D01*
X126592982Y-66564000D01*
X126587557Y-66569777D01*
X126546357Y-66613651D01*
X126543602Y-66616493D01*
X126523865Y-66636230D01*
X126521385Y-66639427D01*
X126513682Y-66648447D01*
X126483414Y-66680679D01*
X126479595Y-66687625D01*
X126479593Y-66687628D01*
X126473652Y-66698434D01*
X126462801Y-66714953D01*
X126450386Y-66730959D01*
X126447241Y-66738228D01*
X126447238Y-66738232D01*
X126432826Y-66771537D01*
X126427609Y-66782187D01*
X126406305Y-66820940D01*
X126402487Y-66835812D01*
X126401267Y-66840562D01*
X126394863Y-66859266D01*
X126393423Y-66862595D01*
X126386819Y-66877855D01*
X126385580Y-66885678D01*
X126385577Y-66885688D01*
X126379901Y-66921524D01*
X126377495Y-66933144D01*
X126366500Y-66975970D01*
X126366500Y-66996224D01*
X126364949Y-67015934D01*
X126361780Y-67035943D01*
X126362526Y-67043835D01*
X126365941Y-67079961D01*
X126366500Y-67091819D01*
X126366500Y-69900606D01*
X126346498Y-69968727D01*
X126312771Y-70003819D01*
X126160211Y-70110643D01*
X126160208Y-70110645D01*
X126155700Y-70113802D01*
X125993802Y-70275700D01*
X125862477Y-70463251D01*
X125860154Y-70468233D01*
X125860151Y-70468238D01*
X125843919Y-70503049D01*
X125797002Y-70556334D01*
X125728725Y-70575795D01*
X125660765Y-70555253D01*
X125615529Y-70503049D01*
X125599414Y-70468489D01*
X125593931Y-70458994D01*
X125557491Y-70406952D01*
X125547012Y-70398576D01*
X125533566Y-70405644D01*
X124832022Y-71107188D01*
X124824408Y-71121132D01*
X124824539Y-71122965D01*
X124828790Y-71129580D01*
X125534287Y-71835077D01*
X125546062Y-71841507D01*
X125558077Y-71832211D01*
X125593931Y-71781006D01*
X125599414Y-71771511D01*
X125615529Y-71736951D01*
X125662446Y-71683666D01*
X125730723Y-71664205D01*
X125798683Y-71684747D01*
X125843919Y-71736951D01*
X125860151Y-71771762D01*
X125860154Y-71771767D01*
X125862477Y-71776749D01*
X125993802Y-71964300D01*
X126155700Y-72126198D01*
X126160208Y-72129355D01*
X126160211Y-72129357D01*
X126238389Y-72184098D01*
X126343251Y-72257523D01*
X126348233Y-72259846D01*
X126348238Y-72259849D01*
X126544765Y-72351490D01*
X126550757Y-72354284D01*
X126556065Y-72355706D01*
X126556067Y-72355707D01*
X126766598Y-72412119D01*
X126766600Y-72412119D01*
X126771913Y-72413543D01*
X127000000Y-72433498D01*
X127228087Y-72413543D01*
X127233400Y-72412119D01*
X127233402Y-72412119D01*
X127443933Y-72355707D01*
X127443935Y-72355706D01*
X127449243Y-72354284D01*
X127455235Y-72351490D01*
X127651762Y-72259849D01*
X127651767Y-72259846D01*
X127656749Y-72257523D01*
X127761611Y-72184098D01*
X127839789Y-72129357D01*
X127839792Y-72129355D01*
X127844300Y-72126198D01*
X128006198Y-71964300D01*
X128137523Y-71776749D01*
X128139846Y-71771767D01*
X128139849Y-71771762D01*
X128155805Y-71737543D01*
X128202722Y-71684258D01*
X128270999Y-71664797D01*
X128338959Y-71685339D01*
X128384195Y-71737543D01*
X128400151Y-71771762D01*
X128400154Y-71771767D01*
X128402477Y-71776749D01*
X128533802Y-71964300D01*
X128695700Y-72126198D01*
X128700208Y-72129355D01*
X128700211Y-72129357D01*
X128778389Y-72184098D01*
X128883251Y-72257523D01*
X128888233Y-72259846D01*
X128888238Y-72259849D01*
X129084765Y-72351490D01*
X129090757Y-72354284D01*
X129096065Y-72355706D01*
X129096067Y-72355707D01*
X129306598Y-72412119D01*
X129306600Y-72412119D01*
X129311913Y-72413543D01*
X129540000Y-72433498D01*
X129768087Y-72413543D01*
X129773400Y-72412119D01*
X129773402Y-72412119D01*
X129983933Y-72355707D01*
X129983935Y-72355706D01*
X129989243Y-72354284D01*
X129995235Y-72351490D01*
X130191762Y-72259849D01*
X130191767Y-72259846D01*
X130196749Y-72257523D01*
X130301611Y-72184098D01*
X130379789Y-72129357D01*
X130379792Y-72129355D01*
X130384300Y-72126198D01*
X130546198Y-71964300D01*
X130677523Y-71776749D01*
X130679846Y-71771767D01*
X130679849Y-71771762D01*
X130771961Y-71574225D01*
X130771961Y-71574224D01*
X130774284Y-71569243D01*
X130794976Y-71492022D01*
X130832119Y-71353402D01*
X130832119Y-71353400D01*
X130833543Y-71348087D01*
X130853498Y-71120000D01*
X130833543Y-70891913D01*
X130796981Y-70755461D01*
X130775707Y-70676067D01*
X130775706Y-70676065D01*
X130774284Y-70670757D01*
X130679966Y-70468489D01*
X130679849Y-70468238D01*
X130679846Y-70468233D01*
X130677523Y-70463251D01*
X130546198Y-70275700D01*
X130384300Y-70113802D01*
X130379792Y-70110645D01*
X130379789Y-70110643D01*
X130227229Y-70003819D01*
X130182901Y-69948362D01*
X130173500Y-69900606D01*
X130173500Y-67116594D01*
X130193502Y-67048473D01*
X130210405Y-67027499D01*
X133575499Y-63662405D01*
X133637811Y-63628379D01*
X133664594Y-63625500D01*
X145227406Y-63625500D01*
X145295527Y-63645502D01*
X145316501Y-63662405D01*
X149951595Y-68297500D01*
X149985621Y-68359812D01*
X149988500Y-68386595D01*
X149988500Y-113731405D01*
X149968498Y-113799526D01*
X149951595Y-113820501D01*
X149600999Y-114171096D01*
X149538687Y-114205121D01*
X149511904Y-114208000D01*
X147542980Y-114208000D01*
X147474859Y-114187998D01*
X147428366Y-114134342D01*
X147425114Y-114126537D01*
X147424923Y-114126030D01*
X147399851Y-114059679D01*
X147309576Y-113928328D01*
X147303905Y-113923275D01*
X147196247Y-113827355D01*
X147196244Y-113827353D01*
X147190575Y-113822302D01*
X147147559Y-113799526D01*
X147056431Y-113751276D01*
X147056429Y-113751275D01*
X147049718Y-113747722D01*
X146993097Y-113733500D01*
X146902509Y-113710746D01*
X146902506Y-113710746D01*
X146895138Y-113708895D01*
X146887538Y-113708855D01*
X146887537Y-113708855D01*
X146822179Y-113708513D01*
X146735758Y-113708060D01*
X146728378Y-113709832D01*
X146728376Y-113709832D01*
X146644292Y-113730019D01*
X146614878Y-113733500D01*
X146578546Y-113733500D01*
X146510425Y-113713498D01*
X146463932Y-113659842D01*
X146453803Y-113589747D01*
X146459191Y-113551892D01*
X146459336Y-113538000D01*
X146440188Y-113379772D01*
X146383851Y-113230679D01*
X146327091Y-113148092D01*
X146297878Y-113105587D01*
X146297877Y-113105585D01*
X146293576Y-113099328D01*
X146271900Y-113080015D01*
X146180247Y-112998355D01*
X146180244Y-112998353D01*
X146174575Y-112993302D01*
X146150404Y-112980504D01*
X146040431Y-112922276D01*
X146040429Y-112922275D01*
X146033718Y-112918722D01*
X146026353Y-112916872D01*
X145886509Y-112881746D01*
X145886506Y-112881746D01*
X145879138Y-112879895D01*
X145871538Y-112879855D01*
X145871537Y-112879855D01*
X145800161Y-112879481D01*
X145767461Y-112879310D01*
X145699446Y-112858952D01*
X145653235Y-112805053D01*
X145650255Y-112797849D01*
X145624536Y-112729784D01*
X145624535Y-112729782D01*
X145621851Y-112722679D01*
X145555480Y-112626109D01*
X145535878Y-112597587D01*
X145535877Y-112597585D01*
X145531576Y-112591328D01*
X145489459Y-112553803D01*
X145418247Y-112490355D01*
X145418244Y-112490353D01*
X145412575Y-112485302D01*
X145371151Y-112463369D01*
X145341015Y-112441110D01*
X127670405Y-94770500D01*
X127636379Y-94708188D01*
X127633500Y-94681405D01*
X127633500Y-87579394D01*
X127653502Y-87511273D01*
X127687229Y-87476181D01*
X127839789Y-87369357D01*
X127839792Y-87369355D01*
X127844300Y-87366198D01*
X128006198Y-87204300D01*
X128137523Y-87016749D01*
X128139846Y-87011767D01*
X128139849Y-87011762D01*
X128155805Y-86977543D01*
X128202722Y-86924258D01*
X128270999Y-86904797D01*
X128338959Y-86925339D01*
X128384195Y-86977543D01*
X128400151Y-87011762D01*
X128400154Y-87011767D01*
X128402477Y-87016749D01*
X128533802Y-87204300D01*
X128695700Y-87366198D01*
X128700208Y-87369355D01*
X128700211Y-87369357D01*
X128741542Y-87398297D01*
X128883251Y-87497523D01*
X128888233Y-87499846D01*
X128888238Y-87499849D01*
X129058825Y-87579394D01*
X129090757Y-87594284D01*
X129096065Y-87595706D01*
X129096067Y-87595707D01*
X129306598Y-87652119D01*
X129306600Y-87652119D01*
X129311913Y-87653543D01*
X129540000Y-87673498D01*
X129768087Y-87653543D01*
X129773400Y-87652119D01*
X129773402Y-87652119D01*
X129983933Y-87595707D01*
X129983935Y-87595706D01*
X129989243Y-87594284D01*
X130021175Y-87579394D01*
X130191762Y-87499849D01*
X130191767Y-87499846D01*
X130196749Y-87497523D01*
X130338458Y-87398297D01*
X130379789Y-87369357D01*
X130379792Y-87369355D01*
X130384300Y-87366198D01*
X130546198Y-87204300D01*
X130677523Y-87016749D01*
X130679846Y-87011767D01*
X130679849Y-87011762D01*
X130771961Y-86814225D01*
X130771961Y-86814224D01*
X130774284Y-86809243D01*
X130794976Y-86732022D01*
X130832119Y-86593402D01*
X130832119Y-86593400D01*
X130833543Y-86588087D01*
X130853498Y-86360000D01*
X130833543Y-86131913D01*
X130796981Y-85995461D01*
X130775707Y-85916067D01*
X130775706Y-85916065D01*
X130774284Y-85910757D01*
X130679966Y-85708489D01*
X130679849Y-85708238D01*
X130679846Y-85708233D01*
X130677523Y-85703251D01*
X130546198Y-85515700D01*
X130384300Y-85353802D01*
X130379792Y-85350645D01*
X130379789Y-85350643D01*
X130253920Y-85262509D01*
X130196749Y-85222477D01*
X130191767Y-85220154D01*
X130191762Y-85220151D01*
X129994225Y-85128039D01*
X129994224Y-85128039D01*
X129989243Y-85125716D01*
X129983935Y-85124294D01*
X129983933Y-85124293D01*
X129773402Y-85067881D01*
X129773400Y-85067881D01*
X129768087Y-85066457D01*
X129540000Y-85046502D01*
X129311913Y-85066457D01*
X129306600Y-85067881D01*
X129306598Y-85067881D01*
X129096067Y-85124293D01*
X129096065Y-85124294D01*
X129090757Y-85125716D01*
X129085776Y-85128039D01*
X129085775Y-85128039D01*
X128888238Y-85220151D01*
X128888233Y-85220154D01*
X128883251Y-85222477D01*
X128826080Y-85262509D01*
X128700211Y-85350643D01*
X128700208Y-85350645D01*
X128695700Y-85353802D01*
X128533802Y-85515700D01*
X128402477Y-85703251D01*
X128400154Y-85708233D01*
X128400151Y-85708238D01*
X128384195Y-85742457D01*
X128337278Y-85795742D01*
X128269001Y-85815203D01*
X128201041Y-85794661D01*
X128155805Y-85742457D01*
X128139849Y-85708238D01*
X128139846Y-85708233D01*
X128137523Y-85703251D01*
X128006198Y-85515700D01*
X127844300Y-85353802D01*
X127839792Y-85350645D01*
X127839789Y-85350643D01*
X127713920Y-85262509D01*
X127656749Y-85222477D01*
X127651767Y-85220154D01*
X127651762Y-85220151D01*
X127454225Y-85128039D01*
X127454224Y-85128039D01*
X127449243Y-85125716D01*
X127443935Y-85124294D01*
X127443933Y-85124293D01*
X127233402Y-85067881D01*
X127233400Y-85067881D01*
X127228087Y-85066457D01*
X127000000Y-85046502D01*
X126771913Y-85066457D01*
X126766600Y-85067881D01*
X126766598Y-85067881D01*
X126556067Y-85124293D01*
X126556065Y-85124294D01*
X126550757Y-85125716D01*
X126545776Y-85128039D01*
X126545775Y-85128039D01*
X126348238Y-85220151D01*
X126348233Y-85220154D01*
X126343251Y-85222477D01*
X126286080Y-85262509D01*
X126160211Y-85350643D01*
X126160208Y-85350645D01*
X126155700Y-85353802D01*
X125993802Y-85515700D01*
X125862477Y-85703251D01*
X125860154Y-85708233D01*
X125860151Y-85708238D01*
X125843919Y-85743049D01*
X125797002Y-85796334D01*
X125728725Y-85815795D01*
X125660765Y-85795253D01*
X125615529Y-85743049D01*
X125599414Y-85708489D01*
X125593931Y-85698994D01*
X125557491Y-85646952D01*
X125547012Y-85638576D01*
X125533566Y-85645644D01*
X124832022Y-86347188D01*
X124824408Y-86361132D01*
X124824539Y-86362965D01*
X124828790Y-86369580D01*
X125534287Y-87075077D01*
X125546062Y-87081507D01*
X125558077Y-87072211D01*
X125593931Y-87021006D01*
X125599414Y-87011511D01*
X125615529Y-86976951D01*
X125662446Y-86923666D01*
X125730723Y-86904205D01*
X125798683Y-86924747D01*
X125843919Y-86976951D01*
X125860151Y-87011762D01*
X125860154Y-87011767D01*
X125862477Y-87016749D01*
X125993802Y-87204300D01*
X126155700Y-87366198D01*
X126160208Y-87369355D01*
X126160211Y-87369357D01*
X126312771Y-87476181D01*
X126357099Y-87531638D01*
X126366500Y-87579394D01*
X126366500Y-93834157D01*
X126346498Y-93902278D01*
X126292842Y-93948771D01*
X126222568Y-93958875D01*
X126157988Y-93929381D01*
X126151405Y-93923252D01*
X122590405Y-90362252D01*
X122556379Y-90299940D01*
X122553500Y-90273157D01*
X122553500Y-87579394D01*
X122573502Y-87511273D01*
X122607229Y-87476181D01*
X122650243Y-87446062D01*
X123738493Y-87446062D01*
X123747789Y-87458077D01*
X123798994Y-87493931D01*
X123808489Y-87499414D01*
X124005947Y-87591490D01*
X124016239Y-87595236D01*
X124226688Y-87651625D01*
X124237481Y-87653528D01*
X124454525Y-87672517D01*
X124465475Y-87672517D01*
X124682519Y-87653528D01*
X124693312Y-87651625D01*
X124903761Y-87595236D01*
X124914053Y-87591490D01*
X125111511Y-87499414D01*
X125121006Y-87493931D01*
X125173048Y-87457491D01*
X125181424Y-87447012D01*
X125174356Y-87433566D01*
X124472812Y-86732022D01*
X124458868Y-86724408D01*
X124457035Y-86724539D01*
X124450420Y-86728790D01*
X123744923Y-87434287D01*
X123738493Y-87446062D01*
X122650243Y-87446062D01*
X122759789Y-87369357D01*
X122759792Y-87369355D01*
X122764300Y-87366198D01*
X122926198Y-87204300D01*
X123057523Y-87016749D01*
X123059846Y-87011767D01*
X123059849Y-87011762D01*
X123076081Y-86976951D01*
X123122998Y-86923666D01*
X123191275Y-86904205D01*
X123259235Y-86924747D01*
X123304471Y-86976951D01*
X123320586Y-87011511D01*
X123326069Y-87021006D01*
X123362509Y-87073048D01*
X123372988Y-87081424D01*
X123386434Y-87074356D01*
X124087978Y-86372812D01*
X124095592Y-86358868D01*
X124095461Y-86357035D01*
X124091210Y-86350420D01*
X123385713Y-85644923D01*
X123373938Y-85638493D01*
X123361923Y-85647789D01*
X123326069Y-85698994D01*
X123320586Y-85708489D01*
X123304471Y-85743049D01*
X123257554Y-85796334D01*
X123189277Y-85815795D01*
X123121317Y-85795253D01*
X123076081Y-85743049D01*
X123059849Y-85708238D01*
X123059846Y-85708233D01*
X123057523Y-85703251D01*
X122926198Y-85515700D01*
X122764300Y-85353802D01*
X122759792Y-85350645D01*
X122759789Y-85350643D01*
X122648886Y-85272988D01*
X123738576Y-85272988D01*
X123745644Y-85286434D01*
X124447188Y-85987978D01*
X124461132Y-85995592D01*
X124462965Y-85995461D01*
X124469580Y-85991210D01*
X125175077Y-85285713D01*
X125181507Y-85273938D01*
X125172211Y-85261923D01*
X125121006Y-85226069D01*
X125111511Y-85220586D01*
X124914053Y-85128510D01*
X124903761Y-85124764D01*
X124693312Y-85068375D01*
X124682519Y-85066472D01*
X124465475Y-85047483D01*
X124454525Y-85047483D01*
X124237481Y-85066472D01*
X124226688Y-85068375D01*
X124016239Y-85124764D01*
X124005947Y-85128510D01*
X123808489Y-85220586D01*
X123798994Y-85226069D01*
X123746952Y-85262509D01*
X123738576Y-85272988D01*
X122648886Y-85272988D01*
X122633920Y-85262509D01*
X122576749Y-85222477D01*
X122571767Y-85220154D01*
X122571762Y-85220151D01*
X122374225Y-85128039D01*
X122374224Y-85128039D01*
X122369243Y-85125716D01*
X122363935Y-85124294D01*
X122363933Y-85124293D01*
X122153402Y-85067881D01*
X122153400Y-85067881D01*
X122148087Y-85066457D01*
X121920000Y-85046502D01*
X121691913Y-85066457D01*
X121686600Y-85067881D01*
X121686598Y-85067881D01*
X121476067Y-85124293D01*
X121476065Y-85124294D01*
X121470757Y-85125716D01*
X121465776Y-85128039D01*
X121465775Y-85128039D01*
X121268238Y-85220151D01*
X121268233Y-85220154D01*
X121263251Y-85222477D01*
X121206080Y-85262509D01*
X121080211Y-85350643D01*
X121080208Y-85350645D01*
X121075700Y-85353802D01*
X120913802Y-85515700D01*
X120910643Y-85520211D01*
X120907108Y-85524424D01*
X120905974Y-85523473D01*
X120855929Y-85563471D01*
X120785310Y-85570776D01*
X120721951Y-85538742D01*
X120685970Y-85477538D01*
X120682918Y-85460483D01*
X120681745Y-85449684D01*
X120630615Y-85313295D01*
X120543261Y-85196739D01*
X120426705Y-85109385D01*
X120290316Y-85058255D01*
X120228134Y-85051500D01*
X118531866Y-85051500D01*
X118469684Y-85058255D01*
X118333295Y-85109385D01*
X118216739Y-85196739D01*
X118129385Y-85313295D01*
X118078255Y-85449684D01*
X118071500Y-85511866D01*
X118071500Y-87208134D01*
X118078255Y-87270316D01*
X118129385Y-87406705D01*
X118216739Y-87523261D01*
X118333295Y-87610615D01*
X118469684Y-87661745D01*
X118531866Y-87668500D01*
X118620500Y-87668500D01*
X118688621Y-87688502D01*
X118735114Y-87742158D01*
X118746500Y-87794500D01*
X118746500Y-88821233D01*
X118745973Y-88832416D01*
X118744298Y-88839909D01*
X118744547Y-88847835D01*
X118744547Y-88847836D01*
X118746438Y-88907986D01*
X118746500Y-88911945D01*
X118746500Y-88939856D01*
X118746997Y-88943790D01*
X118746997Y-88943791D01*
X118747005Y-88943856D01*
X118747938Y-88955693D01*
X118749327Y-88999889D01*
X118754978Y-89019339D01*
X118758987Y-89038700D01*
X118761526Y-89058797D01*
X118764445Y-89066168D01*
X118764445Y-89066170D01*
X118777804Y-89099912D01*
X118781649Y-89111142D01*
X118793982Y-89153593D01*
X118798015Y-89160412D01*
X118798017Y-89160417D01*
X118804293Y-89171028D01*
X118812988Y-89188776D01*
X118820448Y-89207617D01*
X118825110Y-89214033D01*
X118825110Y-89214034D01*
X118846436Y-89243387D01*
X118852952Y-89253307D01*
X118875458Y-89291362D01*
X118889779Y-89305683D01*
X118902619Y-89320716D01*
X118914528Y-89337107D01*
X118920634Y-89342158D01*
X118948605Y-89365298D01*
X118957384Y-89373288D01*
X143936976Y-114352881D01*
X143971002Y-114415193D01*
X143965937Y-114486008D01*
X143950968Y-114514426D01*
X143941400Y-114528040D01*
X143938642Y-114535115D01*
X143938640Y-114535118D01*
X143922139Y-114577441D01*
X143878758Y-114633643D01*
X143811879Y-114657469D01*
X143804086Y-114657669D01*
X143730554Y-114657284D01*
X143687758Y-114657060D01*
X143680378Y-114658832D01*
X143680376Y-114658832D01*
X143540160Y-114692495D01*
X143540158Y-114692496D01*
X143532780Y-114694267D01*
X143391150Y-114767368D01*
X143271045Y-114872142D01*
X143179400Y-115002540D01*
X143121504Y-115151035D01*
X143120513Y-115158562D01*
X143116294Y-115190611D01*
X143100700Y-115309054D01*
X143101534Y-115316604D01*
X143116366Y-115450948D01*
X143118190Y-115467473D01*
X143120800Y-115474606D01*
X143120801Y-115474609D01*
X143140778Y-115529200D01*
X143145404Y-115600045D01*
X143110994Y-115662146D01*
X143048472Y-115695784D01*
X143022452Y-115698500D01*
X139252595Y-115698500D01*
X139184474Y-115678498D01*
X139163500Y-115661595D01*
X132265122Y-108763217D01*
X132231096Y-108700905D01*
X132228907Y-108687292D01*
X132212232Y-108528635D01*
X132212232Y-108528633D01*
X132211542Y-108522072D01*
X132152527Y-108340444D01*
X132057040Y-108175056D01*
X131929253Y-108033134D01*
X131774752Y-107920882D01*
X131768724Y-107918198D01*
X131768722Y-107918197D01*
X131606319Y-107845891D01*
X131606318Y-107845891D01*
X131600288Y-107843206D01*
X131506888Y-107823353D01*
X131419944Y-107804872D01*
X131419939Y-107804872D01*
X131413487Y-107803500D01*
X131222513Y-107803500D01*
X131216061Y-107804872D01*
X131216056Y-107804872D01*
X131129113Y-107823353D01*
X131035712Y-107843206D01*
X131029682Y-107845891D01*
X131029681Y-107845891D01*
X130867278Y-107918197D01*
X130867276Y-107918198D01*
X130861248Y-107920882D01*
X130706747Y-108033134D01*
X130578960Y-108175056D01*
X130483473Y-108340444D01*
X130424458Y-108522072D01*
X130404496Y-108712000D01*
X130424458Y-108901928D01*
X130483473Y-109083556D01*
X130578960Y-109248944D01*
X130706747Y-109390866D01*
X130861248Y-109503118D01*
X130867276Y-109505802D01*
X130867278Y-109505803D01*
X131029681Y-109578109D01*
X131035712Y-109580794D01*
X131129113Y-109600647D01*
X131216056Y-109619128D01*
X131216061Y-109619128D01*
X131222513Y-109620500D01*
X131278406Y-109620500D01*
X131346527Y-109640502D01*
X131367501Y-109657405D01*
X138434343Y-116724247D01*
X138441887Y-116732537D01*
X138446000Y-116739018D01*
X138451777Y-116744443D01*
X138495667Y-116785658D01*
X138498509Y-116788413D01*
X138518230Y-116808134D01*
X138521425Y-116810612D01*
X138530447Y-116818318D01*
X138562679Y-116848586D01*
X138569628Y-116852406D01*
X138580432Y-116858346D01*
X138596956Y-116869199D01*
X138612959Y-116881613D01*
X138653543Y-116899176D01*
X138664173Y-116904383D01*
X138702940Y-116925695D01*
X138710617Y-116927666D01*
X138710622Y-116927668D01*
X138722558Y-116930732D01*
X138741266Y-116937137D01*
X138759855Y-116945181D01*
X138767680Y-116946420D01*
X138767682Y-116946421D01*
X138803519Y-116952097D01*
X138815140Y-116954504D01*
X138850289Y-116963528D01*
X138857970Y-116965500D01*
X138878231Y-116965500D01*
X138897940Y-116967051D01*
X138917943Y-116970219D01*
X138925835Y-116969473D01*
X138931062Y-116968979D01*
X138961954Y-116966059D01*
X138973811Y-116965500D01*
X150307406Y-116965500D01*
X150375527Y-116985502D01*
X150396501Y-117002405D01*
X150459595Y-117065499D01*
X150493621Y-117127811D01*
X150496500Y-117154594D01*
X150496500Y-123503476D01*
X150476498Y-123571597D01*
X150464142Y-123587779D01*
X150390960Y-123669056D01*
X150332686Y-123769990D01*
X150301005Y-123824863D01*
X150295473Y-123834444D01*
X150236458Y-124016072D01*
X150235768Y-124022633D01*
X150235768Y-124022635D01*
X150220323Y-124169588D01*
X150216496Y-124206000D01*
X150217186Y-124212565D01*
X150231894Y-124352500D01*
X150236458Y-124395928D01*
X150295473Y-124577556D01*
X150298776Y-124583278D01*
X150298777Y-124583279D01*
X150322730Y-124624767D01*
X150390960Y-124742944D01*
X150518747Y-124884866D01*
X150673248Y-124997118D01*
X150679276Y-124999802D01*
X150679278Y-124999803D01*
X150789822Y-125049020D01*
X150847712Y-125074794D01*
X150941112Y-125094647D01*
X151028056Y-125113128D01*
X151028061Y-125113128D01*
X151034513Y-125114500D01*
X151225487Y-125114500D01*
X151231939Y-125113128D01*
X151231944Y-125113128D01*
X151318888Y-125094647D01*
X151412288Y-125074794D01*
X151470178Y-125049020D01*
X151580722Y-124999803D01*
X151580724Y-124999802D01*
X151586752Y-124997118D01*
X151741253Y-124884866D01*
X151869040Y-124742944D01*
X151937270Y-124624767D01*
X151961223Y-124583279D01*
X151961224Y-124583278D01*
X151964527Y-124577556D01*
X152023542Y-124395928D01*
X152028107Y-124352500D01*
X152042814Y-124212565D01*
X152043504Y-124206000D01*
X152039677Y-124169588D01*
X152024232Y-124022635D01*
X152024232Y-124022633D01*
X152023542Y-124016072D01*
X151964527Y-123834444D01*
X151958996Y-123824863D01*
X151927314Y-123769990D01*
X151869040Y-123669056D01*
X151795863Y-123587785D01*
X151765147Y-123523779D01*
X151763500Y-123503476D01*
X151763500Y-116918763D01*
X151764027Y-116907579D01*
X151765701Y-116900091D01*
X151763562Y-116832032D01*
X151763500Y-116828075D01*
X151763500Y-116800144D01*
X151762994Y-116796138D01*
X151762061Y-116784292D01*
X151761985Y-116781851D01*
X151760673Y-116740110D01*
X151755022Y-116720658D01*
X151751014Y-116701306D01*
X151749468Y-116689068D01*
X151749467Y-116689066D01*
X151748474Y-116681203D01*
X151732194Y-116640086D01*
X151728359Y-116628885D01*
X151716018Y-116586406D01*
X151711985Y-116579587D01*
X151711983Y-116579582D01*
X151705707Y-116568971D01*
X151697010Y-116551221D01*
X151689552Y-116532383D01*
X151663571Y-116496623D01*
X151657053Y-116486701D01*
X151638578Y-116455460D01*
X151638574Y-116455455D01*
X151634542Y-116448637D01*
X151620218Y-116434313D01*
X151607376Y-116419278D01*
X151606264Y-116417747D01*
X151595472Y-116402893D01*
X151561406Y-116374711D01*
X151552627Y-116366722D01*
X151350500Y-116164595D01*
X151316474Y-116102283D01*
X151321539Y-116031468D01*
X151364086Y-115974632D01*
X151430606Y-115949821D01*
X151439595Y-115949500D01*
X151559233Y-115949500D01*
X151570416Y-115950027D01*
X151577909Y-115951702D01*
X151585835Y-115951453D01*
X151585836Y-115951453D01*
X151645986Y-115949562D01*
X151649945Y-115949500D01*
X151677856Y-115949500D01*
X151681791Y-115949003D01*
X151681856Y-115948995D01*
X151693693Y-115948062D01*
X151725951Y-115947048D01*
X151729970Y-115946922D01*
X151737889Y-115946673D01*
X151757343Y-115941021D01*
X151776700Y-115937013D01*
X151788930Y-115935468D01*
X151788931Y-115935468D01*
X151796797Y-115934474D01*
X151804168Y-115931555D01*
X151804170Y-115931555D01*
X151837912Y-115918196D01*
X151849142Y-115914351D01*
X151883983Y-115904229D01*
X151883984Y-115904229D01*
X151891593Y-115902018D01*
X151898412Y-115897985D01*
X151898417Y-115897983D01*
X151909028Y-115891707D01*
X151926776Y-115883012D01*
X151945617Y-115875552D01*
X151981387Y-115849564D01*
X151991307Y-115843048D01*
X152022535Y-115824580D01*
X152022538Y-115824578D01*
X152029362Y-115820542D01*
X152043683Y-115806221D01*
X152058717Y-115793380D01*
X152068694Y-115786131D01*
X152075107Y-115781472D01*
X152103298Y-115747395D01*
X152111288Y-115738616D01*
X152284247Y-115565657D01*
X152292537Y-115558113D01*
X152299018Y-115554000D01*
X152310649Y-115541614D01*
X152371862Y-115505648D01*
X152442802Y-115508485D01*
X152500946Y-115549225D01*
X152527835Y-115614933D01*
X152528500Y-115627866D01*
X152528500Y-116391476D01*
X152508498Y-116459597D01*
X152496142Y-116475779D01*
X152422960Y-116557056D01*
X152381501Y-116628865D01*
X152351284Y-116681203D01*
X152327473Y-116722444D01*
X152268458Y-116904072D01*
X152267768Y-116910633D01*
X152267768Y-116910635D01*
X152264468Y-116942034D01*
X152248496Y-117094000D01*
X152268458Y-117283928D01*
X152327473Y-117465556D01*
X152422960Y-117630944D01*
X152550747Y-117772866D01*
X152705248Y-117885118D01*
X152711276Y-117887802D01*
X152711278Y-117887803D01*
X152873681Y-117960109D01*
X152879712Y-117962794D01*
X152955527Y-117978909D01*
X153060056Y-118001128D01*
X153060061Y-118001128D01*
X153066513Y-118002500D01*
X153164500Y-118002500D01*
X153232621Y-118022502D01*
X153279114Y-118076158D01*
X153290500Y-118128500D01*
X153290500Y-122741476D01*
X153270498Y-122809597D01*
X153258142Y-122825779D01*
X153184960Y-122907056D01*
X153134367Y-122994686D01*
X153102734Y-123049476D01*
X153089473Y-123072444D01*
X153030458Y-123254072D01*
X153029768Y-123260633D01*
X153029768Y-123260635D01*
X153025862Y-123297800D01*
X153010496Y-123444000D01*
X153011186Y-123450565D01*
X153021831Y-123551842D01*
X153030458Y-123633928D01*
X153089473Y-123815556D01*
X153092776Y-123821278D01*
X153092777Y-123821279D01*
X153100378Y-123834444D01*
X153184960Y-123980944D01*
X153189378Y-123985851D01*
X153189379Y-123985852D01*
X153236101Y-124037742D01*
X153312747Y-124122866D01*
X153377054Y-124169588D01*
X153436207Y-124212565D01*
X153467248Y-124235118D01*
X153473276Y-124237802D01*
X153473278Y-124237803D01*
X153635681Y-124310109D01*
X153641712Y-124312794D01*
X153735113Y-124332647D01*
X153822056Y-124351128D01*
X153822061Y-124351128D01*
X153828513Y-124352500D01*
X154019487Y-124352500D01*
X154025939Y-124351128D01*
X154025944Y-124351128D01*
X154112887Y-124332647D01*
X154206288Y-124312794D01*
X154212319Y-124310109D01*
X154374722Y-124237803D01*
X154374724Y-124237802D01*
X154380752Y-124235118D01*
X154411794Y-124212565D01*
X154470946Y-124169588D01*
X154535253Y-124122866D01*
X154611899Y-124037742D01*
X154658621Y-123985852D01*
X154658622Y-123985851D01*
X154663040Y-123980944D01*
X154747622Y-123834444D01*
X154755223Y-123821279D01*
X154755224Y-123821278D01*
X154758527Y-123815556D01*
X154770080Y-123780000D01*
X156216693Y-123780000D01*
X156235885Y-123999371D01*
X156292880Y-124212076D01*
X156295205Y-124217061D01*
X156383618Y-124406666D01*
X156383621Y-124406671D01*
X156385944Y-124411653D01*
X156389100Y-124416160D01*
X156389101Y-124416162D01*
X156502111Y-124577556D01*
X156512251Y-124592038D01*
X156667962Y-124747749D01*
X156848346Y-124874056D01*
X157047924Y-124967120D01*
X157260629Y-125024115D01*
X157480000Y-125043307D01*
X157699371Y-125024115D01*
X157912076Y-124967120D01*
X158111654Y-124874056D01*
X158292038Y-124747749D01*
X158447749Y-124592038D01*
X158457890Y-124577556D01*
X158570899Y-124416162D01*
X158570900Y-124416160D01*
X158574056Y-124411653D01*
X158576379Y-124406671D01*
X158576382Y-124406666D01*
X158664795Y-124217061D01*
X158667120Y-124212076D01*
X158724115Y-123999371D01*
X158743307Y-123780000D01*
X158724115Y-123560629D01*
X158667120Y-123347924D01*
X158608104Y-123221364D01*
X158576382Y-123153334D01*
X158576379Y-123153329D01*
X158574056Y-123148347D01*
X158566425Y-123137449D01*
X158450908Y-122972473D01*
X158450906Y-122972470D01*
X158447749Y-122967962D01*
X158292038Y-122812251D01*
X158241891Y-122777137D01*
X158137126Y-122703780D01*
X158111654Y-122685944D01*
X157912076Y-122592880D01*
X157699371Y-122535885D01*
X157480000Y-122516693D01*
X157260629Y-122535885D01*
X157047924Y-122592880D01*
X156954562Y-122636415D01*
X156853334Y-122683618D01*
X156853329Y-122683621D01*
X156848347Y-122685944D01*
X156843840Y-122689100D01*
X156843838Y-122689101D01*
X156672473Y-122809092D01*
X156672470Y-122809094D01*
X156667962Y-122812251D01*
X156512251Y-122967962D01*
X156509094Y-122972470D01*
X156509092Y-122972473D01*
X156393575Y-123137449D01*
X156385944Y-123148347D01*
X156383621Y-123153329D01*
X156383618Y-123153334D01*
X156351896Y-123221364D01*
X156292880Y-123347924D01*
X156235885Y-123560629D01*
X156216693Y-123780000D01*
X154770080Y-123780000D01*
X154817542Y-123633928D01*
X154826170Y-123551842D01*
X154836814Y-123450565D01*
X154837504Y-123444000D01*
X154822138Y-123297800D01*
X154818232Y-123260635D01*
X154818232Y-123260633D01*
X154817542Y-123254072D01*
X154758527Y-123072444D01*
X154745267Y-123049476D01*
X154713633Y-122994686D01*
X154663040Y-122907056D01*
X154589863Y-122825785D01*
X154559147Y-122761779D01*
X154557500Y-122741476D01*
X154557500Y-118880000D01*
X156216693Y-118880000D01*
X156235885Y-119099371D01*
X156292880Y-119312076D01*
X156336322Y-119405237D01*
X156383618Y-119506666D01*
X156383621Y-119506671D01*
X156385944Y-119511653D01*
X156389100Y-119516160D01*
X156389101Y-119516162D01*
X156409131Y-119544767D01*
X156512251Y-119692038D01*
X156667962Y-119847749D01*
X156672471Y-119850906D01*
X156672473Y-119850908D01*
X156730443Y-119891499D01*
X156848346Y-119974056D01*
X157047924Y-120067120D01*
X157260629Y-120124115D01*
X157480000Y-120143307D01*
X157699371Y-120124115D01*
X157912076Y-120067120D01*
X158111654Y-119974056D01*
X158229557Y-119891499D01*
X158287527Y-119850908D01*
X158287529Y-119850906D01*
X158292038Y-119847749D01*
X158447749Y-119692038D01*
X158550870Y-119544767D01*
X158570899Y-119516162D01*
X158570900Y-119516160D01*
X158574056Y-119511653D01*
X158576379Y-119506671D01*
X158576382Y-119506666D01*
X158623678Y-119405237D01*
X158667120Y-119312076D01*
X158724115Y-119099371D01*
X158743307Y-118880000D01*
X158724115Y-118660629D01*
X158667120Y-118447924D01*
X158621387Y-118349848D01*
X158576382Y-118253334D01*
X158576379Y-118253329D01*
X158574056Y-118248347D01*
X158550425Y-118214598D01*
X158450908Y-118072473D01*
X158450906Y-118072470D01*
X158447749Y-118067962D01*
X158292038Y-117912251D01*
X158253289Y-117885118D01*
X158170119Y-117826882D01*
X158111654Y-117785944D01*
X157912076Y-117692880D01*
X157699371Y-117635885D01*
X157480000Y-117616693D01*
X157260629Y-117635885D01*
X157047924Y-117692880D01*
X156954562Y-117736415D01*
X156853334Y-117783618D01*
X156853329Y-117783621D01*
X156848347Y-117785944D01*
X156843840Y-117789100D01*
X156843838Y-117789101D01*
X156672473Y-117909092D01*
X156672470Y-117909094D01*
X156667962Y-117912251D01*
X156512251Y-118067962D01*
X156509094Y-118072470D01*
X156509092Y-118072473D01*
X156409575Y-118214598D01*
X156385944Y-118248347D01*
X156383621Y-118253329D01*
X156383618Y-118253334D01*
X156338613Y-118349848D01*
X156292880Y-118447924D01*
X156235885Y-118660629D01*
X156216693Y-118880000D01*
X154557500Y-118880000D01*
X154557500Y-66118763D01*
X154558027Y-66107579D01*
X154559701Y-66100091D01*
X154557562Y-66032032D01*
X154557500Y-66028075D01*
X154557500Y-66000144D01*
X154556994Y-65996138D01*
X154556061Y-65984292D01*
X154554922Y-65948037D01*
X154554673Y-65940110D01*
X154549022Y-65920658D01*
X154545014Y-65901306D01*
X154543467Y-65889063D01*
X154542474Y-65881203D01*
X154528772Y-65846594D01*
X154526200Y-65840097D01*
X154522355Y-65828870D01*
X154512341Y-65794404D01*
X154510018Y-65786407D01*
X154505984Y-65779585D01*
X154505981Y-65779579D01*
X154499706Y-65768968D01*
X154491010Y-65751218D01*
X154486472Y-65739756D01*
X154486469Y-65739751D01*
X154483552Y-65732383D01*
X154464362Y-65705970D01*
X154457573Y-65696625D01*
X154451057Y-65686707D01*
X154432575Y-65655457D01*
X154428542Y-65648637D01*
X154414218Y-65634313D01*
X154401376Y-65619278D01*
X154398768Y-65615688D01*
X154389472Y-65602893D01*
X154355406Y-65574711D01*
X154346627Y-65566722D01*
X147923500Y-59143595D01*
X147889474Y-59081283D01*
X147894539Y-59010468D01*
X147937086Y-58953632D01*
X148003606Y-58928821D01*
X148012595Y-58928500D01*
X159462633Y-58928500D01*
X159482018Y-58930000D01*
X159496851Y-58932310D01*
X159496855Y-58932310D01*
X159505724Y-58933691D01*
X159514626Y-58932527D01*
X159514629Y-58932527D01*
X159522012Y-58931561D01*
X159546591Y-58930767D01*
X159573442Y-58932527D01*
X159768922Y-58945340D01*
X159785262Y-58947491D01*
X159847471Y-58959865D01*
X160029696Y-58996112D01*
X160045606Y-59000375D01*
X160281600Y-59080484D01*
X160296826Y-59086791D01*
X160520342Y-59197016D01*
X160534616Y-59205257D01*
X160741829Y-59343713D01*
X160754905Y-59353746D01*
X160942278Y-59518068D01*
X160953932Y-59529722D01*
X161118254Y-59717095D01*
X161128287Y-59730171D01*
X161266743Y-59937384D01*
X161274984Y-59951658D01*
X161385209Y-60175174D01*
X161391515Y-60190398D01*
X161471625Y-60426394D01*
X161475889Y-60442307D01*
X161524509Y-60686738D01*
X161526660Y-60703078D01*
X161540763Y-60918236D01*
X161539733Y-60941350D01*
X161539690Y-60944854D01*
X161538309Y-60953724D01*
X161539473Y-60962626D01*
X161539473Y-60962628D01*
X161542436Y-60985283D01*
X161543500Y-61001621D01*
X161543500Y-132538633D01*
X161542000Y-132558018D01*
X161539690Y-132572851D01*
X161539690Y-132572855D01*
X161538309Y-132581724D01*
X161539473Y-132590626D01*
X161539473Y-132590629D01*
X161540439Y-132598012D01*
X161541233Y-132622591D01*
X161526660Y-132844922D01*
X161524509Y-132861262D01*
X161475889Y-133105693D01*
X161471625Y-133121606D01*
X161437312Y-133222689D01*
X161391516Y-133357600D01*
X161385209Y-133372826D01*
X161274984Y-133596342D01*
X161266743Y-133610616D01*
X161128287Y-133817829D01*
X161118254Y-133830905D01*
X160953932Y-134018278D01*
X160942278Y-134029932D01*
X160754905Y-134194254D01*
X160741829Y-134204287D01*
X160534616Y-134342743D01*
X160520342Y-134350984D01*
X160296826Y-134461209D01*
X160281602Y-134467515D01*
X160045606Y-134547625D01*
X160029696Y-134551888D01*
X159907477Y-134576199D01*
X159785262Y-134600509D01*
X159768922Y-134602660D01*
X159620134Y-134612413D01*
X159553763Y-134616763D01*
X159530650Y-134615733D01*
X159527146Y-134615690D01*
X159518276Y-134614309D01*
X159509374Y-134615473D01*
X159509372Y-134615473D01*
X159495915Y-134617233D01*
X159486714Y-134618436D01*
X159470379Y-134619500D01*
X100887367Y-134619500D01*
X100867982Y-134618000D01*
X100853149Y-134615690D01*
X100853145Y-134615690D01*
X100844276Y-134614309D01*
X100835374Y-134615473D01*
X100835371Y-134615473D01*
X100827988Y-134616439D01*
X100803409Y-134617233D01*
X100758799Y-134614309D01*
X100581078Y-134602660D01*
X100564738Y-134600509D01*
X100442523Y-134576199D01*
X100320304Y-134551888D01*
X100304394Y-134547625D01*
X100068398Y-134467515D01*
X100053174Y-134461209D01*
X99829658Y-134350984D01*
X99815384Y-134342743D01*
X99608171Y-134204287D01*
X99595095Y-134194254D01*
X99407722Y-134029932D01*
X99396068Y-134018278D01*
X99231746Y-133830905D01*
X99221713Y-133817829D01*
X99083257Y-133610616D01*
X99075016Y-133596342D01*
X98964791Y-133372826D01*
X98958484Y-133357600D01*
X98912688Y-133222689D01*
X98878375Y-133121606D01*
X98874111Y-133105693D01*
X98825491Y-132861262D01*
X98823340Y-132844922D01*
X98809476Y-132633407D01*
X98810650Y-132610232D01*
X98810334Y-132610204D01*
X98810770Y-132605344D01*
X98811576Y-132600552D01*
X98811729Y-132588000D01*
X98807773Y-132560376D01*
X98806500Y-132542514D01*
X98806500Y-130408134D01*
X133261500Y-130408134D01*
X133268255Y-130470316D01*
X133319385Y-130606705D01*
X133406739Y-130723261D01*
X133523295Y-130810615D01*
X133659684Y-130861745D01*
X133721866Y-130868500D01*
X135518134Y-130868500D01*
X135580316Y-130861745D01*
X135716705Y-130810615D01*
X135833261Y-130723261D01*
X135920615Y-130606705D01*
X135971745Y-130470316D01*
X135978500Y-130408134D01*
X135978500Y-128611866D01*
X135971745Y-128549684D01*
X135920615Y-128413295D01*
X135833261Y-128296739D01*
X135716705Y-128209385D01*
X135597687Y-128164767D01*
X135540923Y-128122125D01*
X135516223Y-128055564D01*
X135531430Y-127986215D01*
X135552977Y-127957535D01*
X135654052Y-127856812D01*
X135660730Y-127848965D01*
X135785003Y-127676020D01*
X135790313Y-127667183D01*
X135884670Y-127476267D01*
X135888469Y-127466672D01*
X135950377Y-127262910D01*
X135952555Y-127252837D01*
X135953986Y-127241962D01*
X135951775Y-127227778D01*
X135938617Y-127224000D01*
X133303225Y-127224000D01*
X133289694Y-127227973D01*
X133288257Y-127237966D01*
X133318565Y-127372446D01*
X133321645Y-127382275D01*
X133401770Y-127579603D01*
X133406413Y-127588794D01*
X133517694Y-127770388D01*
X133523777Y-127778699D01*
X133663213Y-127939667D01*
X133670577Y-127946879D01*
X133675522Y-127950985D01*
X133715156Y-128009889D01*
X133716653Y-128080870D01*
X133679537Y-128141392D01*
X133639264Y-128165910D01*
X133531705Y-128206232D01*
X133531704Y-128206233D01*
X133523295Y-128209385D01*
X133406739Y-128296739D01*
X133319385Y-128413295D01*
X133268255Y-128549684D01*
X133261500Y-128611866D01*
X133261500Y-130408134D01*
X98806500Y-130408134D01*
X98806500Y-124396695D01*
X133257251Y-124396695D01*
X133257548Y-124401848D01*
X133257548Y-124401851D01*
X133257826Y-124406666D01*
X133270110Y-124619715D01*
X133271247Y-124624761D01*
X133271248Y-124624767D01*
X133295304Y-124731508D01*
X133319222Y-124837639D01*
X133403266Y-125044616D01*
X133519987Y-125235088D01*
X133666250Y-125403938D01*
X133838126Y-125546632D01*
X133893634Y-125579068D01*
X133911955Y-125589774D01*
X133960679Y-125641412D01*
X133973750Y-125711195D01*
X133947019Y-125776967D01*
X133906562Y-125810327D01*
X133898457Y-125814546D01*
X133889738Y-125820036D01*
X133719433Y-125947905D01*
X133711726Y-125954748D01*
X133564590Y-126108717D01*
X133558104Y-126116727D01*
X133438098Y-126292649D01*
X133433000Y-126301623D01*
X133343338Y-126494783D01*
X133339775Y-126504470D01*
X133284389Y-126704183D01*
X133285912Y-126712607D01*
X133298292Y-126716000D01*
X135938344Y-126716000D01*
X135951875Y-126712027D01*
X135953180Y-126702947D01*
X135911214Y-126535875D01*
X135907894Y-126526124D01*
X135822972Y-126330814D01*
X135818105Y-126321739D01*
X135702426Y-126142926D01*
X135696136Y-126134757D01*
X135552806Y-125977240D01*
X135545273Y-125970215D01*
X135378139Y-125838222D01*
X135369556Y-125832520D01*
X135332602Y-125812120D01*
X135282631Y-125761687D01*
X135267859Y-125692245D01*
X135292975Y-125625839D01*
X135320327Y-125599232D01*
X135369955Y-125563833D01*
X135499860Y-125471173D01*
X135658096Y-125313489D01*
X135717594Y-125230689D01*
X135785435Y-125136277D01*
X135788453Y-125132077D01*
X135790746Y-125127437D01*
X135792446Y-125124608D01*
X135844674Y-125076518D01*
X135900451Y-125063500D01*
X137323406Y-125063500D01*
X137391527Y-125083502D01*
X137412501Y-125100405D01*
X138267595Y-125955499D01*
X138301621Y-126017811D01*
X138304500Y-126044594D01*
X138304500Y-127429233D01*
X138303973Y-127440416D01*
X138302298Y-127447909D01*
X138302547Y-127455835D01*
X138302547Y-127455836D01*
X138304438Y-127515986D01*
X138304500Y-127519945D01*
X138304500Y-127547856D01*
X138304997Y-127551790D01*
X138304997Y-127551791D01*
X138305005Y-127551856D01*
X138305938Y-127563693D01*
X138307327Y-127607889D01*
X138312978Y-127627339D01*
X138316987Y-127646700D01*
X138319526Y-127666797D01*
X138322445Y-127674168D01*
X138322445Y-127674170D01*
X138335804Y-127707912D01*
X138339649Y-127719142D01*
X138349771Y-127753983D01*
X138351982Y-127761593D01*
X138356015Y-127768412D01*
X138356017Y-127768417D01*
X138362293Y-127779028D01*
X138370988Y-127796776D01*
X138378448Y-127815617D01*
X138383110Y-127822033D01*
X138383110Y-127822034D01*
X138404436Y-127851387D01*
X138410952Y-127861307D01*
X138433458Y-127899362D01*
X138447779Y-127913683D01*
X138460619Y-127928716D01*
X138472528Y-127945107D01*
X138504413Y-127971484D01*
X138506593Y-127973288D01*
X138515374Y-127981278D01*
X139196353Y-128662258D01*
X139203887Y-128670537D01*
X139208000Y-128677018D01*
X139257651Y-128723643D01*
X139260493Y-128726398D01*
X139280230Y-128746135D01*
X139283427Y-128748615D01*
X139292447Y-128756318D01*
X139324679Y-128786586D01*
X139331625Y-128790405D01*
X139331628Y-128790407D01*
X139342434Y-128796348D01*
X139358953Y-128807199D01*
X139374959Y-128819614D01*
X139382228Y-128822759D01*
X139382232Y-128822762D01*
X139415537Y-128837174D01*
X139426187Y-128842391D01*
X139464940Y-128863695D01*
X139472615Y-128865666D01*
X139472616Y-128865666D01*
X139484562Y-128868733D01*
X139503267Y-128875137D01*
X139521855Y-128883181D01*
X139529678Y-128884420D01*
X139529688Y-128884423D01*
X139565524Y-128890099D01*
X139577144Y-128892505D01*
X139612289Y-128901528D01*
X139619970Y-128903500D01*
X139640224Y-128903500D01*
X139659934Y-128905051D01*
X139679943Y-128908220D01*
X139687835Y-128907474D01*
X139723961Y-128904059D01*
X139735819Y-128903500D01*
X140515800Y-128903500D01*
X140583921Y-128923502D01*
X140603147Y-128939843D01*
X140603420Y-128939540D01*
X140608332Y-128943963D01*
X140612747Y-128948866D01*
X140767248Y-129061118D01*
X140773276Y-129063802D01*
X140773278Y-129063803D01*
X140935681Y-129136109D01*
X140941712Y-129138794D01*
X141035113Y-129158647D01*
X141122056Y-129177128D01*
X141122061Y-129177128D01*
X141128513Y-129178500D01*
X141319487Y-129178500D01*
X141325939Y-129177128D01*
X141325944Y-129177128D01*
X141412887Y-129158647D01*
X141506288Y-129138794D01*
X141512319Y-129136109D01*
X141674722Y-129063803D01*
X141674724Y-129063802D01*
X141680752Y-129061118D01*
X141835253Y-128948866D01*
X141871851Y-128908220D01*
X141958621Y-128811852D01*
X141958622Y-128811851D01*
X141963040Y-128806944D01*
X142058527Y-128641556D01*
X142117542Y-128459928D01*
X142137504Y-128270000D01*
X142117542Y-128080072D01*
X142058527Y-127898444D01*
X142055116Y-127892535D01*
X141989392Y-127778699D01*
X141963040Y-127733056D01*
X141835253Y-127591134D01*
X141680752Y-127478882D01*
X141674724Y-127476198D01*
X141674722Y-127476197D01*
X141512319Y-127403891D01*
X141512318Y-127403891D01*
X141506288Y-127401206D01*
X141412887Y-127381353D01*
X141325944Y-127362872D01*
X141325939Y-127362872D01*
X141319487Y-127361500D01*
X141128513Y-127361500D01*
X141122061Y-127362872D01*
X141122056Y-127362872D01*
X141035113Y-127381353D01*
X140941712Y-127401206D01*
X140935682Y-127403891D01*
X140935681Y-127403891D01*
X140773278Y-127476197D01*
X140773276Y-127476198D01*
X140767248Y-127478882D01*
X140612747Y-127591134D01*
X140608332Y-127596037D01*
X140603420Y-127600460D01*
X140602295Y-127599211D01*
X140548986Y-127632051D01*
X140515800Y-127636500D01*
X140014595Y-127636500D01*
X139946474Y-127616498D01*
X139925499Y-127599595D01*
X139608404Y-127282499D01*
X139574379Y-127220187D01*
X139571500Y-127193404D01*
X139571500Y-125808763D01*
X139572027Y-125797579D01*
X139573701Y-125790091D01*
X139571562Y-125722032D01*
X139571500Y-125718075D01*
X139571500Y-125690144D01*
X139570994Y-125686138D01*
X139570061Y-125674292D01*
X139568922Y-125638037D01*
X139568673Y-125630110D01*
X139563022Y-125610658D01*
X139559014Y-125591306D01*
X139557468Y-125579068D01*
X139557467Y-125579066D01*
X139556474Y-125571203D01*
X139540194Y-125530086D01*
X139536359Y-125518885D01*
X139524018Y-125476406D01*
X139519985Y-125469587D01*
X139519983Y-125469582D01*
X139513707Y-125458971D01*
X139505010Y-125441221D01*
X139497552Y-125422383D01*
X139471571Y-125386623D01*
X139465053Y-125376701D01*
X139446578Y-125345460D01*
X139446574Y-125345455D01*
X139442542Y-125338637D01*
X139428218Y-125324313D01*
X139415376Y-125309278D01*
X139403472Y-125292893D01*
X139369406Y-125264711D01*
X139360627Y-125256722D01*
X138141647Y-124037742D01*
X138134113Y-124029463D01*
X138130000Y-124022982D01*
X138080348Y-123976356D01*
X138077507Y-123973602D01*
X138057770Y-123953865D01*
X138054573Y-123951385D01*
X138045551Y-123943680D01*
X138030843Y-123929868D01*
X138013321Y-123913414D01*
X138006375Y-123909595D01*
X138006372Y-123909593D01*
X137995566Y-123903652D01*
X137979047Y-123892801D01*
X137978583Y-123892441D01*
X137963041Y-123880386D01*
X137955772Y-123877241D01*
X137955768Y-123877238D01*
X137922463Y-123862826D01*
X137911813Y-123857609D01*
X137873060Y-123836305D01*
X137853437Y-123831267D01*
X137834734Y-123824863D01*
X137823420Y-123819967D01*
X137823419Y-123819967D01*
X137816145Y-123816819D01*
X137808322Y-123815580D01*
X137808312Y-123815577D01*
X137772476Y-123809901D01*
X137760856Y-123807495D01*
X137725711Y-123798472D01*
X137725710Y-123798472D01*
X137718030Y-123796500D01*
X137697776Y-123796500D01*
X137678065Y-123794949D01*
X137665886Y-123793020D01*
X137658057Y-123791780D01*
X137650165Y-123792526D01*
X137614039Y-123795941D01*
X137602181Y-123796500D01*
X135896805Y-123796500D01*
X135828684Y-123776498D01*
X135791013Y-123738940D01*
X135702822Y-123602617D01*
X135702820Y-123602614D01*
X135700014Y-123598277D01*
X135549670Y-123433051D01*
X135545619Y-123429852D01*
X135545615Y-123429848D01*
X135378414Y-123297800D01*
X135378410Y-123297798D01*
X135374359Y-123294598D01*
X135333053Y-123271796D01*
X135283084Y-123221364D01*
X135268312Y-123151921D01*
X135293428Y-123085516D01*
X135320780Y-123058909D01*
X135364603Y-123027650D01*
X135499860Y-122931173D01*
X135518324Y-122912774D01*
X135619198Y-122812251D01*
X135658096Y-122773489D01*
X135666511Y-122761779D01*
X135785435Y-122596277D01*
X135788453Y-122592077D01*
X135815522Y-122537308D01*
X135885136Y-122396453D01*
X135885137Y-122396451D01*
X135887430Y-122391811D01*
X135913761Y-122305146D01*
X135945224Y-122252680D01*
X137298253Y-120899652D01*
X137306539Y-120892112D01*
X137313018Y-120888000D01*
X137332241Y-120867530D01*
X137359643Y-120838349D01*
X137362398Y-120835507D01*
X137382135Y-120815770D01*
X137384615Y-120812573D01*
X137392320Y-120803551D01*
X137417159Y-120777100D01*
X137422586Y-120771321D01*
X137426405Y-120764375D01*
X137426407Y-120764372D01*
X137432348Y-120753566D01*
X137443199Y-120737047D01*
X137450758Y-120727301D01*
X137455614Y-120721041D01*
X137458759Y-120713772D01*
X137458762Y-120713768D01*
X137473174Y-120680463D01*
X137478391Y-120669813D01*
X137499695Y-120631060D01*
X137504733Y-120611437D01*
X137511137Y-120592734D01*
X137516033Y-120581420D01*
X137516033Y-120581419D01*
X137519181Y-120574145D01*
X137520420Y-120566322D01*
X137520423Y-120566312D01*
X137526099Y-120530476D01*
X137528505Y-120518856D01*
X137537528Y-120483711D01*
X137537528Y-120483710D01*
X137539500Y-120476030D01*
X137539500Y-120455776D01*
X137541051Y-120436065D01*
X137542980Y-120423886D01*
X137544220Y-120416057D01*
X137540059Y-120372038D01*
X137539500Y-120360181D01*
X137539500Y-118812524D01*
X137559502Y-118744403D01*
X137571858Y-118728221D01*
X137645040Y-118646944D01*
X137648339Y-118641231D01*
X137648342Y-118641226D01*
X137718864Y-118519078D01*
X137770247Y-118470085D01*
X137839960Y-118456649D01*
X137905871Y-118483036D01*
X137917078Y-118492983D01*
X137990878Y-118566783D01*
X138024904Y-118629095D01*
X138027093Y-118642706D01*
X138044458Y-118807928D01*
X138103473Y-118989556D01*
X138198960Y-119154944D01*
X138326747Y-119296866D01*
X138481248Y-119409118D01*
X138487276Y-119411802D01*
X138487278Y-119411803D01*
X138649681Y-119484109D01*
X138655712Y-119486794D01*
X138749113Y-119506647D01*
X138836056Y-119525128D01*
X138836061Y-119525128D01*
X138842513Y-119526500D01*
X139033487Y-119526500D01*
X139039939Y-119525128D01*
X139039944Y-119525128D01*
X139126887Y-119506647D01*
X139220288Y-119486794D01*
X139226319Y-119484109D01*
X139388722Y-119411803D01*
X139388724Y-119411802D01*
X139394752Y-119409118D01*
X139549253Y-119296866D01*
X139677040Y-119154944D01*
X139772527Y-118989556D01*
X139831542Y-118807928D01*
X139836143Y-118764158D01*
X139850814Y-118624565D01*
X139851504Y-118618000D01*
X139831542Y-118428072D01*
X139772527Y-118246444D01*
X139745489Y-118199612D01*
X139691810Y-118106638D01*
X139677040Y-118081056D01*
X139549253Y-117939134D01*
X139394752Y-117826882D01*
X139388724Y-117824198D01*
X139388722Y-117824197D01*
X139226319Y-117751891D01*
X139226318Y-117751891D01*
X139220288Y-117749206D01*
X139126887Y-117729353D01*
X139039944Y-117710872D01*
X139039939Y-117710872D01*
X139033487Y-117709500D01*
X138977594Y-117709500D01*
X138909473Y-117689498D01*
X138888499Y-117672595D01*
X137633652Y-116417747D01*
X137626112Y-116409461D01*
X137622000Y-116402982D01*
X137572348Y-116356356D01*
X137569507Y-116353602D01*
X137549770Y-116333865D01*
X137546573Y-116331385D01*
X137537551Y-116323680D01*
X137511100Y-116298841D01*
X137505321Y-116293414D01*
X137498375Y-116289595D01*
X137498372Y-116289593D01*
X137487566Y-116283652D01*
X137471047Y-116272801D01*
X137470583Y-116272441D01*
X137455041Y-116260386D01*
X137447772Y-116257241D01*
X137447768Y-116257238D01*
X137414463Y-116242826D01*
X137403813Y-116237609D01*
X137365060Y-116216305D01*
X137345437Y-116211267D01*
X137326734Y-116204863D01*
X137315420Y-116199967D01*
X137315419Y-116199967D01*
X137308145Y-116196819D01*
X137300322Y-116195580D01*
X137300312Y-116195577D01*
X137264476Y-116189901D01*
X137252856Y-116187495D01*
X137217711Y-116178472D01*
X137217710Y-116178472D01*
X137210030Y-116176500D01*
X137189776Y-116176500D01*
X137170065Y-116174949D01*
X137157886Y-116173020D01*
X137150057Y-116171780D01*
X137142165Y-116172526D01*
X137106039Y-116175941D01*
X137094181Y-116176500D01*
X135896805Y-116176500D01*
X135828684Y-116156498D01*
X135791013Y-116118940D01*
X135702822Y-115982617D01*
X135702820Y-115982614D01*
X135700014Y-115978277D01*
X135549670Y-115813051D01*
X135545619Y-115809852D01*
X135545615Y-115809848D01*
X135378414Y-115677800D01*
X135378410Y-115677798D01*
X135374359Y-115674598D01*
X135178789Y-115566638D01*
X135173920Y-115564914D01*
X135173916Y-115564912D01*
X134973087Y-115493795D01*
X134973083Y-115493794D01*
X134968212Y-115492069D01*
X134963119Y-115491162D01*
X134963116Y-115491161D01*
X134753373Y-115453800D01*
X134753367Y-115453799D01*
X134748284Y-115452894D01*
X134674452Y-115451992D01*
X134530081Y-115450228D01*
X134530079Y-115450228D01*
X134524911Y-115450165D01*
X134304091Y-115483955D01*
X134091756Y-115553357D01*
X133893607Y-115656507D01*
X133889474Y-115659610D01*
X133889471Y-115659612D01*
X133719100Y-115787530D01*
X133714965Y-115790635D01*
X133700071Y-115806221D01*
X133565614Y-115946922D01*
X133560629Y-115952138D01*
X133434743Y-116136680D01*
X133396011Y-116220121D01*
X133359471Y-116298841D01*
X133340688Y-116339305D01*
X133280989Y-116554570D01*
X133257251Y-116776695D01*
X133257548Y-116781848D01*
X133257548Y-116781851D01*
X133268137Y-116965500D01*
X133270110Y-116999715D01*
X133271247Y-117004761D01*
X133271248Y-117004767D01*
X133284935Y-117065499D01*
X133319222Y-117217639D01*
X133403266Y-117424616D01*
X133519987Y-117615088D01*
X133666250Y-117783938D01*
X133788122Y-117885118D01*
X133822663Y-117913794D01*
X133838126Y-117926632D01*
X133852876Y-117935251D01*
X133911445Y-117969476D01*
X133960169Y-118021114D01*
X133973240Y-118090897D01*
X133946509Y-118156669D01*
X133906055Y-118190027D01*
X133893607Y-118196507D01*
X133889474Y-118199610D01*
X133889471Y-118199612D01*
X133747501Y-118306206D01*
X133714965Y-118330635D01*
X133560629Y-118492138D01*
X133434743Y-118676680D01*
X133419003Y-118710590D01*
X133342907Y-118874525D01*
X133340688Y-118879305D01*
X133280989Y-119094570D01*
X133257251Y-119316695D01*
X133257548Y-119321848D01*
X133257548Y-119321851D01*
X133263011Y-119416590D01*
X133270110Y-119539715D01*
X133271247Y-119544761D01*
X133271248Y-119544767D01*
X133291119Y-119632939D01*
X133319222Y-119757639D01*
X133377075Y-119900115D01*
X133397610Y-119950686D01*
X133403266Y-119964616D01*
X133405965Y-119969020D01*
X133516579Y-120149526D01*
X133519987Y-120155088D01*
X133666250Y-120323938D01*
X133838126Y-120466632D01*
X133908595Y-120507811D01*
X133911445Y-120509476D01*
X133960169Y-120561114D01*
X133973240Y-120630897D01*
X133946509Y-120696669D01*
X133906055Y-120730027D01*
X133893607Y-120736507D01*
X133889474Y-120739610D01*
X133889471Y-120739612D01*
X133719100Y-120867530D01*
X133714965Y-120870635D01*
X133560629Y-121032138D01*
X133434743Y-121216680D01*
X133432564Y-121221375D01*
X133357566Y-121382945D01*
X133340688Y-121419305D01*
X133280989Y-121634570D01*
X133280440Y-121639707D01*
X133279456Y-121648913D01*
X133257251Y-121856695D01*
X133257548Y-121861848D01*
X133257548Y-121861851D01*
X133269812Y-122074547D01*
X133270110Y-122079715D01*
X133271247Y-122084761D01*
X133271248Y-122084767D01*
X133289999Y-122167970D01*
X133319222Y-122297639D01*
X133403266Y-122504616D01*
X133422134Y-122535406D01*
X133514384Y-122685944D01*
X133519987Y-122695088D01*
X133666250Y-122863938D01*
X133838126Y-123006632D01*
X133908595Y-123047811D01*
X133911445Y-123049476D01*
X133960169Y-123101114D01*
X133973240Y-123170897D01*
X133946509Y-123236669D01*
X133906055Y-123270027D01*
X133893607Y-123276507D01*
X133889474Y-123279610D01*
X133889471Y-123279612D01*
X133719100Y-123407530D01*
X133714965Y-123410635D01*
X133711393Y-123414373D01*
X133576702Y-123555319D01*
X133560629Y-123572138D01*
X133557715Y-123576410D01*
X133557714Y-123576411D01*
X133549954Y-123587787D01*
X133434743Y-123756680D01*
X133396011Y-123840121D01*
X133354561Y-123929419D01*
X133340688Y-123959305D01*
X133280989Y-124174570D01*
X133257251Y-124396695D01*
X98806500Y-124396695D01*
X98806500Y-123509655D01*
X104835619Y-123509655D01*
X104842674Y-123519628D01*
X104873680Y-123545552D01*
X104880599Y-123550580D01*
X105105273Y-123691516D01*
X105112808Y-123695557D01*
X105354521Y-123804695D01*
X105362552Y-123807681D01*
X105616833Y-123883003D01*
X105625185Y-123884870D01*
X105887341Y-123924985D01*
X105895875Y-123925701D01*
X106161046Y-123929868D01*
X106169597Y-123929419D01*
X106432884Y-123897558D01*
X106441285Y-123895956D01*
X106697825Y-123828654D01*
X106705927Y-123825927D01*
X106950950Y-123724435D01*
X106958618Y-123720629D01*
X107187599Y-123586823D01*
X107194680Y-123582010D01*
X107274656Y-123519302D01*
X107283126Y-123507443D01*
X107276609Y-123495819D01*
X106072813Y-122292023D01*
X106058869Y-122284409D01*
X106057036Y-122284540D01*
X106050421Y-122288791D01*
X104842911Y-123496301D01*
X104835619Y-123509655D01*
X98806500Y-123509655D01*
X98806500Y-121903205D01*
X104047666Y-121903205D01*
X104062933Y-122167970D01*
X104064006Y-122176471D01*
X104115066Y-122436723D01*
X104117277Y-122444975D01*
X104203185Y-122695895D01*
X104206500Y-122703780D01*
X104325665Y-122940714D01*
X104330021Y-122948080D01*
X104459348Y-123136251D01*
X104469602Y-123144595D01*
X104483343Y-123137449D01*
X105687979Y-121932813D01*
X105694357Y-121921133D01*
X106424409Y-121921133D01*
X106424540Y-121922966D01*
X106428791Y-121929581D01*
X107635731Y-123136521D01*
X107647940Y-123143188D01*
X107659440Y-123134498D01*
X107756832Y-123001914D01*
X107761419Y-122994686D01*
X107887963Y-122761622D01*
X107891531Y-122753828D01*
X107985272Y-122505751D01*
X107987749Y-122497545D01*
X108046955Y-122239039D01*
X108048295Y-122230578D01*
X108072032Y-121964617D01*
X108072278Y-121959678D01*
X108072667Y-121922486D01*
X108072524Y-121917520D01*
X108054363Y-121651124D01*
X108053202Y-121642650D01*
X107999420Y-121382945D01*
X107997121Y-121374710D01*
X107908589Y-121124706D01*
X107905192Y-121116855D01*
X107783551Y-120881179D01*
X107779123Y-120873867D01*
X107660032Y-120704418D01*
X107649510Y-120696038D01*
X107636122Y-120703090D01*
X106432023Y-121907189D01*
X106424409Y-121921133D01*
X105694357Y-121921133D01*
X105695593Y-121918869D01*
X105695462Y-121917036D01*
X105691211Y-121910421D01*
X104483815Y-120703025D01*
X104471805Y-120696467D01*
X104460065Y-120705435D01*
X104351936Y-120855912D01*
X104347419Y-120863197D01*
X104223326Y-121097568D01*
X104219840Y-121105396D01*
X104128701Y-121354447D01*
X104126312Y-121362671D01*
X104069813Y-121621796D01*
X104068564Y-121630251D01*
X104047755Y-121894654D01*
X104047666Y-121903205D01*
X98806500Y-121903205D01*
X98806500Y-120332501D01*
X104836585Y-120332501D01*
X104842981Y-120343771D01*
X106047189Y-121547979D01*
X106061133Y-121555593D01*
X106062966Y-121555462D01*
X106069581Y-121551211D01*
X107276605Y-120344187D01*
X107283796Y-120331018D01*
X107276474Y-120320781D01*
X107229234Y-120282116D01*
X107222262Y-120277161D01*
X106996123Y-120138583D01*
X106988553Y-120134625D01*
X106745705Y-120028023D01*
X106737645Y-120025121D01*
X106482593Y-119952468D01*
X106474215Y-119950686D01*
X106211657Y-119913319D01*
X106203112Y-119912692D01*
X105937909Y-119911303D01*
X105929375Y-119911840D01*
X105666434Y-119946457D01*
X105658036Y-119948150D01*
X105402239Y-120018128D01*
X105394144Y-120020947D01*
X105150200Y-120124998D01*
X105142578Y-120128882D01*
X104915014Y-120265076D01*
X104907982Y-120269963D01*
X104845054Y-120320378D01*
X104836585Y-120332501D01*
X98806500Y-120332501D01*
X98806500Y-111760000D01*
X124308496Y-111760000D01*
X124328458Y-111949928D01*
X124387473Y-112131556D01*
X124482960Y-112296944D01*
X124610747Y-112438866D01*
X124765248Y-112551118D01*
X124771276Y-112553802D01*
X124771278Y-112553803D01*
X124926031Y-112622703D01*
X124939712Y-112628794D01*
X125019921Y-112645843D01*
X125120056Y-112667128D01*
X125120061Y-112667128D01*
X125126513Y-112668500D01*
X125182405Y-112668500D01*
X125250526Y-112688502D01*
X125271501Y-112705405D01*
X125879597Y-113313502D01*
X125913622Y-113375814D01*
X125916501Y-113402597D01*
X125916501Y-119785501D01*
X125896499Y-119853622D01*
X125842843Y-119900115D01*
X125790501Y-119911501D01*
X125001867Y-119911501D01*
X124939685Y-119918256D01*
X124803296Y-119969386D01*
X124686740Y-120056740D01*
X124599386Y-120173296D01*
X124548256Y-120309685D01*
X124541501Y-120371867D01*
X124541501Y-123468135D01*
X124548256Y-123530317D01*
X124599386Y-123666706D01*
X124686740Y-123783262D01*
X124803296Y-123870616D01*
X124939685Y-123921746D01*
X125001867Y-123928501D01*
X128098135Y-123928501D01*
X128160317Y-123921746D01*
X128296706Y-123870616D01*
X128413262Y-123783262D01*
X128500616Y-123666706D01*
X128551746Y-123530317D01*
X128558501Y-123468135D01*
X128558501Y-120371867D01*
X128551746Y-120309685D01*
X128500616Y-120173296D01*
X128413262Y-120056740D01*
X128296706Y-119969386D01*
X128160317Y-119918256D01*
X128098135Y-119911501D01*
X127309501Y-119911501D01*
X127241380Y-119891499D01*
X127194887Y-119837843D01*
X127183501Y-119785501D01*
X127183501Y-113166768D01*
X127184028Y-113155585D01*
X127185703Y-113148092D01*
X127183563Y-113080015D01*
X127183501Y-113076056D01*
X127183501Y-113048145D01*
X127182996Y-113044145D01*
X127182063Y-113032302D01*
X127180923Y-112996031D01*
X127180674Y-112988112D01*
X127175022Y-112968658D01*
X127171014Y-112949301D01*
X127169469Y-112937071D01*
X127169469Y-112937070D01*
X127168475Y-112929204D01*
X127164325Y-112918722D01*
X127152197Y-112888089D01*
X127148352Y-112876859D01*
X127138230Y-112842018D01*
X127138230Y-112842017D01*
X127136019Y-112834408D01*
X127131986Y-112827589D01*
X127131984Y-112827584D01*
X127125708Y-112816973D01*
X127117013Y-112799225D01*
X127109553Y-112780384D01*
X127083565Y-112744614D01*
X127077049Y-112734694D01*
X127058581Y-112703466D01*
X127058579Y-112703463D01*
X127054543Y-112696639D01*
X127040222Y-112682318D01*
X127027381Y-112667284D01*
X127020132Y-112657307D01*
X127015473Y-112650894D01*
X126981396Y-112622703D01*
X126972617Y-112614713D01*
X126169122Y-111811218D01*
X126135096Y-111748906D01*
X126132907Y-111735293D01*
X126116232Y-111576635D01*
X126116232Y-111576633D01*
X126115542Y-111570072D01*
X126056527Y-111388444D01*
X125961040Y-111223056D01*
X125833253Y-111081134D01*
X125678752Y-110968882D01*
X125672724Y-110966198D01*
X125672722Y-110966197D01*
X125510319Y-110893891D01*
X125510318Y-110893891D01*
X125504288Y-110891206D01*
X125410887Y-110871353D01*
X125323944Y-110852872D01*
X125323939Y-110852872D01*
X125317487Y-110851500D01*
X125126513Y-110851500D01*
X125120061Y-110852872D01*
X125120056Y-110852872D01*
X125033113Y-110871353D01*
X124939712Y-110891206D01*
X124933682Y-110893891D01*
X124933681Y-110893891D01*
X124771278Y-110966197D01*
X124771276Y-110966198D01*
X124765248Y-110968882D01*
X124610747Y-111081134D01*
X124482960Y-111223056D01*
X124387473Y-111388444D01*
X124328458Y-111570072D01*
X124308496Y-111760000D01*
X98806500Y-111760000D01*
X98806500Y-62949726D01*
X100096560Y-62949726D01*
X100110715Y-63287455D01*
X100162428Y-63621502D01*
X100251055Y-63947702D01*
X100375490Y-64261990D01*
X100534184Y-64560449D01*
X100536169Y-64563348D01*
X100723166Y-64836451D01*
X100723171Y-64836457D01*
X100725157Y-64839358D01*
X100946030Y-65095241D01*
X100948600Y-65097621D01*
X100948604Y-65097625D01*
X101006136Y-65150900D01*
X101194049Y-65324910D01*
X101196871Y-65326991D01*
X101196874Y-65326993D01*
X101288124Y-65394268D01*
X101466124Y-65525501D01*
X101469161Y-65527255D01*
X101469165Y-65527257D01*
X101585348Y-65594335D01*
X101758862Y-65694513D01*
X101767505Y-65698289D01*
X102065394Y-65828434D01*
X102065404Y-65828438D01*
X102068616Y-65829841D01*
X102071973Y-65830880D01*
X102071978Y-65830882D01*
X102259931Y-65889063D01*
X102391525Y-65929798D01*
X102394981Y-65930457D01*
X102394980Y-65930457D01*
X102720112Y-65992480D01*
X102720118Y-65992481D01*
X102723563Y-65993138D01*
X102908875Y-66007397D01*
X103057095Y-66018802D01*
X103057096Y-66018802D01*
X103060592Y-66019071D01*
X103277424Y-66011499D01*
X103394896Y-66007397D01*
X103394900Y-66007397D01*
X103398411Y-66007274D01*
X103513785Y-65990237D01*
X103729319Y-65958410D01*
X103729325Y-65958409D01*
X103732811Y-65957894D01*
X103736215Y-65956995D01*
X103736218Y-65956994D01*
X104056231Y-65872443D01*
X104056232Y-65872443D01*
X104059622Y-65871547D01*
X104374771Y-65749309D01*
X104674330Y-65592703D01*
X104724866Y-65558616D01*
X104951651Y-65405649D01*
X104951661Y-65405642D01*
X104954566Y-65403682D01*
X105001867Y-65363426D01*
X105209312Y-65186875D01*
X105209313Y-65186874D01*
X105211985Y-65184600D01*
X105277010Y-65115356D01*
X105440969Y-64940759D01*
X105440973Y-64940754D01*
X105443380Y-64938191D01*
X105445485Y-64935377D01*
X105445491Y-64935370D01*
X105643756Y-64670342D01*
X105645865Y-64667523D01*
X105816917Y-64375971D01*
X105818349Y-64372755D01*
X105952972Y-64070387D01*
X105952974Y-64070382D01*
X105954404Y-64067170D01*
X106056613Y-63744967D01*
X106122269Y-63413379D01*
X106150555Y-63076539D01*
X106151735Y-62992000D01*
X106148213Y-62928991D01*
X106133062Y-62658010D01*
X106132866Y-62654502D01*
X106096989Y-62442386D01*
X106077081Y-62324679D01*
X106077080Y-62324674D01*
X106076494Y-62321210D01*
X105983321Y-61996279D01*
X105968295Y-61959823D01*
X105855848Y-61687004D01*
X105855844Y-61686996D01*
X105854510Y-61683759D01*
X105746505Y-61487298D01*
X105693358Y-61390624D01*
X105693355Y-61390620D01*
X105691665Y-61387545D01*
X105496816Y-61111329D01*
X105272392Y-60858554D01*
X105021190Y-60632371D01*
X105018340Y-60630330D01*
X105018333Y-60630325D01*
X104749196Y-60437642D01*
X104749193Y-60437640D01*
X104746342Y-60435599D01*
X104451272Y-60270690D01*
X104139658Y-60139700D01*
X104136289Y-60138709D01*
X104136285Y-60138707D01*
X103818762Y-60045254D01*
X103818752Y-60045252D01*
X103815386Y-60044261D01*
X103811927Y-60043651D01*
X103811918Y-60043649D01*
X103581439Y-60003010D01*
X103482496Y-59985564D01*
X103404852Y-59980679D01*
X103148655Y-59964560D01*
X103148649Y-59964560D01*
X103145137Y-59964339D01*
X103048346Y-59969073D01*
X102811023Y-59980679D01*
X102811014Y-59980680D01*
X102807516Y-59980851D01*
X102804048Y-59981413D01*
X102804045Y-59981413D01*
X102477313Y-60034332D01*
X102477310Y-60034333D01*
X102473838Y-60034895D01*
X102470451Y-60035841D01*
X102470445Y-60035842D01*
X102217719Y-60106405D01*
X102148265Y-60125797D01*
X102105295Y-60143158D01*
X101838117Y-60251104D01*
X101838113Y-60251106D01*
X101834853Y-60252423D01*
X101831766Y-60254092D01*
X101831762Y-60254094D01*
X101540607Y-60411522D01*
X101540601Y-60411526D01*
X101537510Y-60413197D01*
X101259940Y-60606112D01*
X101257298Y-60608425D01*
X101257294Y-60608428D01*
X101149177Y-60703078D01*
X101005605Y-60828766D01*
X100777673Y-61078383D01*
X100578987Y-61351851D01*
X100412022Y-61645763D01*
X100278860Y-61956454D01*
X100181160Y-62280052D01*
X100164473Y-62370973D01*
X100128832Y-62565167D01*
X100120140Y-62612524D01*
X100098010Y-62928991D01*
X100096560Y-62949726D01*
X98806500Y-62949726D01*
X98806500Y-61013250D01*
X98808246Y-60992345D01*
X98810770Y-60977344D01*
X98810770Y-60977341D01*
X98811576Y-60972552D01*
X98811729Y-60960000D01*
X98810003Y-60947947D01*
X98809001Y-60921845D01*
X98823340Y-60703078D01*
X98825491Y-60686738D01*
X98874111Y-60442307D01*
X98878375Y-60426394D01*
X98958485Y-60190398D01*
X98964791Y-60175174D01*
X99075016Y-59951658D01*
X99083257Y-59937384D01*
X99221713Y-59730171D01*
X99231746Y-59717095D01*
X99396068Y-59529722D01*
X99407722Y-59518068D01*
X99595095Y-59353746D01*
X99608171Y-59343713D01*
X99815384Y-59205257D01*
X99829658Y-59197016D01*
X100053174Y-59086791D01*
X100068400Y-59080484D01*
X100304394Y-59000375D01*
X100320304Y-58996112D01*
X100502529Y-58959865D01*
X100564738Y-58947491D01*
X100581078Y-58945340D01*
X100729866Y-58935587D01*
X100796237Y-58931237D01*
X100819350Y-58932267D01*
X100822854Y-58932310D01*
X100831724Y-58933691D01*
X100840626Y-58932527D01*
X100840628Y-58932527D01*
X100857449Y-58930327D01*
X100863286Y-58929564D01*
X100879621Y-58928500D01*
X125037406Y-58928500D01*
X125105527Y-58948502D01*
G37*
%TD.AperFunction*%
%TD*%
M02*
