%TF.GenerationSoftware,KiCad,Pcbnew,(6.0.10)*%
%TF.CreationDate,2023-01-20T13:23:35+09:00*%
%TF.ProjectId,PCB_Colour_Pallette,5043425f-436f-46c6-9f75-725f50616c6c,rev?*%
%TF.SameCoordinates,Original*%
%TF.FileFunction,Legend,Top*%
%TF.FilePolarity,Positive*%
%FSLAX46Y46*%
G04 Gerber Fmt 4.6, Leading zero omitted, Abs format (unit mm)*
G04 Created by KiCad (PCBNEW (6.0.10)) date 2023-01-20 13:23:35*
%MOMM*%
%LPD*%
G01*
G04 APERTURE LIST*
G04 APERTURE END LIST*
G36*
X83762121Y-55900002D02*
G01*
X83808614Y-55953658D01*
X83820000Y-56006000D01*
X83820000Y-63496194D01*
X83819770Y-63503802D01*
X83801941Y-63798556D01*
X83800107Y-63813660D01*
X83747566Y-64100364D01*
X83743925Y-64115137D01*
X83657208Y-64393422D01*
X83651812Y-64407649D01*
X83532187Y-64673446D01*
X83525116Y-64686919D01*
X83374320Y-64936364D01*
X83365677Y-64948885D01*
X83185917Y-65178333D01*
X83175827Y-65189722D01*
X82969722Y-65395827D01*
X82958333Y-65405917D01*
X82728885Y-65585677D01*
X82716364Y-65594320D01*
X82466919Y-65745116D01*
X82453446Y-65752187D01*
X82187649Y-65871812D01*
X82173422Y-65877208D01*
X81895137Y-65963925D01*
X81880364Y-65967566D01*
X81593660Y-66020107D01*
X81578556Y-66021941D01*
X81283802Y-66039770D01*
X81276194Y-66040000D01*
X35563806Y-66040000D01*
X35556198Y-66039770D01*
X35261444Y-66021941D01*
X35246340Y-66020107D01*
X34959636Y-65967566D01*
X34944863Y-65963925D01*
X34666578Y-65877208D01*
X34652351Y-65871812D01*
X34386554Y-65752187D01*
X34373081Y-65745116D01*
X34123636Y-65594320D01*
X34111115Y-65585677D01*
X33881667Y-65405917D01*
X33870278Y-65395827D01*
X33664173Y-65189722D01*
X33654083Y-65178333D01*
X33474323Y-64948885D01*
X33465680Y-64936364D01*
X33314884Y-64686919D01*
X33307813Y-64673446D01*
X33188188Y-64407649D01*
X33182792Y-64393422D01*
X33096075Y-64115137D01*
X33092434Y-64100364D01*
X33039893Y-63813660D01*
X33038059Y-63798556D01*
X33020230Y-63503802D01*
X33020000Y-63496194D01*
X33020000Y-56006000D01*
X33040002Y-55937879D01*
X33093658Y-55891386D01*
X33146000Y-55880000D01*
X83694000Y-55880000D01*
X83762121Y-55900002D01*
G37*
M02*
