%TF.GenerationSoftware,KiCad,Pcbnew,(6.0.10)*%
%TF.CreationDate,2023-01-20T13:23:35+09:00*%
%TF.ProjectId,PCB_Colour_Pallette,5043425f-436f-46c6-9f75-725f50616c6c,rev?*%
%TF.SameCoordinates,Original*%
%TF.FileFunction,Copper,L1,Top*%
%TF.FilePolarity,Positive*%
%FSLAX46Y46*%
G04 Gerber Fmt 4.6, Leading zero omitted, Abs format (unit mm)*
G04 Created by KiCad (PCBNEW (6.0.10)) date 2023-01-20 13:23:35*
%MOMM*%
%LPD*%
G01*
G04 APERTURE LIST*
G04 APERTURE END LIST*
%TA.AperFunction,NonConductor*%
G36*
X83761121Y-33040002D02*
G01*
X83807614Y-33093658D01*
X83819000Y-33146000D01*
X83819000Y-40514000D01*
X83798998Y-40582121D01*
X83745342Y-40628614D01*
X83693000Y-40640000D01*
X33147000Y-40640000D01*
X33078879Y-40619998D01*
X33032386Y-40566342D01*
X33021000Y-40514000D01*
X33021000Y-33146000D01*
X33041002Y-33077879D01*
X33094658Y-33031386D01*
X33147000Y-33020000D01*
X83693000Y-33020000D01*
X83761121Y-33040002D01*
G37*
%TD.AperFunction*%
%TA.AperFunction,NonConductor*%
G36*
X83761121Y-48280002D02*
G01*
X83807614Y-48333658D01*
X83819000Y-48386000D01*
X83819000Y-55754000D01*
X83798998Y-55822121D01*
X83745342Y-55868614D01*
X83693000Y-55880000D01*
X58420000Y-55880000D01*
X58420000Y-65913000D01*
X58399998Y-65981121D01*
X58346342Y-66027614D01*
X58294000Y-66039000D01*
X35563543Y-66039000D01*
X35556478Y-66038802D01*
X35329110Y-66026033D01*
X35328567Y-66026001D01*
X35280411Y-66023088D01*
X35266914Y-66021538D01*
X35092550Y-65991913D01*
X35090942Y-65991629D01*
X34988856Y-65972920D01*
X34976688Y-65970060D01*
X34817213Y-65924117D01*
X34814624Y-65923341D01*
X34756866Y-65905343D01*
X34705214Y-65889247D01*
X34694482Y-65885361D01*
X34598235Y-65845494D01*
X34545261Y-65823552D01*
X34541781Y-65822048D01*
X34433336Y-65773241D01*
X34424106Y-65768624D01*
X34284684Y-65691568D01*
X34280499Y-65689147D01*
X34176880Y-65626508D01*
X34169176Y-65621455D01*
X34040222Y-65529956D01*
X34035443Y-65526393D01*
X33939353Y-65451111D01*
X33933123Y-65445896D01*
X33815605Y-65340875D01*
X33810470Y-65336019D01*
X33723981Y-65249530D01*
X33719125Y-65244395D01*
X33614104Y-65126877D01*
X33608889Y-65120647D01*
X33533607Y-65024557D01*
X33530044Y-65019778D01*
X33438545Y-64890824D01*
X33433492Y-64883120D01*
X33370853Y-64779501D01*
X33368422Y-64775298D01*
X33291380Y-64635901D01*
X33286759Y-64626664D01*
X33237952Y-64518219D01*
X33236442Y-64514725D01*
X33174639Y-64365518D01*
X33170753Y-64354786D01*
X33136664Y-64245392D01*
X33135883Y-64242787D01*
X33089940Y-64083312D01*
X33087080Y-64071144D01*
X33068371Y-63969058D01*
X33068087Y-63967450D01*
X33038462Y-63793086D01*
X33036912Y-63779589D01*
X33033999Y-63731433D01*
X33033967Y-63730890D01*
X33021198Y-63503522D01*
X33021000Y-63496457D01*
X33021000Y-48386000D01*
X33041002Y-48317879D01*
X33094658Y-48271386D01*
X33147000Y-48260000D01*
X83693000Y-48260000D01*
X83761121Y-48280002D01*
G37*
%TD.AperFunction*%
M02*
