%TF.GenerationSoftware,KiCad,Pcbnew,(6.0.10)*%
%TF.CreationDate,2023-01-19T16:24:11+09:00*%
%TF.ProjectId,Test2,54657374-322e-46b6-9963-61645f706362,rev?*%
%TF.SameCoordinates,Original*%
%TF.FileFunction,Copper,L2,Bot*%
%TF.FilePolarity,Positive*%
%FSLAX46Y46*%
G04 Gerber Fmt 4.6, Leading zero omitted, Abs format (unit mm)*
G04 Created by KiCad (PCBNEW (6.0.10)) date 2023-01-19 16:24:11*
%MOMM*%
%LPD*%
G01*
G04 APERTURE LIST*
%TA.AperFunction,ComponentPad*%
%ADD10C,1.600000*%
%TD*%
%TA.AperFunction,ComponentPad*%
%ADD11R,1.700000X1.700000*%
%TD*%
%TA.AperFunction,ComponentPad*%
%ADD12O,1.700000X1.700000*%
%TD*%
%TA.AperFunction,ViaPad*%
%ADD13C,0.800000*%
%TD*%
%TA.AperFunction,Conductor*%
%ADD14C,0.250000*%
%TD*%
G04 APERTURE END LIST*
D10*
%TO.P,C1,1*%
%TO.N,Net-(C1-Pad1)*%
X34310000Y-22860000D03*
%TO.P,C1,2*%
%TO.N,Net-(Q1-Pad1)*%
X36810000Y-22860000D03*
%TD*%
%TO.P,C3,1*%
%TO.N,Net-(R17-Pad2)*%
X78085000Y-18415000D03*
%TO.P,C3,2*%
%TO.N,Net-(R19-Pad2)*%
X75585000Y-18415000D03*
%TD*%
%TO.P,C2,1*%
%TO.N,Net-(R10-Pad2)*%
X66655000Y-22225000D03*
%TO.P,C2,2*%
%TO.N,Net-(R11-Pad2)*%
X64155000Y-22225000D03*
%TD*%
D11*
%TO.P,KCS,1,Pin_1*%
%TO.N,GND*%
X98425000Y-21590000D03*
D12*
%TO.P,KCS,2,Pin_2*%
%TO.N,Net-(J2-Pad2)*%
X98425000Y-19050000D03*
%TD*%
%TO.P,G,3,Pin_3*%
%TO.N,Net-(R1-Pad1)*%
X29845000Y-20305000D03*
%TO.P,G,2,Pin_2*%
%TO.N,Net-(R7-Pad1)*%
X29845000Y-22845000D03*
D11*
%TO.P,G,1,Pin_1*%
%TO.N,GND*%
X29845000Y-25385000D03*
%TD*%
D13*
%TO.N,Net-(J2-Pad2)*%
X98425000Y-24130000D03*
%TO.N,Net-(R19-Pad2)*%
X91440000Y-24130000D03*
%TO.N,Net-(R17-Pad2)*%
X95885000Y-24765000D03*
X80010000Y-17780000D03*
%TO.N,Net-(R16-Pad2)*%
X95885000Y-22860000D03*
X83185000Y-22225000D03*
%TO.N,Net-(R20-Pad2)*%
X90170000Y-20955000D03*
X81280000Y-23495000D03*
%TO.N,Net-(R19-Pad2)*%
X81280000Y-24765000D03*
X75565000Y-24765000D03*
%TO.N,Net-(R14-Pad2)*%
X70485000Y-24765000D03*
X72390000Y-20320000D03*
%TO.N,Net-(R12-Pad1)*%
X61595000Y-23495000D03*
%TO.N,Net-(R7-Pad1)*%
X62611000Y-17653000D03*
%TO.N,Net-(R12-Pad1)*%
X62611000Y-19050000D03*
%TO.N,Net-(R10-Pad2)*%
X54610000Y-22860000D03*
X65405000Y-25400000D03*
%TO.N,Net-(R7-Pad1)*%
X69850000Y-22225000D03*
%TO.N,GND*%
X32385000Y-24765000D03*
X95885000Y-26035000D03*
X75565000Y-26670000D03*
X65405000Y-26670000D03*
X48260000Y-27940000D03*
%TO.N,Net-(R5-Pad2)*%
X52070000Y-23495000D03*
X45085000Y-22860000D03*
%TO.N,Net-(Q2-Pad2)*%
X48260000Y-20320000D03*
X43180000Y-22860000D03*
X48260000Y-26035000D03*
%TO.N,Net-(Q1-Pad1)*%
X40005000Y-22860000D03*
X48260000Y-18415000D03*
%TO.N,Net-(R7-Pad1)*%
X38100000Y-17145000D03*
X32385000Y-20320000D03*
%TD*%
D14*
%TO.N,Net-(J2-Pad2)*%
X100330000Y-20955000D02*
X98425000Y-19050000D01*
X100330000Y-23495000D02*
X100330000Y-20955000D01*
X99695000Y-24130000D02*
X100330000Y-23495000D01*
X98425000Y-24130000D02*
X99695000Y-24130000D01*
%TO.N,GND*%
X97155000Y-22225000D02*
X97790000Y-21590000D01*
X97790000Y-21590000D02*
X98425000Y-21590000D01*
X97155000Y-24765000D02*
X97155000Y-22225000D01*
X95885000Y-26035000D02*
X97155000Y-24765000D01*
%TO.N,Net-(R16-Pad2)*%
X95250000Y-22225000D02*
X83185000Y-22225000D01*
X95885000Y-22860000D02*
X95250000Y-22225000D01*
%TO.N,Net-(R17-Pad2)*%
X92075000Y-17780000D02*
X80010000Y-17780000D01*
X96610000Y-22315000D02*
X92075000Y-17780000D01*
X95885000Y-24765000D02*
X96610000Y-24040000D01*
X96610000Y-24040000D02*
X96610000Y-22315000D01*
%TO.N,GND*%
X76200000Y-26035000D02*
X95885000Y-26035000D01*
X75565000Y-26670000D02*
X76200000Y-26035000D01*
%TO.N,Net-(R19-Pad2)*%
X81280000Y-24765000D02*
X75565000Y-24765000D01*
X90170000Y-22860000D02*
X91440000Y-24130000D01*
X81280000Y-24765000D02*
X81915000Y-24765000D01*
X81915000Y-24765000D02*
X83820000Y-22860000D01*
X83820000Y-22860000D02*
X90170000Y-22860000D01*
%TO.N,Net-(R20-Pad2)*%
X81915000Y-20955000D02*
X81280000Y-21590000D01*
X90170000Y-20955000D02*
X81915000Y-20955000D01*
X81280000Y-21590000D02*
X81280000Y-23495000D01*
%TO.N,Net-(R19-Pad2)*%
X75585000Y-24745000D02*
X75585000Y-18415000D01*
X75565000Y-24765000D02*
X75585000Y-24745000D01*
%TO.N,Net-(R14-Pad2)*%
X72390000Y-22860000D02*
X70485000Y-24765000D01*
X72390000Y-20320000D02*
X72390000Y-22860000D01*
%TO.N,Net-(R10-Pad2)*%
X65405000Y-23475000D02*
X66655000Y-22225000D01*
X65405000Y-25400000D02*
X65405000Y-23475000D01*
%TO.N,Net-(R12-Pad1)*%
X61595000Y-19685000D02*
X62230000Y-19050000D01*
X61595000Y-23495000D02*
X61595000Y-19685000D01*
X62230000Y-19050000D02*
X62611000Y-19050000D01*
%TO.N,Net-(R7-Pad1)*%
X69850000Y-21590000D02*
X69850000Y-22225000D01*
X65913000Y-17653000D02*
X69850000Y-21590000D01*
X62611000Y-17653000D02*
X65913000Y-17653000D01*
%TO.N,Net-(R10-Pad2)*%
X57150000Y-25400000D02*
X65405000Y-25400000D01*
X54610000Y-22860000D02*
X57150000Y-25400000D01*
%TO.N,GND*%
X65405000Y-26670000D02*
X75565000Y-26670000D01*
X64135000Y-27940000D02*
X65405000Y-26670000D01*
X48260000Y-27940000D02*
X64135000Y-27940000D01*
X43815000Y-27940000D02*
X48260000Y-27940000D01*
X40640000Y-24765000D02*
X43815000Y-27940000D01*
X32385000Y-24765000D02*
X40640000Y-24765000D01*
%TO.N,Net-(Q2-Pad2)*%
X44450000Y-26035000D02*
X48260000Y-26035000D01*
X43180000Y-24765000D02*
X44450000Y-26035000D01*
X43180000Y-22860000D02*
X43180000Y-24765000D01*
%TO.N,Net-(R5-Pad2)*%
X45720000Y-23495000D02*
X52070000Y-23495000D01*
X45085000Y-22860000D02*
X45720000Y-23495000D01*
%TO.N,Net-(Q2-Pad2)*%
X43815000Y-20320000D02*
X48260000Y-20320000D01*
X43180000Y-20955000D02*
X43815000Y-20320000D01*
X43180000Y-22860000D02*
X43180000Y-20955000D01*
%TO.N,Net-(Q1-Pad1)*%
X41275000Y-18415000D02*
X48260000Y-18415000D01*
X40005000Y-19685000D02*
X41275000Y-18415000D01*
X40005000Y-22860000D02*
X40005000Y-19685000D01*
%TO.N,Net-(R7-Pad1)*%
X32385000Y-19685000D02*
X32385000Y-20320000D01*
X38100000Y-17145000D02*
X34925000Y-17145000D01*
X34925000Y-17145000D02*
X32385000Y-19685000D01*
%TD*%
M02*
