%TF.GenerationSoftware,KiCad,Pcbnew,(6.0.10)*%
%TF.CreationDate,2023-01-19T16:24:11+09:00*%
%TF.ProjectId,Test2,54657374-322e-46b6-9963-61645f706362,rev?*%
%TF.SameCoordinates,Original*%
%TF.FileFunction,Soldermask,Top*%
%TF.FilePolarity,Negative*%
%FSLAX46Y46*%
G04 Gerber Fmt 4.6, Leading zero omitted, Abs format (unit mm)*
G04 Created by KiCad (PCBNEW (6.0.10)) date 2023-01-19 16:24:11*
%MOMM*%
%LPD*%
G01*
G04 APERTURE LIST*
G04 Aperture macros list*
%AMRoundRect*
0 Rectangle with rounded corners*
0 $1 Rounding radius*
0 $2 $3 $4 $5 $6 $7 $8 $9 X,Y pos of 4 corners*
0 Add a 4 corners polygon primitive as box body*
4,1,4,$2,$3,$4,$5,$6,$7,$8,$9,$2,$3,0*
0 Add four circle primitives for the rounded corners*
1,1,$1+$1,$2,$3*
1,1,$1+$1,$4,$5*
1,1,$1+$1,$6,$7*
1,1,$1+$1,$8,$9*
0 Add four rect primitives between the rounded corners*
20,1,$1+$1,$2,$3,$4,$5,0*
20,1,$1+$1,$4,$5,$6,$7,0*
20,1,$1+$1,$6,$7,$8,$9,0*
20,1,$1+$1,$8,$9,$2,$3,0*%
G04 Aperture macros list end*
%ADD10C,1.600000*%
%ADD11R,1.700000X1.700000*%
%ADD12O,1.700000X1.700000*%
%ADD13RoundRect,0.150000X0.150000X-0.587500X0.150000X0.587500X-0.150000X0.587500X-0.150000X-0.587500X0*%
%ADD14RoundRect,0.150000X-0.587500X-0.150000X0.587500X-0.150000X0.587500X0.150000X-0.587500X0.150000X0*%
%ADD15RoundRect,0.150000X0.587500X0.150000X-0.587500X0.150000X-0.587500X-0.150000X0.587500X-0.150000X0*%
%ADD16RoundRect,0.250000X-0.625000X0.312500X-0.625000X-0.312500X0.625000X-0.312500X0.625000X0.312500X0*%
%ADD17RoundRect,0.250000X-0.312500X-0.625000X0.312500X-0.625000X0.312500X0.625000X-0.312500X0.625000X0*%
%ADD18RoundRect,0.250000X0.312500X0.625000X-0.312500X0.625000X-0.312500X-0.625000X0.312500X-0.625000X0*%
%ADD19RoundRect,0.250000X0.625000X-0.312500X0.625000X0.312500X-0.625000X0.312500X-0.625000X-0.312500X0*%
G04 APERTURE END LIST*
D10*
%TO.C,C1*%
X34310000Y-22860000D03*
X36810000Y-22860000D03*
%TD*%
%TO.C,C3*%
X78085000Y-18415000D03*
X75585000Y-18415000D03*
%TD*%
%TO.C,C2*%
X66655000Y-22225000D03*
X64155000Y-22225000D03*
%TD*%
D11*
%TO.C,KCS*%
X98425000Y-21590000D03*
D12*
X98425000Y-19050000D03*
%TD*%
%TO.C,G*%
X29845000Y-20305000D03*
X29845000Y-22845000D03*
D11*
X29845000Y-25385000D03*
%TD*%
D13*
%TO.C,Q10*%
X97475000Y-27607500D03*
X99375000Y-27607500D03*
X98425000Y-25732500D03*
%TD*%
D14*
%TO.C,Q9*%
X77167500Y-25085000D03*
X77167500Y-26985000D03*
X79042500Y-26035000D03*
%TD*%
D15*
%TO.C,Q8*%
X92407500Y-22225000D03*
X94282500Y-21275000D03*
X94282500Y-23175000D03*
%TD*%
D13*
%TO.C,Q7*%
X93345000Y-25097500D03*
X94295000Y-26972500D03*
X92395000Y-26972500D03*
%TD*%
D14*
%TO.C,Q6*%
X72087500Y-25085000D03*
X72087500Y-26985000D03*
X73962500Y-26035000D03*
%TD*%
%TO.C,Q5*%
X67007500Y-25085000D03*
X67007500Y-26985000D03*
X68882500Y-26035000D03*
%TD*%
D13*
%TO.C,Q4*%
X57470000Y-26972500D03*
X59370000Y-26972500D03*
X58420000Y-25097500D03*
%TD*%
D14*
%TO.C,Q3*%
X61927500Y-25085000D03*
X61927500Y-26985000D03*
X63802500Y-26035000D03*
%TD*%
%TO.C,Q2*%
X51737500Y-26035000D03*
X49862500Y-26985000D03*
X49862500Y-25085000D03*
%TD*%
%TO.C,Q1*%
X51737500Y-19492500D03*
X49862500Y-20442500D03*
X49862500Y-18542500D03*
%TD*%
D16*
%TO.C,R8*%
X46355000Y-24572500D03*
X46355000Y-27497500D03*
%TD*%
%TO.C,R7*%
X46355000Y-18030000D03*
X46355000Y-20955000D03*
%TD*%
%TO.C,R6*%
X43180000Y-24572500D03*
X43180000Y-27497500D03*
%TD*%
D17*
%TO.C,R23*%
X91882500Y-18415000D03*
X94807500Y-18415000D03*
%TD*%
D16*
%TO.C,R4*%
X40005000Y-24572500D03*
X40005000Y-27497500D03*
%TD*%
%TO.C,R3*%
X40005000Y-18030000D03*
X40005000Y-20955000D03*
%TD*%
D18*
%TO.C,R2*%
X34097500Y-26670000D03*
X37022500Y-26670000D03*
%TD*%
D17*
%TO.C,R1*%
X34097500Y-19050000D03*
X37022500Y-19050000D03*
%TD*%
D16*
%TO.C,R22*%
X89535000Y-24572500D03*
X89535000Y-27497500D03*
%TD*%
%TO.C,R21*%
X88265000Y-20955000D03*
X88265000Y-18030000D03*
%TD*%
D19*
%TO.C,R20*%
X86360000Y-27497500D03*
X86360000Y-24572500D03*
%TD*%
D16*
%TO.C,R19*%
X83185000Y-24572500D03*
X83185000Y-27497500D03*
%TD*%
%TO.C,R18*%
X85090000Y-18030000D03*
X85090000Y-20955000D03*
%TD*%
D19*
%TO.C,R17*%
X81915000Y-20955000D03*
X81915000Y-18030000D03*
%TD*%
D17*
%TO.C,R16*%
X76642500Y-22225000D03*
X79567500Y-22225000D03*
%TD*%
%TO.C,R15*%
X71562500Y-22225000D03*
X74487500Y-22225000D03*
%TD*%
%TO.C,R14*%
X69022500Y-18415000D03*
X71947500Y-18415000D03*
%TD*%
D16*
%TO.C,R13*%
X60960000Y-18030000D03*
X60960000Y-20955000D03*
%TD*%
D17*
%TO.C,R12*%
X63942500Y-18415000D03*
X66867500Y-18415000D03*
%TD*%
D16*
%TO.C,R11*%
X57785000Y-20955000D03*
X57785000Y-18030000D03*
%TD*%
%TO.C,R10*%
X54610000Y-20955000D03*
X54610000Y-18030000D03*
%TD*%
%TO.C,R9*%
X54610000Y-24572500D03*
X54610000Y-27497500D03*
%TD*%
%TO.C,R5*%
X43180000Y-18030000D03*
X43180000Y-20955000D03*
%TD*%
M02*
