%TF.GenerationSoftware,KiCad,Pcbnew,(6.0.10)*%
%TF.CreationDate,2023-01-19T16:24:11+09:00*%
%TF.ProjectId,Test2,54657374-322e-46b6-9963-61645f706362,rev?*%
%TF.SameCoordinates,Original*%
%TF.FileFunction,Copper,L1,Top*%
%TF.FilePolarity,Positive*%
%FSLAX46Y46*%
G04 Gerber Fmt 4.6, Leading zero omitted, Abs format (unit mm)*
G04 Created by KiCad (PCBNEW (6.0.10)) date 2023-01-19 16:24:11*
%MOMM*%
%LPD*%
G01*
G04 APERTURE LIST*
G04 Aperture macros list*
%AMRoundRect*
0 Rectangle with rounded corners*
0 $1 Rounding radius*
0 $2 $3 $4 $5 $6 $7 $8 $9 X,Y pos of 4 corners*
0 Add a 4 corners polygon primitive as box body*
4,1,4,$2,$3,$4,$5,$6,$7,$8,$9,$2,$3,0*
0 Add four circle primitives for the rounded corners*
1,1,$1+$1,$2,$3*
1,1,$1+$1,$4,$5*
1,1,$1+$1,$6,$7*
1,1,$1+$1,$8,$9*
0 Add four rect primitives between the rounded corners*
20,1,$1+$1,$2,$3,$4,$5,0*
20,1,$1+$1,$4,$5,$6,$7,0*
20,1,$1+$1,$6,$7,$8,$9,0*
20,1,$1+$1,$8,$9,$2,$3,0*%
G04 Aperture macros list end*
%TA.AperFunction,ComponentPad*%
%ADD10C,1.600000*%
%TD*%
%TA.AperFunction,ComponentPad*%
%ADD11R,1.700000X1.700000*%
%TD*%
%TA.AperFunction,ComponentPad*%
%ADD12O,1.700000X1.700000*%
%TD*%
%TA.AperFunction,SMDPad,CuDef*%
%ADD13RoundRect,0.150000X0.150000X-0.587500X0.150000X0.587500X-0.150000X0.587500X-0.150000X-0.587500X0*%
%TD*%
%TA.AperFunction,SMDPad,CuDef*%
%ADD14RoundRect,0.150000X-0.587500X-0.150000X0.587500X-0.150000X0.587500X0.150000X-0.587500X0.150000X0*%
%TD*%
%TA.AperFunction,SMDPad,CuDef*%
%ADD15RoundRect,0.150000X0.587500X0.150000X-0.587500X0.150000X-0.587500X-0.150000X0.587500X-0.150000X0*%
%TD*%
%TA.AperFunction,SMDPad,CuDef*%
%ADD16RoundRect,0.250000X-0.625000X0.312500X-0.625000X-0.312500X0.625000X-0.312500X0.625000X0.312500X0*%
%TD*%
%TA.AperFunction,SMDPad,CuDef*%
%ADD17RoundRect,0.250000X-0.312500X-0.625000X0.312500X-0.625000X0.312500X0.625000X-0.312500X0.625000X0*%
%TD*%
%TA.AperFunction,SMDPad,CuDef*%
%ADD18RoundRect,0.250000X0.312500X0.625000X-0.312500X0.625000X-0.312500X-0.625000X0.312500X-0.625000X0*%
%TD*%
%TA.AperFunction,SMDPad,CuDef*%
%ADD19RoundRect,0.250000X0.625000X-0.312500X0.625000X0.312500X-0.625000X0.312500X-0.625000X-0.312500X0*%
%TD*%
%TA.AperFunction,ViaPad*%
%ADD20C,0.800000*%
%TD*%
%TA.AperFunction,Conductor*%
%ADD21C,0.250000*%
%TD*%
G04 APERTURE END LIST*
D10*
%TO.P,C1,1*%
%TO.N,Net-(C1-Pad1)*%
X34310000Y-22860000D03*
%TO.P,C1,2*%
%TO.N,Net-(Q1-Pad1)*%
X36810000Y-22860000D03*
%TD*%
%TO.P,C3,1*%
%TO.N,Net-(R17-Pad2)*%
X78085000Y-18415000D03*
%TO.P,C3,2*%
%TO.N,Net-(R19-Pad2)*%
X75585000Y-18415000D03*
%TD*%
%TO.P,C2,1*%
%TO.N,Net-(R10-Pad2)*%
X66655000Y-22225000D03*
%TO.P,C2,2*%
%TO.N,Net-(R11-Pad2)*%
X64155000Y-22225000D03*
%TD*%
D11*
%TO.P,KCS,1,Pin_1*%
%TO.N,GND*%
X98425000Y-21590000D03*
D12*
%TO.P,KCS,2,Pin_2*%
%TO.N,Net-(J2-Pad2)*%
X98425000Y-19050000D03*
%TD*%
%TO.P,G,3,Pin_3*%
%TO.N,Net-(R1-Pad1)*%
X29845000Y-20305000D03*
%TO.P,G,2,Pin_2*%
%TO.N,Net-(R7-Pad1)*%
X29845000Y-22845000D03*
D11*
%TO.P,G,1,Pin_1*%
%TO.N,GND*%
X29845000Y-25385000D03*
%TD*%
D13*
%TO.P,Q10,1,B*%
%TO.N,Net-(R22-Pad2)*%
X97475000Y-27607500D03*
%TO.P,Q10,2,E*%
%TO.N,GND*%
X99375000Y-27607500D03*
%TO.P,Q10,3,C*%
%TO.N,Net-(J2-Pad2)*%
X98425000Y-25732500D03*
%TD*%
D14*
%TO.P,Q9,1,B*%
%TO.N,Net-(R19-Pad2)*%
X77167500Y-25085000D03*
%TO.P,Q9,2,E*%
%TO.N,GND*%
X77167500Y-26985000D03*
%TO.P,Q9,3,C*%
%TO.N,Net-(R20-Pad2)*%
X79042500Y-26035000D03*
%TD*%
D15*
%TO.P,Q8,3,C*%
%TO.N,Net-(R19-Pad2)*%
X92407500Y-22225000D03*
%TO.P,Q8,2,E*%
%TO.N,GND*%
X94282500Y-21275000D03*
%TO.P,Q8,1,B*%
%TO.N,Net-(R16-Pad2)*%
X94282500Y-23175000D03*
%TD*%
D13*
%TO.P,Q7,3,C*%
%TO.N,Net-(R17-Pad2)*%
X93345000Y-25097500D03*
%TO.P,Q7,2,E*%
%TO.N,GND*%
X94295000Y-26972500D03*
%TO.P,Q7,1,B*%
%TO.N,Net-(R20-Pad1)*%
X92395000Y-26972500D03*
%TD*%
D14*
%TO.P,Q6,1,B*%
%TO.N,Net-(R14-Pad2)*%
X72087500Y-25085000D03*
%TO.P,Q6,2,E*%
%TO.N,GND*%
X72087500Y-26985000D03*
%TO.P,Q6,3,C*%
%TO.N,Net-(R15-Pad2)*%
X73962500Y-26035000D03*
%TD*%
%TO.P,Q5,1,B*%
%TO.N,Net-(R11-Pad2)*%
X67007500Y-25085000D03*
%TO.P,Q5,2,E*%
%TO.N,GND*%
X67007500Y-26985000D03*
%TO.P,Q5,3,C*%
%TO.N,Net-(R12-Pad2)*%
X68882500Y-26035000D03*
%TD*%
D13*
%TO.P,Q4,1,B*%
%TO.N,Net-(R9-Pad2)*%
X57470000Y-26972500D03*
%TO.P,Q4,2,E*%
%TO.N,GND*%
X59370000Y-26972500D03*
%TO.P,Q4,3,C*%
%TO.N,Net-(R11-Pad2)*%
X58420000Y-25097500D03*
%TD*%
D14*
%TO.P,Q3,1,B*%
%TO.N,Net-(R12-Pad1)*%
X61927500Y-25085000D03*
%TO.P,Q3,2,E*%
%TO.N,GND*%
X61927500Y-26985000D03*
%TO.P,Q3,3,C*%
%TO.N,Net-(R10-Pad2)*%
X63802500Y-26035000D03*
%TD*%
%TO.P,Q2,3,C*%
%TO.N,Net-(R5-Pad2)*%
X51737500Y-26035000D03*
%TO.P,Q2,2,E*%
%TO.N,Net-(Q2-Pad2)*%
X49862500Y-26985000D03*
%TO.P,Q2,1,B*%
%TO.N,Net-(R8-Pad1)*%
X49862500Y-25085000D03*
%TD*%
%TO.P,Q1,3,C*%
%TO.N,Net-(R7-Pad1)*%
X51737500Y-19492500D03*
%TO.P,Q1,2,E*%
%TO.N,Net-(Q2-Pad2)*%
X49862500Y-20442500D03*
%TO.P,Q1,1,B*%
%TO.N,Net-(Q1-Pad1)*%
X49862500Y-18542500D03*
%TD*%
D16*
%TO.P,R8,1*%
%TO.N,Net-(R8-Pad1)*%
X46355000Y-24572500D03*
%TO.P,R8,2*%
%TO.N,GND*%
X46355000Y-27497500D03*
%TD*%
%TO.P,R7,1*%
%TO.N,Net-(R7-Pad1)*%
X46355000Y-18030000D03*
%TO.P,R7,2*%
%TO.N,Net-(R8-Pad1)*%
X46355000Y-20955000D03*
%TD*%
%TO.P,R6,1*%
%TO.N,Net-(Q2-Pad2)*%
X43180000Y-24572500D03*
%TO.P,R6,2*%
%TO.N,GND*%
X43180000Y-27497500D03*
%TD*%
D17*
%TO.P,R23,1*%
%TO.N,Net-(R7-Pad1)*%
X91882500Y-18415000D03*
%TO.P,R23,2*%
%TO.N,Net-(J2-Pad2)*%
X94807500Y-18415000D03*
%TD*%
D16*
%TO.P,R4,1*%
%TO.N,Net-(Q1-Pad1)*%
X40005000Y-24572500D03*
%TO.P,R4,2*%
%TO.N,GND*%
X40005000Y-27497500D03*
%TD*%
%TO.P,R3,1*%
%TO.N,Net-(R7-Pad1)*%
X40005000Y-18030000D03*
%TO.P,R3,2*%
%TO.N,Net-(Q1-Pad1)*%
X40005000Y-20955000D03*
%TD*%
D18*
%TO.P,R2,2*%
%TO.N,GND*%
X34097500Y-26670000D03*
%TO.P,R2,1*%
%TO.N,Net-(C1-Pad1)*%
X37022500Y-26670000D03*
%TD*%
D17*
%TO.P,R1,1*%
%TO.N,Net-(R1-Pad1)*%
X34097500Y-19050000D03*
%TO.P,R1,2*%
%TO.N,Net-(C1-Pad1)*%
X37022500Y-19050000D03*
%TD*%
D16*
%TO.P,R22,1*%
%TO.N,Net-(R20-Pad2)*%
X89535000Y-24572500D03*
%TO.P,R22,2*%
%TO.N,Net-(R22-Pad2)*%
X89535000Y-27497500D03*
%TD*%
%TO.P,R21,2*%
%TO.N,Net-(R20-Pad2)*%
X88265000Y-20955000D03*
%TO.P,R21,1*%
%TO.N,Net-(R7-Pad1)*%
X88265000Y-18030000D03*
%TD*%
D19*
%TO.P,R20,1*%
%TO.N,Net-(R20-Pad1)*%
X86360000Y-27497500D03*
%TO.P,R20,2*%
%TO.N,Net-(R20-Pad2)*%
X86360000Y-24572500D03*
%TD*%
D16*
%TO.P,R19,1*%
%TO.N,Net-(R18-Pad2)*%
X83185000Y-24572500D03*
%TO.P,R19,2*%
%TO.N,Net-(R19-Pad2)*%
X83185000Y-27497500D03*
%TD*%
%TO.P,R18,1*%
%TO.N,Net-(R7-Pad1)*%
X85090000Y-18030000D03*
%TO.P,R18,2*%
%TO.N,Net-(R18-Pad2)*%
X85090000Y-20955000D03*
%TD*%
D19*
%TO.P,R17,1*%
%TO.N,Net-(R7-Pad1)*%
X81915000Y-20955000D03*
%TO.P,R17,2*%
%TO.N,Net-(R17-Pad2)*%
X81915000Y-18030000D03*
%TD*%
D17*
%TO.P,R16,1*%
%TO.N,Net-(R15-Pad2)*%
X76642500Y-22225000D03*
%TO.P,R16,2*%
%TO.N,Net-(R16-Pad2)*%
X79567500Y-22225000D03*
%TD*%
%TO.P,R15,1*%
%TO.N,Net-(R7-Pad1)*%
X71562500Y-22225000D03*
%TO.P,R15,2*%
%TO.N,Net-(R15-Pad2)*%
X74487500Y-22225000D03*
%TD*%
%TO.P,R14,1*%
%TO.N,Net-(R12-Pad2)*%
X69022500Y-18415000D03*
%TO.P,R14,2*%
%TO.N,Net-(R14-Pad2)*%
X71947500Y-18415000D03*
%TD*%
D16*
%TO.P,R13,1*%
%TO.N,Net-(R7-Pad1)*%
X60960000Y-18030000D03*
%TO.P,R13,2*%
%TO.N,Net-(R12-Pad2)*%
X60960000Y-20955000D03*
%TD*%
D17*
%TO.P,R12,1*%
%TO.N,Net-(R12-Pad1)*%
X63942500Y-18415000D03*
%TO.P,R12,2*%
%TO.N,Net-(R12-Pad2)*%
X66867500Y-18415000D03*
%TD*%
D16*
%TO.P,R11,2*%
%TO.N,Net-(R11-Pad2)*%
X57785000Y-20955000D03*
%TO.P,R11,1*%
%TO.N,Net-(R7-Pad1)*%
X57785000Y-18030000D03*
%TD*%
%TO.P,R10,2*%
%TO.N,Net-(R10-Pad2)*%
X54610000Y-20955000D03*
%TO.P,R10,1*%
%TO.N,Net-(R7-Pad1)*%
X54610000Y-18030000D03*
%TD*%
%TO.P,R9,1*%
%TO.N,Net-(R5-Pad2)*%
X54610000Y-24572500D03*
%TO.P,R9,2*%
%TO.N,Net-(R9-Pad2)*%
X54610000Y-27497500D03*
%TD*%
%TO.P,R5,1*%
%TO.N,Net-(R7-Pad1)*%
X43180000Y-18030000D03*
%TO.P,R5,2*%
%TO.N,Net-(R5-Pad2)*%
X43180000Y-20955000D03*
%TD*%
D20*
%TO.N,Net-(J2-Pad2)*%
X98425000Y-24130000D03*
%TO.N,Net-(R19-Pad2)*%
X91440000Y-24130000D03*
%TO.N,Net-(R17-Pad2)*%
X95885000Y-24765000D03*
X80010000Y-17780000D03*
%TO.N,Net-(R16-Pad2)*%
X95885000Y-22860000D03*
X83185000Y-22225000D03*
%TO.N,Net-(R20-Pad2)*%
X90170000Y-20955000D03*
X81280000Y-23495000D03*
%TO.N,Net-(R19-Pad2)*%
X81280000Y-24765000D03*
X75565000Y-24765000D03*
%TO.N,Net-(R14-Pad2)*%
X70485000Y-24765000D03*
X72390000Y-20320000D03*
%TO.N,Net-(R12-Pad1)*%
X61595000Y-23495000D03*
%TO.N,Net-(R7-Pad1)*%
X62611000Y-17653000D03*
%TO.N,Net-(R12-Pad1)*%
X62611000Y-19050000D03*
%TO.N,Net-(R10-Pad2)*%
X54610000Y-22860000D03*
X65405000Y-25400000D03*
%TO.N,Net-(R7-Pad1)*%
X69850000Y-22225000D03*
%TO.N,GND*%
X32385000Y-24765000D03*
X95885000Y-26035000D03*
X75565000Y-26670000D03*
X65405000Y-26670000D03*
X48260000Y-27940000D03*
%TO.N,Net-(R5-Pad2)*%
X52070000Y-23495000D03*
X45085000Y-22860000D03*
%TO.N,Net-(Q2-Pad2)*%
X48260000Y-20320000D03*
X43180000Y-22860000D03*
X48260000Y-26035000D03*
%TO.N,Net-(Q1-Pad1)*%
X40005000Y-22860000D03*
X48260000Y-18415000D03*
%TO.N,Net-(R7-Pad1)*%
X38100000Y-17145000D03*
X32385000Y-20320000D03*
%TD*%
D21*
%TO.N,Net-(J2-Pad2)*%
X98425000Y-24130000D02*
X98425000Y-25732500D01*
%TO.N,Net-(R16-Pad2)*%
X95570000Y-23175000D02*
X94282500Y-23175000D01*
X95885000Y-22860000D02*
X95570000Y-23175000D01*
%TO.N,Net-(R17-Pad2)*%
X93647500Y-25097500D02*
X93345000Y-25097500D01*
X93980000Y-24765000D02*
X93647500Y-25097500D01*
X95885000Y-24765000D02*
X93980000Y-24765000D01*
%TO.N,Net-(R22-Pad2)*%
X96507500Y-28575000D02*
X97475000Y-27607500D01*
X90362500Y-27497500D02*
X91440000Y-28575000D01*
X91440000Y-28575000D02*
X96507500Y-28575000D01*
X89535000Y-27497500D02*
X90362500Y-27497500D01*
%TO.N,GND*%
X94615000Y-26035000D02*
X95885000Y-26035000D01*
X94295000Y-26355000D02*
X94615000Y-26035000D01*
X94295000Y-26972500D02*
X94295000Y-26355000D01*
%TO.N,Net-(R20-Pad1)*%
X92377500Y-26972500D02*
X92395000Y-26972500D01*
X91440000Y-26035000D02*
X92377500Y-26972500D01*
X87630000Y-26035000D02*
X91440000Y-26035000D01*
X86360000Y-27305000D02*
X87630000Y-26035000D01*
X86360000Y-27497500D02*
X86360000Y-27305000D01*
%TO.N,GND*%
X99392500Y-27607500D02*
X99695000Y-27305000D01*
X99695000Y-27305000D02*
X99695000Y-22860000D01*
X99695000Y-22860000D02*
X98425000Y-21590000D01*
X99375000Y-27607500D02*
X99392500Y-27607500D01*
%TO.N,Net-(R19-Pad2)*%
X82107500Y-27497500D02*
X83185000Y-27497500D01*
X81280000Y-24765000D02*
X81280000Y-26670000D01*
X81280000Y-26670000D02*
X82107500Y-27497500D01*
%TO.N,Net-(R8-Pad1)*%
X46355000Y-24572500D02*
X46355000Y-20955000D01*
%TO.N,Net-(J2-Pad2)*%
X96520000Y-18415000D02*
X97155000Y-19050000D01*
X97155000Y-19050000D02*
X98425000Y-19050000D01*
X94807500Y-18415000D02*
X96520000Y-18415000D01*
%TO.N,Net-(R19-Pad2)*%
X92407500Y-23162500D02*
X92407500Y-22225000D01*
X91440000Y-24130000D02*
X92407500Y-23162500D01*
%TO.N,Net-(R17-Pad2)*%
X81665000Y-17780000D02*
X81915000Y-18030000D01*
X80010000Y-17780000D02*
X81665000Y-17780000D01*
X79375000Y-18415000D02*
X80010000Y-17780000D01*
X78085000Y-18415000D02*
X79375000Y-18415000D01*
%TO.N,Net-(R7-Pad1)*%
X84840000Y-18030000D02*
X85090000Y-18030000D01*
X81915000Y-20955000D02*
X84840000Y-18030000D01*
X81280000Y-20320000D02*
X81915000Y-20955000D01*
X74295000Y-20320000D02*
X81280000Y-20320000D01*
X72390000Y-22225000D02*
X74295000Y-20320000D01*
X71562500Y-22225000D02*
X72390000Y-22225000D01*
X88265000Y-18030000D02*
X91497500Y-18030000D01*
X91497500Y-18030000D02*
X91882500Y-18415000D01*
X85090000Y-18030000D02*
X88265000Y-18030000D01*
%TO.N,Net-(R18-Pad2)*%
X84012500Y-24572500D02*
X85090000Y-23495000D01*
X83185000Y-24572500D02*
X84012500Y-24572500D01*
X85090000Y-23495000D02*
X85090000Y-20955000D01*
%TO.N,GND*%
X96520000Y-21590000D02*
X98425000Y-21590000D01*
X96205000Y-21275000D02*
X96520000Y-21590000D01*
X94282500Y-21275000D02*
X96205000Y-21275000D01*
%TO.N,Net-(R16-Pad2)*%
X79567500Y-22225000D02*
X83185000Y-22225000D01*
%TO.N,Net-(R20-Pad2)*%
X86360000Y-24572500D02*
X89535000Y-24572500D01*
X90170000Y-22225000D02*
X90170000Y-20955000D01*
X89535000Y-22860000D02*
X90170000Y-22225000D01*
X89535000Y-24572500D02*
X89535000Y-22860000D01*
X88265000Y-20955000D02*
X90170000Y-20955000D01*
X80645000Y-24130000D02*
X81280000Y-23495000D01*
X80010000Y-24130000D02*
X80645000Y-24130000D01*
X79042500Y-25097500D02*
X80010000Y-24130000D01*
X79042500Y-26035000D02*
X79042500Y-25097500D01*
%TO.N,Net-(R19-Pad2)*%
X75885000Y-25085000D02*
X75565000Y-24765000D01*
X77167500Y-25085000D02*
X75885000Y-25085000D01*
%TO.N,Net-(R15-Pad2)*%
X74487500Y-22225000D02*
X76642500Y-22225000D01*
X74487500Y-25207500D02*
X74487500Y-22225000D01*
X73962500Y-25732500D02*
X74487500Y-25207500D01*
X73962500Y-26035000D02*
X73962500Y-25732500D01*
%TO.N,Net-(R14-Pad2)*%
X71767500Y-24765000D02*
X72087500Y-25085000D01*
X70485000Y-24765000D02*
X71767500Y-24765000D01*
X72390000Y-18857500D02*
X71947500Y-18415000D01*
X72390000Y-20320000D02*
X72390000Y-18857500D01*
%TO.N,Net-(R12-Pad2)*%
X68580000Y-25732500D02*
X68882500Y-26035000D01*
X68580000Y-21205000D02*
X68580000Y-25732500D01*
X66867500Y-19492500D02*
X68580000Y-21205000D01*
%TO.N,Net-(R11-Pad2)*%
X67007500Y-25085000D02*
X67007500Y-25077500D01*
X67007500Y-25077500D02*
X64155000Y-22225000D01*
%TO.N,Net-(R12-Pad1)*%
X61595000Y-23495000D02*
X61595000Y-24752500D01*
X61595000Y-24752500D02*
X61927500Y-25085000D01*
%TO.N,Net-(R7-Pad1)*%
X62234000Y-18030000D02*
X62611000Y-17653000D01*
X60960000Y-18030000D02*
X62234000Y-18030000D01*
%TO.N,Net-(R12-Pad1)*%
X63246000Y-18415000D02*
X63942500Y-18415000D01*
X62611000Y-19050000D02*
X63246000Y-18415000D01*
%TO.N,Net-(R12-Pad2)*%
X66867500Y-18415000D02*
X69022500Y-18415000D01*
X66040000Y-20320000D02*
X66867500Y-19492500D01*
X61595000Y-20320000D02*
X66040000Y-20320000D01*
X60960000Y-20955000D02*
X61595000Y-20320000D01*
X66867500Y-19492500D02*
X66867500Y-18415000D01*
%TO.N,Net-(R10-Pad2)*%
X64770000Y-26035000D02*
X65405000Y-25400000D01*
X63802500Y-26035000D02*
X64770000Y-26035000D01*
X54610000Y-20955000D02*
X54610000Y-22860000D01*
%TO.N,Net-(R11-Pad2)*%
X58420000Y-23495000D02*
X59690000Y-22225000D01*
X59690000Y-22225000D02*
X64155000Y-22225000D01*
%TO.N,Net-(R9-Pad2)*%
X57167500Y-26670000D02*
X57470000Y-26972500D01*
X55880000Y-26670000D02*
X57167500Y-26670000D01*
X55052500Y-27497500D02*
X55880000Y-26670000D01*
X54610000Y-27497500D02*
X55052500Y-27497500D01*
%TO.N,Net-(R11-Pad2)*%
X57785000Y-22860000D02*
X57785000Y-20955000D01*
X58420000Y-23495000D02*
X57785000Y-22860000D01*
X58420000Y-25097500D02*
X58420000Y-23495000D01*
%TO.N,Net-(R7-Pad1)*%
X69850000Y-22225000D02*
X71562500Y-22225000D01*
X57785000Y-18030000D02*
X60960000Y-18030000D01*
X54610000Y-18030000D02*
X57785000Y-18030000D01*
X54360000Y-17780000D02*
X54610000Y-18030000D01*
X52070000Y-17780000D02*
X54360000Y-17780000D01*
%TO.N,GND*%
X65405000Y-26670000D02*
X65405000Y-27940000D01*
X65405000Y-27940000D02*
X66052500Y-27940000D01*
X62230000Y-27940000D02*
X65405000Y-27940000D01*
X75565000Y-26670000D02*
X75565000Y-27940000D01*
X75565000Y-27940000D02*
X76212500Y-27940000D01*
X73025000Y-27940000D02*
X75565000Y-27940000D01*
X31750000Y-25400000D02*
X32385000Y-24765000D01*
X31750000Y-25400000D02*
X33020000Y-26670000D01*
X31735000Y-25385000D02*
X31750000Y-25400000D01*
X76212500Y-27940000D02*
X77167500Y-26985000D01*
X72087500Y-27002500D02*
X73025000Y-27940000D01*
X72087500Y-26985000D02*
X72087500Y-27002500D01*
X71132500Y-27940000D02*
X72087500Y-26985000D01*
X67945000Y-27940000D02*
X71132500Y-27940000D01*
X67007500Y-27002500D02*
X67945000Y-27940000D01*
X67007500Y-26985000D02*
X67007500Y-27002500D01*
X66052500Y-27940000D02*
X67007500Y-26985000D01*
X61927500Y-26985000D02*
X61927500Y-27637500D01*
X61927500Y-27637500D02*
X62230000Y-27940000D01*
X61915000Y-26972500D02*
X61927500Y-26985000D01*
X59370000Y-26972500D02*
X61915000Y-26972500D01*
X47817500Y-27497500D02*
X48260000Y-27940000D01*
X46355000Y-27497500D02*
X47817500Y-27497500D01*
%TO.N,Net-(Q2-Pad2)*%
X48260000Y-26035000D02*
X49210000Y-26985000D01*
X49210000Y-26985000D02*
X49862500Y-26985000D01*
%TO.N,Net-(R5-Pad2)*%
X52070000Y-26035000D02*
X53340000Y-24765000D01*
X51737500Y-26035000D02*
X52070000Y-26035000D01*
X53340000Y-24765000D02*
X54417500Y-24765000D01*
X52070000Y-23495000D02*
X53340000Y-24765000D01*
X54417500Y-24765000D02*
X54610000Y-24572500D01*
X43180000Y-20955000D02*
X45085000Y-22860000D01*
%TO.N,Net-(Q2-Pad2)*%
X49740000Y-20320000D02*
X49862500Y-20442500D01*
X48260000Y-20320000D02*
X49740000Y-20320000D01*
X43180000Y-24572500D02*
X43180000Y-22860000D01*
%TO.N,GND*%
X33020000Y-26670000D02*
X34097500Y-26670000D01*
X29845000Y-25385000D02*
X31735000Y-25385000D01*
%TO.N,Net-(R7-Pad1)*%
X29845000Y-22845000D02*
X31130000Y-22845000D01*
X32385000Y-21590000D02*
X32385000Y-20320000D01*
X31130000Y-22845000D02*
X32385000Y-21590000D01*
%TO.N,Net-(R8-Pad1)*%
X48067500Y-24572500D02*
X48580000Y-25085000D01*
X46355000Y-24572500D02*
X48067500Y-24572500D01*
X48580000Y-25085000D02*
X49862500Y-25085000D01*
%TO.N,Net-(Q1-Pad1)*%
X49735000Y-18415000D02*
X49862500Y-18542500D01*
X48260000Y-18415000D02*
X49735000Y-18415000D01*
%TO.N,GND*%
X43180000Y-27497500D02*
X46355000Y-27497500D01*
X40005000Y-27497500D02*
X43180000Y-27497500D01*
%TO.N,Net-(C1-Pad1)*%
X36195000Y-24765000D02*
X37022500Y-25592500D01*
X37022500Y-25592500D02*
X37022500Y-26670000D01*
X34290000Y-24130000D02*
X34925000Y-24765000D01*
X34310000Y-24110000D02*
X34290000Y-24130000D01*
X34925000Y-24765000D02*
X36195000Y-24765000D01*
X34310000Y-22860000D02*
X34310000Y-24110000D01*
X37022500Y-20127500D02*
X37022500Y-19050000D01*
X36195000Y-20955000D02*
X37022500Y-20127500D01*
X34290000Y-21590000D02*
X34925000Y-20955000D01*
X34310000Y-21610000D02*
X34290000Y-21590000D01*
X34925000Y-20955000D02*
X36195000Y-20955000D01*
X34310000Y-22860000D02*
X34310000Y-21610000D01*
%TO.N,Net-(Q1-Pad1)*%
X40005000Y-24572500D02*
X40005000Y-22860000D01*
X40005000Y-22860000D02*
X40005000Y-20955000D01*
X36810000Y-22860000D02*
X40005000Y-22860000D01*
%TO.N,Net-(R7-Pad1)*%
X52070000Y-19160000D02*
X51737500Y-19492500D01*
X52070000Y-17780000D02*
X52070000Y-19160000D01*
X51435000Y-17145000D02*
X52070000Y-17780000D01*
X48260000Y-17145000D02*
X51435000Y-17145000D01*
X47375000Y-18030000D02*
X48260000Y-17145000D01*
X46355000Y-18030000D02*
X47375000Y-18030000D01*
X43180000Y-18030000D02*
X46355000Y-18030000D01*
X40005000Y-18030000D02*
X43180000Y-18030000D01*
X39120000Y-17145000D02*
X40005000Y-18030000D01*
X38100000Y-17145000D02*
X39120000Y-17145000D01*
%TO.N,Net-(R1-Pad1)*%
X31100000Y-19050000D02*
X34097500Y-19050000D01*
X29845000Y-20305000D02*
X31100000Y-19050000D01*
%TD*%
M02*
