%TF.GenerationSoftware,KiCad,Pcbnew,7.0.2*%
%TF.CreationDate,2024-03-15T13:05:12+09:00*%
%TF.ProjectId,Fading_Memories,46616469-6e67-45f4-9d65-6d6f72696573,rev?*%
%TF.SameCoordinates,Original*%
%TF.FileFunction,Soldermask,Top*%
%TF.FilePolarity,Negative*%
%FSLAX46Y46*%
G04 Gerber Fmt 4.6, Leading zero omitted, Abs format (unit mm)*
G04 Created by KiCad (PCBNEW 7.0.2) date 2024-03-15 13:05:12*
%MOMM*%
%LPD*%
G01*
G04 APERTURE LIST*
G04 Aperture macros list*
%AMRoundRect*
0 Rectangle with rounded corners*
0 $1 Rounding radius*
0 $2 $3 $4 $5 $6 $7 $8 $9 X,Y pos of 4 corners*
0 Add a 4 corners polygon primitive as box body*
4,1,4,$2,$3,$4,$5,$6,$7,$8,$9,$2,$3,0*
0 Add four circle primitives for the rounded corners*
1,1,$1+$1,$2,$3*
1,1,$1+$1,$4,$5*
1,1,$1+$1,$6,$7*
1,1,$1+$1,$8,$9*
0 Add four rect primitives between the rounded corners*
20,1,$1+$1,$2,$3,$4,$5,0*
20,1,$1+$1,$4,$5,$6,$7,0*
20,1,$1+$1,$6,$7,$8,$9,0*
20,1,$1+$1,$8,$9,$2,$3,0*%
G04 Aperture macros list end*
%ADD10R,1.800000X1.800000*%
%ADD11C,1.800000*%
%ADD12C,1.600000*%
%ADD13O,1.600000X1.600000*%
%ADD14C,3.000000*%
%ADD15R,1.600000X1.600000*%
%ADD16C,2.340000*%
%ADD17R,1.050000X1.500000*%
%ADD18O,1.050000X1.500000*%
%ADD19R,2.000000X1.905000*%
%ADD20O,2.000000X1.905000*%
%ADD21R,2.200000X2.200000*%
%ADD22O,2.200000X2.200000*%
%ADD23R,3.500000X3.500000*%
%ADD24RoundRect,0.750000X-1.000000X0.750000X-1.000000X-0.750000X1.000000X-0.750000X1.000000X0.750000X0*%
%ADD25RoundRect,0.875000X-0.875000X0.875000X-0.875000X-0.875000X0.875000X-0.875000X0.875000X0.875000X0*%
%ADD26R,1.700000X1.700000*%
%ADD27O,1.700000X1.700000*%
G04 APERTURE END LIST*
D10*
%TO.C,D2*%
X182245000Y-86355000D03*
D11*
X182245000Y-88895000D03*
%TD*%
D12*
%TO.C,R22*%
X182245000Y-102870000D03*
D13*
X182245000Y-95250000D03*
%TD*%
D14*
%TO.C,J2*%
X198895000Y-40725000D03*
X215125000Y-40725000D03*
X198895000Y-53425000D03*
X215125000Y-53425000D03*
%TD*%
%TO.C,J1*%
X150635000Y-40725000D03*
X166865000Y-40725000D03*
X150635000Y-53425000D03*
X166865000Y-53425000D03*
%TD*%
D15*
%TO.C,U2*%
X203835000Y-118745000D03*
D13*
X201295000Y-118745000D03*
X198755000Y-118745000D03*
X196215000Y-118745000D03*
X193675000Y-118745000D03*
X191135000Y-118745000D03*
X188595000Y-118745000D03*
X186055000Y-118745000D03*
X186055000Y-126365000D03*
X188595000Y-126365000D03*
X191135000Y-126365000D03*
X193675000Y-126365000D03*
X196215000Y-126365000D03*
X198755000Y-126365000D03*
X201295000Y-126365000D03*
X203835000Y-126365000D03*
%TD*%
D15*
%TO.C,C4*%
X153620000Y-125095000D03*
D12*
X151120000Y-125095000D03*
%TD*%
D15*
%TO.C,C3*%
X153620000Y-118745000D03*
D12*
X151120000Y-118745000D03*
%TD*%
%TO.C,C10*%
X188575000Y-128905000D03*
X186075000Y-128905000D03*
%TD*%
%TO.C,R20*%
X196215000Y-68580000D03*
D13*
X196215000Y-76200000D03*
%TD*%
D12*
%TO.C,C12*%
X198735000Y-128905000D03*
X196235000Y-128905000D03*
%TD*%
%TO.C,R8*%
X157480000Y-121285000D03*
D13*
X157480000Y-128905000D03*
%TD*%
D12*
%TO.C,R19*%
X213995000Y-105410000D03*
D13*
X213995000Y-113030000D03*
%TD*%
D12*
%TO.C,C5*%
X182860000Y-118725000D03*
X180360000Y-118725000D03*
%TD*%
%TO.C,C7*%
X189230000Y-114915000D03*
X189230000Y-112415000D03*
%TD*%
D15*
%TO.C,C18*%
X174030000Y-51435000D03*
D12*
X171530000Y-51435000D03*
%TD*%
%TO.C,R21*%
X182880000Y-57785000D03*
D13*
X175260000Y-57785000D03*
%TD*%
D16*
%TO.C,R5*%
X175180000Y-107690000D03*
X170180000Y-107690000D03*
X165180000Y-107690000D03*
%TD*%
D12*
%TO.C,R6*%
X163830000Y-121285000D03*
D13*
X163830000Y-128905000D03*
%TD*%
D17*
%TO.C,Q1*%
X180975000Y-114025000D03*
D18*
X182245000Y-114025000D03*
X183515000Y-114025000D03*
%TD*%
D12*
%TO.C,R7*%
X160655000Y-121285000D03*
D13*
X160655000Y-128905000D03*
%TD*%
D16*
%TO.C,R12*%
X199310000Y-107690000D03*
X194310000Y-107690000D03*
X189310000Y-107690000D03*
%TD*%
D12*
%TO.C,C13*%
X201315000Y-128905000D03*
X203815000Y-128905000D03*
%TD*%
D15*
%TO.C,C8*%
X203200000Y-115505113D03*
D12*
X203200000Y-113005113D03*
%TD*%
%TO.C,R4*%
X167005000Y-111125000D03*
D13*
X167005000Y-118745000D03*
%TD*%
D15*
%TO.C,U1*%
X170180000Y-111125000D03*
D13*
X170180000Y-113665000D03*
X170180000Y-116205000D03*
X170180000Y-118745000D03*
X170180000Y-121285000D03*
X170180000Y-123825000D03*
X170180000Y-126365000D03*
X177800000Y-126365000D03*
X177800000Y-123825000D03*
X177800000Y-121285000D03*
X177800000Y-118745000D03*
X177800000Y-116205000D03*
X177800000Y-113665000D03*
X177800000Y-111125000D03*
%TD*%
D12*
%TO.C,R11*%
X199390000Y-111125000D03*
D13*
X191770000Y-111125000D03*
%TD*%
D12*
%TO.C,C6*%
X186690000Y-114915000D03*
X186690000Y-112415000D03*
%TD*%
%TO.C,R18*%
X210820000Y-113030000D03*
D13*
X210820000Y-105410000D03*
%TD*%
D12*
%TO.C,C14*%
X213995000Y-118725000D03*
X213995000Y-116225000D03*
%TD*%
D19*
%TO.C,U4*%
X192095000Y-36830000D03*
D20*
X192095000Y-39370000D03*
X192095000Y-41910000D03*
%TD*%
D12*
%TO.C,R2*%
X160655000Y-111125000D03*
D13*
X160655000Y-118745000D03*
%TD*%
D12*
%TO.C,R14*%
X210820000Y-128905000D03*
D13*
X210820000Y-121285000D03*
%TD*%
D15*
%TO.C,C2*%
X153620000Y-112435000D03*
D12*
X151120000Y-112435000D03*
%TD*%
%TO.C,R13*%
X207645000Y-128905000D03*
D13*
X207645000Y-121285000D03*
%TD*%
D15*
%TO.C,U3*%
X186700000Y-50165000D03*
D13*
X186700000Y-52705000D03*
X186700000Y-55245000D03*
X186700000Y-57785000D03*
X194320000Y-57785000D03*
X194320000Y-55245000D03*
X194320000Y-52705000D03*
X194320000Y-50165000D03*
%TD*%
D12*
%TO.C,R1*%
X157480000Y-111125000D03*
D13*
X157480000Y-118745000D03*
%TD*%
D12*
%TO.C,R15*%
X213995000Y-128905000D03*
D13*
X213995000Y-121285000D03*
%TD*%
D15*
%TO.C,C17*%
X180975000Y-51435000D03*
D12*
X178475000Y-51435000D03*
%TD*%
%TO.C,R10*%
X180975000Y-128905000D03*
D13*
X180975000Y-121285000D03*
%TD*%
D15*
%TO.C,C16*%
X193080000Y-63500000D03*
D12*
X195580000Y-63500000D03*
%TD*%
D15*
%TO.C,C15*%
X172045000Y-82550000D03*
D12*
X169545000Y-82550000D03*
%TD*%
%TO.C,R9*%
X167005000Y-121285000D03*
D13*
X167005000Y-128905000D03*
%TD*%
D16*
%TO.C,R16*%
X163750000Y-83560000D03*
X158750000Y-83560000D03*
X153750000Y-83560000D03*
%TD*%
D12*
%TO.C,R3*%
X163830000Y-111125000D03*
D13*
X163830000Y-118745000D03*
%TD*%
D21*
%TO.C,D1*%
X171450000Y-35560000D03*
D22*
X171450000Y-45720000D03*
%TD*%
D12*
%TO.C,C11*%
X193655000Y-128905000D03*
X191155000Y-128905000D03*
%TD*%
D16*
%TO.C,R17*%
X212010000Y-83560000D03*
X207010000Y-83560000D03*
X202010000Y-83560000D03*
%TD*%
D15*
%TO.C,C9*%
X206375000Y-109855000D03*
D12*
X206375000Y-107355000D03*
%TD*%
D23*
%TO.C,J3*%
X182880000Y-46640000D03*
D24*
X182880000Y-40640000D03*
D25*
X178180000Y-43640000D03*
%TD*%
D26*
%TO.C,SW1*%
X171450000Y-59055000D03*
D27*
X171450000Y-61595000D03*
X171450000Y-64135000D03*
%TD*%
D15*
%TO.C,C1*%
X153620000Y-106045000D03*
D12*
X151120000Y-106045000D03*
%TD*%
M02*
