M48
; DRILL file {KiCad 7.0.2} date Fri Mar 15 13:05:10 2024
; FORMAT={-:-/ absolute / inch / decimal}
; #@! TF.CreationDate,2024-03-15T13:05:10+09:00
; #@! TF.GenerationSoftware,Kicad,Pcbnew,7.0.2
; #@! TF.FileFunction,Plated,1,2,PTH
FMAT,2
INCH
; #@! TA.AperFunction,Plated,PTH,ViaDrill
T1C0.0157
; #@! TA.AperFunction,Plated,PTH,ComponentDrill
T2C0.0295
; #@! TA.AperFunction,Plated,PTH,ComponentDrill
T3C0.0315
; #@! TA.AperFunction,Plated,PTH,ComponentDrill
T4C0.0354
; #@! TA.AperFunction,Plated,PTH,ComponentDrill
T5C0.0394
; #@! TA.AperFunction,Plated,PTH,ComponentDrill
T6C0.0433
; #@! TA.AperFunction,Plated,PTH,ComponentDrill
T7C0.0512
; #@! TA.AperFunction,Plated,PTH,ComponentDrill
T8C0.0551
%
G90
G05
T1
X7.525Y-1.975
X7.675Y-4.8
T2
X7.125Y-4.4892
X7.175Y-4.4892
X7.225Y-4.4892
T3
X5.9496Y-4.175
X5.9496Y-4.4266
X5.9496Y-4.675
X5.9496Y-4.925
X6.048Y-4.175
X6.048Y-4.4266
X6.048Y-4.675
X6.048Y-4.925
X6.2Y-4.375
X6.2Y-4.675
X6.2Y-4.775
X6.2Y-5.075
X6.325Y-4.375
X6.325Y-4.675
X6.325Y-4.775
X6.325Y-5.075
X6.45Y-4.375
X6.45Y-4.675
X6.45Y-4.775
X6.45Y-5.075
X6.575Y-4.375
X6.575Y-4.675
X6.575Y-4.775
X6.575Y-5.075
X6.675Y-3.25
X6.7Y-4.375
X6.7Y-4.475
X6.7Y-4.575
X6.7Y-4.675
X6.7Y-4.775
X6.7Y-4.875
X6.7Y-4.975
X6.7531Y-2.025
X6.7734Y-3.25
X6.8516Y-2.025
X6.9Y-2.275
X7.0Y-4.375
X7.0Y-4.475
X7.0Y-4.575
X7.0Y-4.675
X7.0Y-4.775
X7.0Y-4.875
X7.0Y-4.975
X7.0266Y-2.025
X7.1008Y-4.6742
X7.125Y-2.025
X7.125Y-4.775
X7.125Y-5.075
X7.175Y-3.75
X7.175Y-4.05
X7.1992Y-4.6742
X7.2Y-2.275
X7.325Y-4.675
X7.325Y-4.975
X7.3258Y-5.075
X7.35Y-4.4258
X7.35Y-4.5242
X7.3504Y-1.975
X7.3504Y-2.075
X7.3504Y-2.175
X7.3504Y-2.275
X7.4242Y-5.075
X7.425Y-4.675
X7.425Y-4.975
X7.45Y-4.4258
X7.45Y-4.5242
X7.525Y-4.675
X7.525Y-4.975
X7.5258Y-5.075
X7.55Y-4.375
X7.6016Y-2.5
X7.6242Y-5.075
X7.625Y-4.675
X7.625Y-4.975
X7.6504Y-1.975
X7.6504Y-2.075
X7.6504Y-2.175
X7.6504Y-2.275
X7.7Y-2.5
X7.725Y-2.7
X7.725Y-3.0
X7.725Y-4.675
X7.725Y-4.975
X7.7258Y-5.075
X7.8242Y-5.075
X7.825Y-4.675
X7.825Y-4.975
X7.85Y-4.375
X7.925Y-4.675
X7.925Y-4.975
X7.9258Y-5.075
X8.0Y-4.449
X8.0Y-4.5474
X8.0242Y-5.075
X8.025Y-4.675
X8.025Y-4.975
X8.125Y-4.2266
X8.125Y-4.325
X8.175Y-4.775
X8.175Y-5.075
X8.3Y-4.15
X8.3Y-4.45
X8.3Y-4.775
X8.3Y-5.075
X8.425Y-4.15
X8.425Y-4.45
X8.425Y-4.5758
X8.425Y-4.6742
X8.425Y-4.775
X8.425Y-5.075
T4
X7.175Y-3.3998
X7.175Y-3.4998
T5
X6.75Y-2.325
X6.75Y-2.425
X6.75Y-2.525
T6
X6.75Y-1.4
X6.75Y-1.8
X7.5628Y-1.45
X7.5628Y-1.55
X7.5628Y-1.65
T7
X6.0531Y-3.2898
X6.25Y-3.2898
X6.4469Y-3.2898
X6.5031Y-4.2398
X6.7Y-4.2398
X6.8969Y-4.2398
X7.4531Y-4.2398
X7.65Y-4.2398
X7.8469Y-4.2398
X7.9531Y-3.2898
X8.15Y-3.2898
X8.3469Y-3.2898
T8
X5.9305Y-1.6033
X5.9305Y-2.1033
X6.5695Y-1.6033
X6.5695Y-2.1033
X7.8305Y-1.6033
X7.8305Y-2.1033
X8.4695Y-1.6033
X8.4695Y-2.1033
T5
G00X7.015Y-1.6787
M15
G01X7.015Y-1.7575
M16
G05
G00X7.2394Y-1.6
M15
G01X7.1606Y-1.6
M16
G05
G00X7.2394Y-1.8362
M15
G01X7.1606Y-1.8362
M16
G05
T0
M30
