M48
; DRILL file {KiCad (6.0.10)} date Fri Jan 20 12:03:39 2023
; FORMAT={-:-/ absolute / inch / decimal}
; #@! TF.CreationDate,2023-01-20T12:03:39+09:00
; #@! TF.GenerationSoftware,Kicad,Pcbnew,(6.0.10)
; #@! TF.FileFunction,MixedPlating,1,2
FMAT,2
INCH
; #@! TA.AperFunction,Plated,PTH,ViaDrill
T1C0.0157
; #@! TA.AperFunction,Plated,PTH,ComponentDrill
T2C0.0295
; #@! TA.AperFunction,Plated,PTH,ComponentDrill
T3C0.0315
; #@! TA.AperFunction,Plated,PTH,ComponentDrill
T4C0.0394
%
G90
G05
T1
X1.85Y-4.1
X2.6Y-3.05
X2.7Y-3.05
X2.7Y-3.4
X2.8Y-3.05
X2.9Y-3.05
X3.0Y-3.05
X3.1Y-3.05
X3.2Y-3.05
X3.3Y-3.05
X3.35Y-4.45
X3.35Y-4.55
X3.35Y-4.65
X3.35Y-4.75
X3.4Y-3.05
X3.4Y-4.4
X3.4Y-4.5
X3.4Y-4.6
X3.45Y-3.1
X3.45Y-4.45
X3.45Y-4.55
X3.5Y-3.05
X3.5Y-4.4
X3.5Y-4.5
X3.55Y-3.1
X3.55Y-4.45
X3.6Y-3.05
X3.6Y-4.4
X3.6Y-4.5
X3.65Y-4.45
T2
X1.75Y-3.65
X1.75Y-3.7
X1.75Y-3.75
X1.75Y-3.9
X1.75Y-3.95
X1.75Y-4.0
X2.55Y-4.65
X2.6Y-4.65
X2.65Y-4.65
X2.7Y-3.1548
X2.7Y-3.2048
X2.7Y-3.2548
X2.85Y-4.65
X2.9Y-4.65
X2.95Y-3.15
X2.95Y-3.2
X2.95Y-3.25
X2.95Y-3.4009
X2.95Y-3.4509
X2.95Y-3.5009
X2.95Y-3.65
X2.95Y-3.7
X2.95Y-3.75
X2.95Y-4.65
X3.15Y-4.65
X3.2Y-4.65
X3.25Y-4.65
X3.45Y-3.25
X3.5Y-3.25
X3.55Y-3.25
T3
X1.4476Y-3.95
X1.4476Y-4.35
X1.4579Y-3.1
X1.4579Y-3.5
X1.6618Y-3.1
X1.6618Y-3.5
X1.6961Y-4.35
X1.6961Y-4.75
X1.75Y-4.2
X1.8484Y-4.2
X1.8618Y-3.1
X1.8618Y-3.5
X1.8961Y-4.35
X1.8961Y-4.75
X1.95Y-3.65
X1.95Y-4.05
X2.0579Y-3.1
X2.0579Y-3.5
X2.0961Y-4.35
X2.0961Y-4.75
X2.15Y-3.65
X2.15Y-4.05
X2.15Y-4.2
X2.2579Y-3.1
X2.2579Y-3.5
X2.2961Y-4.35
X2.2961Y-4.75
X2.35Y-3.65
X2.35Y-4.05
X2.4579Y-3.1
X2.4579Y-3.5
X2.55Y-4.2
X2.6Y-3.6236
X2.6Y-3.722
X2.65Y-3.9
X2.7Y-4.1016
X2.7Y-4.2
X2.95Y-4.05
X2.95Y-4.45
X3.05Y-3.9
X3.2Y-3.45
X3.2Y-3.65
X3.2Y-3.85
X3.2Y-4.05
X3.2Y-4.2461
X3.6Y-3.45
X3.6Y-3.65
X3.6Y-3.85
X3.6Y-4.05
X3.6Y-4.2461
T4
X1.4476Y-4.52
X1.4476Y-4.62
X1.4476Y-4.72
X3.15Y-3.15
X3.25Y-3.15
T0
M30
