%TF.GenerationSoftware,KiCad,Pcbnew,(6.0.10)*%
%TF.CreationDate,2023-01-20T12:03:37+09:00*%
%TF.ProjectId,KCS_UART_THT,4b43535f-5541-4525-945f-5448542e6b69,rev?*%
%TF.SameCoordinates,Original*%
%TF.FileFunction,Soldermask,Bot*%
%TF.FilePolarity,Negative*%
%FSLAX46Y46*%
G04 Gerber Fmt 4.6, Leading zero omitted, Abs format (unit mm)*
G04 Created by KiCad (PCBNEW (6.0.10)) date 2023-01-20 12:03:37*
%MOMM*%
%LPD*%
G01*
G04 APERTURE LIST*
%ADD10C,1.600000*%
%ADD11O,1.600000X1.600000*%
%ADD12R,1.700000X1.700000*%
%ADD13O,1.700000X1.700000*%
%ADD14R,1.050000X1.500000*%
%ADD15O,1.050000X1.500000*%
%ADD16R,1.500000X1.050000*%
%ADD17O,1.500000X1.050000*%
G04 APERTURE END LIST*
D10*
%TO.C,R14*%
X74930000Y-113030000D03*
D11*
X74930000Y-102870000D03*
%TD*%
D10*
%TO.C,R3*%
X49530000Y-92710000D03*
D11*
X49530000Y-102870000D03*
%TD*%
D12*
%TO.C,INPUT*%
X36770000Y-119888000D03*
D13*
X36770000Y-117348000D03*
X36770000Y-114808000D03*
%TD*%
D10*
%TO.C,R19*%
X52270000Y-88900000D03*
D11*
X52270000Y-78740000D03*
%TD*%
D10*
%TO.C,R10*%
X91440000Y-107850000D03*
D11*
X81280000Y-107850000D03*
%TD*%
D10*
%TO.C,R17*%
X42210000Y-88900000D03*
D11*
X42210000Y-78740000D03*
%TD*%
D14*
%TO.C,Q5*%
X72390000Y-118110000D03*
D15*
X73660000Y-118110000D03*
X74930000Y-118110000D03*
%TD*%
D10*
%TO.C,R20*%
X37030000Y-88900000D03*
D11*
X37030000Y-78740000D03*
%TD*%
D10*
%TO.C,R22*%
X62430000Y-78740000D03*
D11*
X62430000Y-88900000D03*
%TD*%
D16*
%TO.C,Q2*%
X44450000Y-101600000D03*
D17*
X44450000Y-100330000D03*
X44450000Y-99060000D03*
%TD*%
D16*
%TO.C,Q7*%
X74930000Y-82550000D03*
D17*
X74930000Y-81280000D03*
X74930000Y-80010000D03*
%TD*%
D10*
%TO.C,C1*%
X44450000Y-106680000D03*
X46950000Y-106680000D03*
%TD*%
%TO.C,R7*%
X59690000Y-92710000D03*
D11*
X59690000Y-102870000D03*
%TD*%
D10*
%TO.C,R13*%
X91440000Y-92710000D03*
D11*
X81280000Y-92710000D03*
%TD*%
D10*
%TO.C,R6*%
X54610000Y-92710000D03*
D11*
X54610000Y-102870000D03*
%TD*%
D16*
%TO.C,Q9*%
X68580000Y-82671130D03*
D17*
X68580000Y-81401130D03*
X68580000Y-80131130D03*
%TD*%
D10*
%TO.C,R8*%
X58320000Y-110490000D03*
D11*
X58320000Y-120650000D03*
%TD*%
D10*
%TO.C,R4*%
X48160000Y-110490000D03*
D11*
X48160000Y-120650000D03*
%TD*%
D10*
%TO.C,C3*%
X66040000Y-94540000D03*
X66040000Y-92040000D03*
%TD*%
%TO.C,R9*%
X54610000Y-106680000D03*
D11*
X64770000Y-106680000D03*
%TD*%
D10*
%TO.C,R1*%
X36770000Y-110490000D03*
D11*
X36770000Y-100330000D03*
%TD*%
D10*
%TO.C,R5*%
X53240000Y-110490000D03*
D11*
X53240000Y-120650000D03*
%TD*%
D10*
%TO.C,R16*%
X81280000Y-87630000D03*
D11*
X91440000Y-87630000D03*
%TD*%
D10*
%TO.C,R12*%
X91440000Y-97790000D03*
D11*
X81280000Y-97790000D03*
%TD*%
D16*
%TO.C,Q1*%
X44450000Y-95250000D03*
D17*
X44450000Y-93980000D03*
X44450000Y-92710000D03*
%TD*%
D10*
%TO.C,C2*%
X68580000Y-106680000D03*
X68580000Y-104180000D03*
%TD*%
%TO.C,R2*%
X43080000Y-110490000D03*
D11*
X43080000Y-120650000D03*
%TD*%
D12*
%TO.C,OUT*%
X82550000Y-80010000D03*
D13*
X80010000Y-80010000D03*
%TD*%
D16*
%TO.C,Q10*%
X74930000Y-88923217D03*
D17*
X74930000Y-87653217D03*
X74930000Y-86383217D03*
%TD*%
D10*
%TO.C,R11*%
X91440000Y-102870000D03*
D11*
X81280000Y-102870000D03*
%TD*%
D14*
%TO.C,Q3*%
X80010000Y-118110000D03*
D15*
X81280000Y-118110000D03*
X82550000Y-118110000D03*
%TD*%
D10*
%TO.C,R15*%
X77470000Y-99060000D03*
D11*
X67310000Y-99060000D03*
%TD*%
D16*
%TO.C,Q6*%
X74930000Y-95250000D03*
D17*
X74930000Y-93980000D03*
X74930000Y-92710000D03*
%TD*%
D14*
%TO.C,Q4*%
X64770000Y-118110000D03*
D15*
X66040000Y-118110000D03*
X67310000Y-118110000D03*
%TD*%
D10*
%TO.C,R21*%
X57350000Y-88900000D03*
D11*
X57350000Y-78740000D03*
%TD*%
D10*
%TO.C,R18*%
X47290000Y-88900000D03*
D11*
X47290000Y-78740000D03*
%TD*%
D14*
%TO.C,Q8*%
X87630000Y-82550000D03*
D15*
X88900000Y-82550000D03*
X90170000Y-82550000D03*
%TD*%
M02*
